<svg width="20" height="21" viewBox="0 0 20 21" fill="none" xmlns="http://www.w3.org/2000/svg">
<path d="M10 20.5C15.5078 20.5 20 16.0469 20 10.5C20 4.99219 15.5078 0.5 10 0.5C4.45312 0.5 0 4.99219 0 10.5C0 16.0469 4.45312 20.5 10 20.5ZM9.0625 13.9375V11.4375H6.5625C6.01562 11.4375 5.625 11.0469 5.625 10.5C5.625 9.99219 6.01562 9.5625 6.5625 9.5625H9.0625V7.0625C9.0625 6.55469 9.45312 6.125 10 6.125C10.5078 6.125 10.9375 6.55469 10.9375 7.0625V9.5625H13.4375C13.9453 9.5625 14.375 9.99219 14.375 10.5C14.375 11.0469 13.9453 11.4375 13.4375 11.4375H10.9375V13.9375C10.9375 14.4844 10.5078 14.875 10 14.875C9.45312 14.875 9.0625 14.4844 9.0625 13.9375Z" fill="#009E82"/>
</svg>
