<svg width="50" height="50" viewBox="0 0 50 50" fill="none" xmlns="http://www.w3.org/2000/svg">
<path opacity="0.1" d="M25.5 41.225C36.2695 41.225 45 32.4945 45 21.725C45 10.9554 36.2695 2.22498 25.5 2.22498C14.7304 2.22498 6 10.9554 6 21.725C6 32.4945 14.7304 41.225 25.5 41.225Z" fill="#4CBDFF"/>
<path opacity="0.2" d="M24.7502 29.875H17.5752V35.5H24.7502V29.875Z" stroke="#4CBDFF" stroke-width="0.5826" stroke-miterlimit="10"/>
<path opacity="0.2" d="M24.3253 30.375H17.9253V35H24.3253V30.375Z" fill="#4CBDFF"/>
<path opacity="0.2" d="M36.0998 5.75H22.1748V16.675H36.0998V5.75Z" stroke="#4CBDFF" stroke-width="1.2071" stroke-miterlimit="10"/>
<path opacity="0.2" d="M35.275 6.69995H22.875V15.65H35.275V6.69995Z" fill="#4CBDFF"/>
<path d="M26.3502 10.875C27.6502 10.975 28.9752 11.05 30.3752 11.025C37.9752 11 44.4502 9.12495 49.3502 7.07495C48.1502 13.95 45.6002 23.375 39.7002 33.1749C37.4002 37.025 34.9252 40.2999 32.5752 43.075C32.1502 43.475 31.6252 43.9 31.0002 44.325C30.0002 45 29.0252 45.45 28.2502 45.75C26.6752 46.2249 20.6502 47.875 14.3752 44.7999C10.9252 43.125 8.8002 40.6999 7.7002 39.2249C8.2502 39.4749 9.1002 39.75 10.1002 39.7C10.1002 39.7 10.9252 39.6749 11.7502 39.3499C13.5002 38.6999 23.1252 31.2999 25.9502 13.775C26.1752 12.525 26.2752 11.5 26.3502 10.875Z" fill="#B1E7DD"/>
<path d="M10.4753 41.025C11.3253 40.275 12.1753 39.5 13.0253 38.75C13.1253 38.65 12.9753 38.5 12.8753 38.6C12.0253 39.35 11.1753 40.125 10.3253 40.875C10.2003 40.975 10.3503 41.125 10.4753 41.025Z" fill="#8FC9BE"/>
<path d="M27.5252 14.2749C27.3002 15.5249 27.0502 16.7749 26.8252 18.0249C28.0752 18.1249 29.3002 18.2499 30.5502 18.3499C30.8502 17.0749 31.1502 15.7999 31.4752 14.5249C30.1502 14.4499 28.8252 14.3749 27.5252 14.2749Z" fill="white"/>
<path d="M33.4753 15.5C37.2503 15.475 41.0253 15.425 44.8003 15.4C45.0753 15.4 45.0753 14.975 44.8003 14.975C41.0253 15 37.2503 15.05 33.4753 15.075C33.2003 15.075 33.2003 15.5 33.4753 15.5Z" fill="white"/>
<path d="M32.9001 17.925C36.6251 17.95 40.3251 18 44.0501 18.025C44.3251 18.025 44.3251 17.6 44.0501 17.6C40.3251 17.575 36.6251 17.525 32.9001 17.5C32.6251 17.5 32.6251 17.925 32.9001 17.925Z" fill="white"/>
<path d="M25.7502 21.225C25.3502 22.425 24.9752 23.65 24.5752 24.85C25.9002 25.1 27.2252 25.35 28.5502 25.6C28.9002 24.4 29.2502 23.175 29.6252 21.975C28.3502 21.725 27.0502 21.475 25.7502 21.225Z" fill="white"/>
<path d="M31.55 23.1749C35.3 23.6249 39.05 24.0499 42.8 24.4999C43.075 24.5249 43.075 24.0999 42.8 24.0749C39.05 23.6249 35.3 23.1999 31.55 22.7499C31.275 22.6999 31.275 23.1249 31.55 23.1749Z" fill="white"/>
<path d="M30.6004 25.5C34.2754 26 37.9754 26.5 41.6504 27C41.9254 27.025 42.0254 26.625 41.7754 26.575C38.1004 26.075 34.4004 25.575 30.7254 25.075C30.4504 25.05 30.3254 25.45 30.6004 25.5Z" fill="white"/>
<path d="M22.0754 29.7C23.2504 29.975 24.4004 30.2749 25.5754 30.5499C24.9004 31.8999 24.2254 33.2499 23.5504 34.5999C22.3754 34.1499 21.2004 33.6999 20.0254 33.2249C20.7004 32.0749 21.4004 30.875 22.0754 29.7Z" fill="white"/>
<path d="M18.375 36.2C19.625 36.5 20.9 36.825 22.15 37.125C21.325 38.425 20.475 39.7499 19.65 41.0499C18.35 40.5499 17.05 40.0499 15.75 39.5499C16.6 38.4249 17.475 37.3 18.375 36.2Z" fill="white"/>
<path d="M26.8753 31.85C30.3753 32.8 33.8503 33.775 37.3503 34.725C37.6003 34.8 37.7253 34.4 37.4503 34.325C33.9503 33.375 30.4753 32.4 26.9753 31.45C26.7253 31.35 26.6253 31.775 26.8753 31.85Z" fill="white"/>
<path d="M25.7254 33.7C29.1754 34.8 32.6254 35.925 36.0754 37.025C36.3254 37.1 36.4504 36.7 36.1754 36.625C32.7254 35.525 29.2754 34.4 25.8254 33.3C25.5754 33.2 25.4754 33.6 25.7254 33.7Z" fill="white"/>
<path d="M22.9752 38.7999C25.5502 39.6999 28.1252 40.5999 30.7002 41.4999C30.9502 41.5999 31.0752 41.1749 30.8252 41.0749C28.2502 40.1749 25.6752 39.2749 23.1002 38.3749C22.8252 38.2999 22.7252 38.7249 22.9752 38.7999Z" fill="white"/>
<path d="M21.45 40.75C24.025 41.65 26.6 42.55 29.175 43.45C29.425 43.55 29.55 43.125 29.3 43.025C26.725 42.125 24.15 41.225 21.575 40.325C21.3 40.25 21.175 40.65 21.45 40.75Z" fill="white"/>
<path d="M32.9001 42.6C32.3751 42.725 31.5751 42.85 30.6251 42.725C29.3501 42.55 28.4001 42.025 27.9251 41.725C27.7001 42.45 27.4501 43.775 27.9751 45.15C28.0501 45.375 28.1501 45.575 28.2751 45.775C28.8251 45.6 29.4251 45.325 30.0751 44.95C31.3751 44.2 32.3001 43.3 32.9001 42.6Z" fill="#8FC9BE"/>
<path d="M27.45 16.7499C27.75 17.0249 28.025 17.3249 28.325 17.5999C28.45 17.7249 28.65 17.7249 28.775 17.5999C29.525 16.9499 30.3 16.3249 31.05 15.6749C31.175 15.5749 31.175 15.3249 31.05 15.2249C30.925 15.0999 30.725 15.1249 30.6 15.2249C29.85 15.8749 29.075 16.4999 28.325 17.1499C28.475 17.1499 28.625 17.1499 28.775 17.1499C28.475 16.8749 28.2 16.5749 27.9 16.2999C27.6 15.9999 27.15 16.4499 27.45 16.7499Z" fill="#348C5E"/>
<path d="M9.8252 37.3001C9.9252 37.1001 10.0002 36.9001 10.1002 36.7001C10.1502 36.9251 10.2002 37.1501 10.2252 37.4001C11.6502 37.4001 13.0752 37.4001 14.5002 37.3751C15.1502 36.7751 15.7752 36.1751 16.4252 35.5501C16.2002 34.1501 15.9502 32.7751 15.7252 31.3751C14.5752 31.7501 12.2502 32.3501 9.4002 31.7751C7.6502 31.4251 6.3252 30.7251 5.4502 30.2001C4.8252 31.8751 4.2752 33.7251 3.8002 35.7251C3.6752 36.2751 3.5502 36.8251 3.4502 37.3751C5.6002 37.3501 7.7252 37.3251 9.8252 37.3001Z" fill="#AAC4D1"/>
<path d="M9.15 32.0001C9.05 32.4251 8.975 32.8501 8.875 33.2751C8.65 33.4251 8.275 33.6501 7.775 33.7001C6.725 33.8251 6.175 33.0251 5.625 33.1501C5.15 33.2501 4.6 34.0251 4.45 37.3501C4.125 37.3501 3.825 37.3501 3.5 37.3501C3.7 36.1751 3.975 34.9001 4.375 33.5251C4.725 32.3001 5.1 31.2001 5.5 30.2001C6.7 30.8251 7.925 31.4251 9.15 32.0001Z" fill="#78929F"/>
<path d="M11.8749 34.65C11.6499 34.775 11.4249 34.875 11.1999 35C11.0999 35.05 10.9499 35.1 10.8499 35.175C10.7749 35.225 10.7249 35.375 10.6999 35.475C10.4749 35.925 10.2749 36.375 10.0499 36.825C9.9999 36.95 10.1749 37.05 10.2249 36.925C10.4249 36.5 10.6249 36.075 10.8499 35.625C10.8749 35.575 10.8999 35.525 10.9249 35.475C10.9499 35.425 10.9749 35.35 10.9999 35.325C11.0499 35.3 11.0999 35.275 11.1499 35.25C11.1999 35.225 11.2749 35.2 11.3249 35.175C11.5499 35.075 11.7749 34.95 11.9749 34.85C12.0999 34.75 11.9749 34.575 11.8749 34.65Z" fill="#78929F"/>
<path d="M11.1 12.15C10.85 12.575 10.6 13.025 10.35 13.45C10.1 13.525 9.875 13.575 9.625 13.65C9.625 15.075 9.625 16.525 9.625 17.95C9.95 18.125 10.45 18.375 11.1 18.475C12.225 18.65 13.125 18.3 13.525 18.125C13.525 17.925 13.525 17.725 13.525 17.525C13.675 17.425 13.875 17.25 14.05 17C14.175 16.8 14.225 16.65 14.275 16.55C14.4 16.15 14.65 15.4 14.95 14.45C13.65 13.675 12.375 12.925 11.1 12.15Z" fill="#E2B18A"/>
<path d="M10.15 13.5C9.975 13.55 9.8 13.6 9.625 13.65C9.625 15.075 9.625 16.525 9.625 17.95C9.725 18 9.8 18.05 9.9 18.1C9.9 17.025 9.95 15.875 10.025 14.7C10.075 14.3 10.1 13.9 10.15 13.5Z" fill="#B48262"/>
<path d="M11.1498 12C10.9498 12.375 10.7498 12.75 10.5498 13.125C11.0748 15.2 12.2748 16.475 13.3248 16.425C13.5498 16.4 13.8748 16.325 14.2748 16C14.1998 16.35 14.0998 16.6 14.0248 16.775C13.8498 17.125 13.6248 17.4 13.4248 17.65C13.3248 17.775 13.2248 17.875 13.1498 17.95C13.3498 17.825 13.7748 17.55 14.0998 17C14.4248 16.475 14.4748 15.95 14.4748 15.725C14.6248 15.3 14.7498 14.9 14.8998 14.475C13.6748 13.625 12.3998 12.825 11.1498 12Z" fill="#B48262"/>
<path d="M9.6498 17.875C9.7248 20.125 9.7248 22.6 9.5498 25.275C9.3998 27.675 9.1248 29.925 8.7998 31.95C9.3748 32.125 10.1248 32.275 10.9748 32.325C12.0248 32.4 12.9248 32.3 13.6248 32.175C13.8748 30.45 14.0498 28.525 14.0998 26.45C14.1998 23.15 13.9498 20.175 13.5998 17.65C13.3498 17.85 12.7498 18.275 11.8498 18.375C10.7248 18.5 9.8998 18.025 9.6498 17.875Z" fill="white"/>
<path d="M13.5998 17.65C13.8998 19.425 14.1248 21.475 14.1998 23.725C14.2998 26.95 14.0248 29.8 13.6248 32.175C13.4748 32.2 13.3248 32.25 13.1998 32.275C13.6248 29.325 13.8748 25.85 13.5998 22C13.4998 20.575 13.3498 19.225 13.1748 17.95C13.2998 17.825 13.4498 17.75 13.5998 17.65Z" fill="#DCDCDC"/>
<path d="M9.6498 17.875C9.7248 20.125 9.7248 22.6 9.5498 25.275C9.3998 27.675 9.1248 29.925 8.7998 31.95C8.9248 31.975 9.0248 32 9.1498 32.025C9.5748 29.225 9.8998 26.1 9.9498 22.7C9.9748 21.075 9.9498 19.525 9.8998 18.05C9.8248 17.975 9.7248 17.925 9.6498 17.875Z" fill="#DCDCDC"/>
<path d="M9.9 13.6C9.375 13.7 8.8 13.85 8.2 14.025C7.2 14.35 6.35 14.75 5.675 15.15C4.45 16.45 2.85 18.5 1.7 21.325C1.075 22.85 0.7 24.25 0.5 25.425C1.45 26.375 2.75 27.425 4.45 28.175C4.775 28.325 5.075 28.45 5.375 28.55C5.075 29.85 4.75 31.15 4.45 32.45C5.25 32.425 5.8 32.575 6.175 32.75C6.75 33 7.025 33.325 7.675 33.425C8.075 33.475 8.425 33.425 8.65 33.35C8.825 32.2 9 31.075 9.175 29.925C9.375 29.95 9.575 29.975 9.775 29.975C10.325 28.975 10.85 27.975 11.4 26.95C10.825 26.65 10.25 26.375 9.65 26.075C9.675 23.625 9.7 21.15 9.775 18.65C9.8 16.975 9.85 15.275 9.9 13.6Z" fill="#E4B34D"/>
<path d="M9.95011 13.45C9.67511 13.525 9.40011 13.575 9.12511 13.65C9.02511 13.675 8.87511 13.675 8.77511 13.75C8.67511 13.8 8.57511 13.95 8.47511 14.05C8.05011 14.475 7.62511 14.9 7.20011 15.325C7.15011 15.375 7.17511 15.45 7.22511 15.475C7.65011 15.75 8.15011 15.85 8.65011 15.7C8.85011 15.65 9.10011 15.475 9.27511 15.675C9.42511 15.85 9.45011 16.15 9.50011 16.375C9.57511 16.9 9.57511 17.425 9.57511 17.95C9.57511 18.075 9.77511 18.075 9.77511 17.95C9.77511 17.4 9.77511 16.85 9.70011 16.325C9.65011 16.075 9.60011 15.8 9.45011 15.575C9.32511 15.4 9.15011 15.35 8.95011 15.375C8.70011 15.425 8.50011 15.55 8.25011 15.55C7.92511 15.575 7.62511 15.45 7.35011 15.275C7.35011 15.325 7.37511 15.375 7.37511 15.425C7.77511 15.025 8.15011 14.625 8.55011 14.25C8.65011 14.15 8.72511 14.05 8.82511 13.975C8.92511 13.875 9.07511 13.85 9.20011 13.825C9.47511 13.75 9.75011 13.7 10.0251 13.625C10.1251 13.625 10.0751 13.425 9.95011 13.45Z" fill="#C9962D"/>
<path d="M29.2002 29.2001C29.2752 29.1751 29.3252 29.175 29.4002 29.15C29.5252 29.125 29.5752 29.125 29.6502 29.125C29.7252 29.1 29.8002 29.075 29.8502 29.05C29.8752 29.05 30.0252 29.05 30.1002 29.15C30.1002 29.15 30.1752 29.25 30.1252 29.4C30.0502 29.775 28.8002 30.1751 28.7002 30.225C28.7752 29.975 28.8252 29.7001 28.9002 29.4501C29.0002 29.3751 29.1002 29.3001 29.2002 29.2001Z" fill="#B48262"/>
<path d="M23.6501 27.425C24.7251 26.825 25.3251 26.775 25.6751 26.875C25.7751 26.9 26.0751 27 26.4751 27C26.7751 27 27.0001 26.975 27.1501 26.925C27.5001 26.875 27.7751 27.025 27.8251 27.2C27.8751 27.425 27.6001 27.65 27.5751 27.7C27.4251 27.825 27.3251 27.85 26.9501 28C26.7751 28.075 26.6251 28.15 26.5501 28.2C26.6501 28.35 26.8251 28.575 27.1001 28.775C27.5751 29.1 28.0751 29.1 28.2501 29.075C28.6751 28.9 29.0751 28.75 29.5001 28.575C29.9001 28.425 30.0001 28.575 30.0001 28.6C30.1001 28.75 29.8751 29.125 29.6251 29.325C29.5501 29.375 29.4751 29.425 29.4251 29.45C29.2751 29.7 29.1251 29.925 28.9501 30.175C28.7751 30.25 28.5501 30.35 28.2751 30.45C28.0001 30.525 27.4001 30.7 26.7251 30.625C26.2501 30.575 25.8501 30.375 25.0751 30.025C24.4751 29.75 24.0251 29.475 23.7001 29.275C23.0001 29.325 22.2751 29.375 21.5751 29.4C21.4501 28.525 21.3501 27.65 21.2251 26.775C22.0251 26.95 22.8501 27.2 23.6501 27.425Z" fill="#E2B18A"/>
<path d="M25.2752 28.2501C25.4752 28.4251 25.7502 28.5251 26.0252 28.5001C26.2502 28.4751 26.4502 28.4001 26.6252 28.2501C26.6752 28.2251 26.6502 28.1501 26.6252 28.1251C26.5752 28.0751 26.5252 28.1001 26.5002 28.1251C26.4752 28.1251 26.4752 28.1501 26.4502 28.1501C26.4252 28.1751 26.3752 28.2001 26.3502 28.2001C26.2502 28.2501 26.1502 28.2751 26.0252 28.3001C25.9002 28.3001 25.7502 28.3001 25.6252 28.2501C25.5752 28.2251 25.5252 28.2001 25.5002 28.1751C25.4752 28.1751 25.4752 28.1501 25.4502 28.1501C25.4252 28.1251 25.4502 28.1501 25.4252 28.1251C25.3752 28.1001 25.3252 28.0751 25.3002 28.1251C25.2502 28.1501 25.2502 28.2251 25.2752 28.2501Z" fill="#B48262"/>
<path d="M25.7249 29.3C26.2499 29.2 26.7249 29.275 27.1499 29.6C27.2749 29.7 27.4249 29.8 27.5999 29.825C27.8249 29.85 28.0499 29.8 28.2249 29.7C28.4749 29.6 28.6499 29.375 28.8999 29.275C28.9999 29.225 29.1499 29.2 29.2499 29.3C29.3749 29.45 29.1749 29.75 29.0749 29.85C28.9499 29.975 28.7749 30.05 28.6249 30.1C28.4999 30.125 28.5499 30.325 28.6749 30.275C28.9999 30.175 29.2749 30 29.4249 29.7C29.5249 29.475 29.5499 29.2 29.2999 29.075C28.9249 28.9 28.5999 29.325 28.2999 29.475C28.0999 29.6 27.8249 29.7 27.5749 29.625C27.3999 29.575 27.2749 29.425 27.1249 29.325C26.6999 29.05 26.1999 29.025 25.6999 29.125C25.5499 29.125 25.5999 29.325 25.7249 29.3Z" fill="#B48262"/>
<path d="M15.3 14.5751C16.2 15.2751 17.125 15.9751 18.025 16.6751C18.6 18.0001 19.15 19.4501 19.625 21.0751C19.85 21.8001 20.025 22.4751 20.175 23.1501C20.525 23.5501 21.025 24.0501 21.675 24.5001C22.75 25.2501 23.775 25.5751 24.475 25.7251C24.575 26.0751 24.7 26.8751 24.4 27.8001C23.95 29.1751 22.8 29.8251 22.55 29.9501C21.475 29.6001 19.9 28.9251 18.375 27.6001C17.65 26.9751 17.1 26.3501 16.65 25.7751C16.65 28.4001 16.675 31.0001 16.675 33.6251C16.075 33.7501 15.6 33.7251 15.275 33.6751C14.825 33.6251 14.55 33.5001 14.05 33.5251C13.7 33.5251 13.425 33.6001 13.25 33.6501C13.45 32.4001 13.625 31.0751 13.75 29.6751C14.15 25.1251 13.975 21.0001 13.5 17.4751C13.775 17.2501 13.925 17.0501 14.025 16.9001C14.15 16.7001 14.225 16.5001 14.375 16.0001C14.475 15.7001 14.575 15.3001 14.7 14.8251C14.925 14.7501 15.1 14.6751 15.3 14.5751Z" fill="#E4B34D"/>
<path d="M16.7499 25.8C16.6249 23.475 16.4749 21.15 16.3499 18.85C16.3499 18.725 16.1249 18.725 16.1499 18.85C16.2749 21.175 16.4249 23.5 16.5499 25.8C16.5499 25.925 16.7749 25.925 16.7499 25.8Z" fill="#C9962D"/>
<path d="M13.6251 17.75C13.9251 17.7 14.2001 17.575 14.4501 17.4C14.5751 17.3 14.7001 17.175 14.7751 17.025C14.8501 16.925 14.9001 16.825 15.0001 16.725C15.3751 16.4 16.0251 16.525 16.4501 16.6C16.5501 16.625 16.6001 16.525 16.5751 16.45C16.2251 15.825 15.8751 15.175 15.5251 14.55C15.4501 14.425 15.2751 14.525 15.3501 14.65C15.7001 15.275 16.0501 15.925 16.4001 16.55C16.4501 16.5 16.4751 16.45 16.5251 16.4C16.0501 16.3 15.4001 16.2 14.9751 16.5C14.7751 16.65 14.6751 16.85 14.5251 17.05C14.3001 17.325 13.9501 17.475 13.6001 17.55C13.4251 17.575 13.5001 17.775 13.6251 17.75Z" fill="#C9962D"/>
<path d="M7.15024 19.4001C6.50024 20.9751 5.85024 22.5251 5.20024 24.1001C5.17524 24.1501 5.20024 24.2001 5.25024 24.2251C7.30024 25.1751 9.35024 26.1001 11.4002 27.0501C11.5252 27.1001 11.6252 26.9251 11.5002 26.8751C9.45024 25.9251 7.40024 25.0001 5.35024 24.0501C5.37524 24.1001 5.37524 24.1251 5.40024 24.1751C6.05024 22.6001 6.70024 21.0501 7.35024 19.4751C7.40024 19.3501 7.20024 19.2751 7.15024 19.4001Z" fill="#C9962D"/>
<path d="M15.7749 15.275C15.2749 15.45 14.9999 15.7 14.8249 15.9C14.5249 16.225 14.4749 16.5 14.1249 17C13.8999 17.3 13.6749 17.525 13.5249 17.65C13.5249 17.65 13.4999 17.65 13.4999 17.625C13.4749 17.6 13.4999 17.575 13.4999 17.55C13.7999 17.275 13.9749 17 14.0749 16.825C14.3499 16.35 14.4999 15.775 14.5499 15.575C14.6249 15.275 14.6249 15.225 14.6999 15.1C14.8999 14.75 15.2499 14.6 15.5249 14.525C15.5999 14.75 15.6999 15 15.7749 15.275Z" fill="#C9962D"/>
<path d="M19.05 23.9751C19.225 23.5251 19.7 23.2501 20.2 23.2751C20.175 23.2251 20.15 23.1501 20.125 23.1001C19.725 23.4751 19.525 24.0251 19.575 24.5501C19.575 24.6001 19.625 24.6501 19.675 24.6501C19.725 24.6501 19.775 24.6001 19.775 24.5501C19.7 24.0501 19.9 23.5751 20.25 23.2501C20.325 23.1751 20.25 23.0751 20.175 23.0751C19.925 23.0751 19.675 23.1251 19.45 23.2501C19.175 23.4001 18.95 23.6501 18.825 23.9501C18.8 24.0001 18.85 24.0751 18.9 24.0751C18.975 24.0501 19.025 24.0251 19.05 23.9751Z" fill="#C9962D"/>
<path d="M4.12506 24.525C4.40006 24.175 4.85006 24.075 5.25006 24.225C5.22506 24.175 5.20006 24.125 5.20006 24.075C4.97506 24.375 4.75006 24.675 4.52506 24.975C4.50006 25.025 4.52506 25.1 4.55006 25.125C4.60006 25.15 4.65006 25.125 4.70006 25.1C4.92506 24.8 5.15006 24.5 5.37506 24.2C5.42506 24.15 5.37506 24.075 5.32506 24.05C4.87506 23.85 4.30006 24 4.00006 24.4C3.97506 24.45 3.95006 24.5 4.00006 24.55C4.02506 24.55 4.10006 24.55 4.12506 24.525Z" fill="#C9962D"/>
<path d="M17.0003 9.85C16.8753 10.7 16.6503 11.75 16.2253 12.875C15.9753 13.525 15.7003 14.1 15.4253 14.6C15.2003 14.775 14.6753 15.175 13.9003 15.225C13.8253 15.225 13.4253 15.25 12.9253 15.075C11.7503 14.675 11.0753 13.65 10.8253 13.225C10.8503 12.975 10.9003 12.675 11.0003 12.375C11.0253 12.3 11.0503 12.2 11.0753 12.125C10.6753 12.05 10.3503 11.825 10.2253 11.5C10.0253 10.9 10.6253 10.225 10.8253 10.275C11.0003 10.325 11.0503 10.95 11.0503 10.95C10.8003 9.55 11.1503 8.2 12.0003 7.625C13.2753 6.775 15.8003 7.425 17.0003 9.85Z" fill="#E2B18A"/>
<path d="M17.0002 9.85007C16.9502 9.70007 16.8502 9.47507 16.6502 9.35007C16.3502 9.17507 16.0752 9.37507 15.7502 9.37507C14.8752 9.40007 14.7502 8.17507 13.5752 7.85007C13.0752 7.70007 12.4002 7.75007 12.2002 8.07507C12.1502 8.15007 12.1252 8.27507 12.1002 8.52507C12.0502 9.00007 12.1252 9.12507 12.0502 9.37507C11.9752 9.70007 11.7752 9.77507 11.5752 10.0751C11.4252 10.3251 11.2502 10.7251 11.3002 11.3751C11.3252 11.3751 11.3502 11.3501 11.4002 11.3001C11.5252 11.2001 11.5752 11.0251 11.5752 10.9501C11.6002 10.8001 11.7002 10.4501 11.8502 10.1751C12.0002 9.95007 12.0752 10.0251 12.2002 9.82507C12.4252 9.47507 12.2252 9.22507 12.4752 8.90007C12.6252 8.67507 12.8252 8.60007 12.8752 8.57507C13.1502 8.45007 13.4252 8.50007 13.7252 8.57507C14.8752 8.90007 14.9502 9.65007 15.6752 9.65007C15.9002 9.65007 16.2002 9.57507 16.6502 9.70007C16.8252 9.75007 16.9252 9.80007 17.0002 9.85007Z" fill="#B48262"/>
<path d="M16.6252 11.65C16.7752 11.65 17.0752 11.65 17.3002 11.475C17.6752 11.175 17.7502 10.5 17.3752 9.87502C17.4752 9.70002 17.7002 9.22502 17.5502 8.72502C17.4252 8.35002 17.1752 8.15002 16.6502 7.77502C16.2752 7.50002 15.8502 7.20002 15.1752 7.05002C14.7252 6.95002 14.3252 6.97502 14.0752 7.00002C13.9752 6.92502 13.3502 6.45002 12.5752 6.60002C11.8002 6.72502 11.1502 7.40002 11.0002 8.25002C10.3502 8.35002 9.85024 8.80002 9.77524 9.35002C9.72524 9.77502 9.95024 10.125 10.0252 10.225C9.95024 10.325 9.70024 10.75 9.80024 11.25C9.90024 11.8 10.4002 12.25 11.0252 12.375C11.0752 12.25 11.1002 12.125 11.1502 12C10.7002 11.9 10.3752 11.6 10.3252 11.225C10.2502 10.8 10.5752 10.325 10.7752 10.35C10.8252 10.35 10.9752 10.4 11.0752 10.925C11.0252 11.1 11.0252 11.25 11.1252 11.325C11.1752 11.35 11.2252 11.375 11.3002 11.375C11.5502 11.325 11.5502 10.575 11.5502 10.5C11.5752 10.4 11.6252 10.275 11.7252 10.125C11.9002 9.85002 12.0002 9.87502 12.1002 9.67502C12.2252 9.45002 12.2002 9.17502 12.1752 8.92502C12.1502 8.65002 12.1002 8.60002 12.1252 8.47502C12.2002 8.20002 12.5502 8.02502 12.8502 8.00002C13.5752 7.90002 14.3002 8.52502 14.8002 8.92502C15.0752 9.15002 15.2752 9.37502 15.6502 9.47502C15.9502 9.55002 16.2252 9.52502 16.4252 9.47502C16.4752 9.47502 16.6252 9.45002 16.7502 9.52502C16.9252 9.62502 17.0002 9.80002 17.0252 9.82502C16.9752 10.15 16.9002 10.525 16.8252 10.875C16.7502 11.15 16.6752 11.425 16.6252 11.65Z" fill="#281B10"/>
<path d="M15.4251 8.57501C15.1501 8.30001 15.3001 8.05001 15.0251 7.82501C14.8001 7.65001 14.6251 7.77501 14.1001 7.70001C13.4251 7.57501 13.3751 7.32501 12.8501 7.35001C12.7001 7.35001 12.3251 7.37501 12.0251 7.65001C11.5751 8.05001 11.6001 8.65001 11.6001 8.75001C10.8501 8.60001 10.1751 8.92501 9.97513 9.45001C9.85013 9.80001 9.97513 10.125 10.0251 10.275C9.95013 10.375 9.70013 10.8 9.80013 11.3C9.90013 11.85 10.4001 12.3 11.0251 12.425C11.0751 12.3 11.1001 12.175 11.1501 12.05C10.7001 11.95 10.3751 11.65 10.3251 11.275C10.2501 10.85 10.5751 10.375 10.7751 10.4C10.8251 10.4 10.9751 10.45 11.0751 10.975C11.0251 11.15 11.0251 11.3 11.1251 11.375C11.1751 11.4 11.2251 11.425 11.3001 11.425C11.5501 11.375 11.5501 10.625 11.5501 10.55C11.5751 10.45 11.6251 10.325 11.7251 10.175C11.9001 9.90001 12.0001 9.92501 12.1001 9.72501C12.2251 9.50001 12.2001 9.22501 12.1751 8.97501C12.1501 8.70001 12.1001 8.65001 12.1251 8.52501C12.2001 8.25001 12.5501 8.07501 12.8501 8.05001C13.6251 7.92501 14.5001 8.60001 14.8001 8.97501C14.8501 9.05001 15.0251 9.25001 15.3001 9.40001C15.4501 9.47501 15.5751 9.50001 15.6501 9.52501C15.7251 9.50001 15.8501 9.50001 16.0001 9.50001C16.3251 9.50001 16.4501 9.42501 16.6251 9.47501C16.7251 9.50001 16.8751 9.57501 17.0251 9.85001C16.9501 9.37501 16.7751 9.12501 16.6251 9.00001C16.2001 8.67501 15.7501 8.92501 15.4251 8.57501Z" fill="#140D07"/>
<path d="M15.7501 10.325C15.7501 10.25 15.8251 10.15 15.9001 10.125C16.2001 10.05 16.6751 10.7 16.5751 10.8C16.5001 10.925 15.7251 10.625 15.7501 10.325Z" fill="#281B10"/>
<path d="M13.35 9.52502C13.6 9.42502 13.85 9.35003 13.975 9.47503C14.05 9.55003 14.075 9.67502 14.025 9.77502C13.95 9.92502 13.725 9.92502 13.425 9.95002C13.275 9.95002 12.775 9.97503 12.75 9.87503C12.75 9.72503 13.3 9.55002 13.35 9.52502Z" fill="#281B10"/>
<path d="M15.1502 10.5L14.7252 12.075C14.7002 12.125 14.6752 12.225 14.6752 12.275C14.6752 12.325 14.7252 12.375 14.7252 12.425C14.7502 12.5 14.7752 12.575 14.7752 12.65C14.8002 12.725 14.8002 12.825 14.7252 12.9C14.6002 13.05 14.3502 13.025 14.1752 12.975C14.1002 12.95 14.1252 12.85 14.2002 12.85C14.3002 12.875 14.4252 12.9 14.5252 12.875C14.6502 12.85 14.6752 12.775 14.6502 12.65C14.6252 12.525 14.5752 12.425 14.5252 12.325C14.5002 12.225 14.5502 12.1 14.5752 12.025L15.0002 10.5C15.0502 10.4 15.1752 10.425 15.1502 10.5Z" fill="#281B10"/>
<path d="M15.7754 11.35C15.8504 11.375 15.8254 11.625 15.7504 11.825C15.7004 11.95 15.5754 12.125 15.5004 12.1C15.4254 12.075 15.4504 11.825 15.5254 11.625C15.6004 11.475 15.7254 11.325 15.7754 11.35Z" fill="#281B10"/>
<path d="M13.6252 10.675C13.7002 10.725 13.6502 10.925 13.6002 11.05C13.5502 11.175 13.4002 11.375 13.3252 11.35C13.2502 11.325 13.2252 11.075 13.3252 10.9C13.4002 10.75 13.5752 10.625 13.6252 10.675Z" fill="#281B10"/>
<path d="M14.3504 14.05C14.1504 14.2 13.9004 14.25 13.6504 14.15C13.3754 14.05 13.2004 13.8 13.1254 13.525C13.1004 13.45 13.2254 13.425 13.2504 13.5C13.3004 13.725 13.4504 13.975 13.7004 14.05C13.9004 14.125 14.1254 14.075 14.2754 13.95C14.3504 13.9 14.4004 14 14.3504 14.05Z" fill="black"/>
<path d="M15.8252 10.1C15.8002 10.1 15.8002 10.125 15.7752 10.125L15.7502 10.15C15.7502 10.15 15.7502 10.15 15.7502 10.175C15.7252 10.2 15.7252 10.225 15.7002 10.25V10.275V10.3C15.7002 10.325 15.6502 10.35 15.6252 10.35C15.6002 10.35 15.5752 10.3 15.5752 10.275C15.6002 10.175 15.6752 10.075 15.7502 9.99998C15.7752 9.99998 15.7752 9.97498 15.8002 9.97498C15.8252 9.97498 15.8252 9.97498 15.8502 9.99998C15.8502 10.05 15.8502 10.1 15.8252 10.1Z" fill="#281B10"/>
<path d="M14.1503 9.40002C14.2253 9.50002 14.2503 9.65002 14.2253 9.77502C14.2253 9.80002 14.1753 9.82502 14.1503 9.82502C14.1253 9.82502 14.1003 9.77502 14.1003 9.75002C14.1003 9.75002 14.1003 9.75003 14.1003 9.72502C14.1003 9.70002 14.1003 9.70002 14.1003 9.67502C14.1003 9.65002 14.1003 9.65002 14.1003 9.62502C14.1003 9.62502 14.1003 9.62502 14.1003 9.60002V9.57502C14.1003 9.55002 14.1003 9.55002 14.1003 9.52502V9.50002C14.1003 9.47502 14.0753 9.45002 14.0753 9.45002C14.0503 9.42502 14.0753 9.37502 14.1003 9.37502C14.1253 9.37502 14.1253 9.35002 14.1503 9.40002Z" fill="#281B10"/>
<path d="M13.6502 15.125C13.6502 15.1 13.6252 15.025 13.1502 14.875C12.7502 14.75 12.5502 14.7 12.4752 14.775C12.4002 14.875 12.4752 15.075 12.4752 15.1C12.6002 15.4 12.9752 15.6 13.3002 15.5C13.5002 15.425 13.6752 15.25 13.6502 15.125Z" fill="#281B10"/>
<path d="M13.4002 15.0751C13.3502 14.9751 13.2002 15.0251 12.9752 14.9751C12.7752 14.9501 12.6002 14.8751 12.5002 14.8251C12.4752 14.8751 12.4502 14.9751 12.4752 15.0501C12.5252 15.3751 13.0752 15.6001 13.3002 15.4501C13.4252 15.3751 13.4752 15.1751 13.4002 15.0751Z" fill="#140D07"/>
<path d="M15.6502 11.975L15.6252 11.95C15.6252 11.95 15.6002 11.95 15.6002 11.925C15.6002 11.925 15.6002 11.9 15.5752 11.9V11.875V11.85L15.6002 11.825L15.6252 11.8H15.6502C15.6752 11.8 15.6752 11.8 15.7002 11.8L15.7252 11.825C15.7252 11.825 15.7502 11.825 15.7502 11.85C15.7502 11.85 15.7502 11.875 15.7752 11.875V11.9V11.925L15.7502 11.95L15.7252 11.975H15.7002C15.6752 12 15.6502 12 15.6502 11.975Z" fill="white"/>
<path d="M13.475 11.3L13.425 11.25C13.425 11.25 13.4 11.25 13.4 11.225C13.4 11.225 13.4 11.2 13.375 11.2V11.175V11.15L13.4 11.125L13.425 11.1H13.45C13.475 11.1 13.475 11.1 13.5 11.1L13.55 11.125C13.55 11.125 13.575 11.125 13.575 11.15C13.575 11.15 13.575 11.175 13.6 11.175V11.2V11.225L13.575 11.25L13.55 11.275H13.525C13.525 11.3 13.5 11.3 13.475 11.3Z" fill="white"/>
<path d="M10.9001 11.025C10.9001 10.925 10.9001 10.85 10.8501 10.775C10.8001 10.675 10.6751 10.6 10.6251 10.625C10.5251 10.7 10.8001 11.3 10.8751 11.275C10.9001 11.275 10.9001 11.1 10.9001 11.025Z" fill="#B48262"/>
<path d="M14.0253 6.97501C14.3253 6.92501 14.6253 6.95001 14.9003 7.00001C15.2003 7.05001 15.4503 7.10001 15.7253 7.17501C16.2503 7.32501 16.7503 7.57501 17.1253 8.00001C17.2253 8.10001 17.3253 8.25001 17.3253 8.37501C17.3503 8.50001 17.3003 8.65001 17.2003 8.75001C17.1503 8.77501 17.1003 8.72501 17.1503 8.70001C17.2503 8.62501 17.2753 8.47501 17.2503 8.37501C17.2253 8.25001 17.1253 8.15001 17.0503 8.05001C16.8753 7.85001 16.6753 7.70001 16.4503 7.57501C16.0003 7.32501 15.5003 7.20001 15.0003 7.12501C14.7003 7.07501 14.3753 7.02501 14.0503 7.10001C14.0003 7.05001 13.9753 6.97501 14.0253 6.97501Z" fill="#281B10"/>
<path d="M11.9503 7.12508C11.4753 7.37508 10.9253 7.70007 10.8503 8.27507C10.8253 8.42507 10.8503 8.57508 10.9253 8.70008C10.9503 8.75008 10.8753 8.77508 10.8503 8.75008C10.7253 8.50008 10.7503 8.22508 10.8503 7.97508C10.9753 7.70008 11.2003 7.50008 11.4253 7.32508C11.5753 7.22508 11.7253 7.15008 11.9003 7.05008C11.9753 7.02508 12.0003 7.10008 11.9503 7.12508Z" fill="#281B10"/>
<path d="M17.3005 9.75C17.4505 9.75 17.5755 9.825 17.6755 9.95C17.7505 10.075 17.8005 10.225 17.8005 10.375C17.8005 10.525 17.7755 10.7 17.6505 10.8C17.5505 10.875 17.4005 10.9 17.3005 10.8C17.2505 10.775 17.3255 10.7 17.3505 10.75C17.4255 10.825 17.5755 10.775 17.6255 10.7C17.7005 10.6 17.7255 10.45 17.7255 10.325C17.7255 10.1 17.6005 9.825 17.3255 9.825C17.2505 9.85 17.2505 9.75 17.3005 9.75Z" fill="#281B10"/>
<path d="M14.3749 29.7C14.5999 29.65 14.7999 29.6 14.9999 29.55C15.1999 29.45 15.3749 29.6 15.4249 29.775C15.4499 29.95 15.3249 30.225 15.1249 30.25C15.3499 30.05 15.5749 30.1 15.6749 30.275C15.7249 30.375 15.7499 30.575 15.6749 30.7C15.5999 30.85 15.4249 30.875 15.2749 30.725C15.1249 30.7 14.9249 30.675 14.6999 30.575C14.5499 30.525 14.3999 30.45 14.1999 30.3C14.0999 30.2 13.9249 30.05 13.7749 29.8C13.9999 29.775 14.1749 29.725 14.3749 29.7Z" fill="#B48262"/>
<path d="M11.325 27.0501C11.725 26.9501 12.05 26.9001 12.125 26.9251C12.15 26.9251 12.175 26.9501 12.175 26.9501C12.225 26.9751 12.275 27.0251 12.525 27.1751C12.8 27.3251 13 27.4501 13.275 27.5501C13.4 27.6001 13.575 27.6501 13.8 27.7001C13.875 27.7001 14.125 27.7501 14.15 27.9001C14.2 28.0751 13.975 28.3501 13.6 28.5501C13.4 28.5251 13.225 28.5001 13.025 28.5001C13.075 28.7501 13.2 29.1251 13.45 29.4751C13.725 29.8501 14.025 30.0251 14.325 30.1751C14.55 30.3001 14.85 30.4251 15.25 30.5001C15.975 30.6501 15.975 30.9501 15.975 31.0001C15.975 31.2001 15.65 31.3751 15.625 31.4001C15.35 31.5501 15.075 31.4501 15 31.4251C14.625 31.5251 14.35 31.5251 14.15 31.5001C13.4 31.4251 12.8 30.9751 12.5 30.7501C12.2 30.5251 12.05 30.4001 12.05 30.4001C11.825 30.2251 11.725 30.1251 11.575 30.0251C11.575 30.0251 11.5 29.9501 11.4 29.9001C11 29.6251 10.25 29.3251 10.125 29.3001C10.55 28.5251 10.925 27.8001 11.325 27.0501Z" fill="#E2B18A"/>
<path d="M15.1001 31.3001C14.2251 30.9751 13.4001 30.4751 12.6501 29.8751C12.5751 29.8001 12.4501 29.9251 12.5251 30.0001C13.2751 30.6251 14.1251 31.1251 15.0501 31.4501C15.1751 31.5251 15.2251 31.3501 15.1001 31.3001Z" fill="#B48262"/>
<path d="M13.5 32.175C13.4 32.2 13.275 32.225 13.175 32.25C13.075 32.85 12.975 33.45 12.875 34.05C13.025 33.975 13.25 33.85 13.525 33.8C13.975 33.7 14.325 33.8001 14.675 33.8251C15.025 33.8751 15.525 33.875 16.15 33.75C15.925 33.775 15.6 33.775 15.225 33.725C14.775 33.675 14.6 33.5751 14.225 33.5751C14 33.5751 13.675 33.6 13.275 33.725C13.35 33.2 13.425 32.675 13.5 32.175Z" fill="#78929F"/>
<path d="M11.9252 34.725C11.5752 34.9 11.2502 35.075 10.9002 35.225C10.5752 35.75 10.2502 36.3 9.9252 36.825C9.9002 36.975 9.8502 37.15 9.8252 37.3C10.2502 37.3 10.6752 37.325 11.1252 37.325C11.4002 36.475 11.6502 35.6 11.9252 34.725Z" fill="#78929F"/>
<path d="M7.2251 15.425C7.4501 15.575 7.8001 15.725 8.2001 15.725C8.7001 15.725 8.9001 15.475 9.1251 15.55C9.4001 15.625 9.6251 16.125 9.5501 17.875C9.5751 16.95 9.3501 16.575 9.1001 16.425C8.7751 16.225 8.4751 16.4 8.0001 16.2C7.6001 16 7.3751 15.675 7.2251 15.425Z" fill="#C9962D"/>
<path d="M10.0249 13.525C9.9499 14.4 9.8999 15.3 9.8249 16.175C9.8249 15.25 9.6749 14.95 9.4999 14.9C9.3249 14.85 9.1499 15 9.0499 14.9C8.8999 14.75 9.1749 14.3 9.1999 14.275C9.2749 14.075 9.5249 13.75 10.0249 13.525Z" fill="#C9962D"/>
<path d="M13.6001 17.65C13.9001 17.825 14.2751 18 14.6001 17.85C14.9251 17.7 14.9251 17.375 15.2501 17.05C15.4751 16.825 15.8251 16.625 16.5251 16.6C15.6251 16.3 15.2001 16.425 14.9751 16.625C14.7001 16.85 14.6751 17.175 14.2501 17.425C14.0001 17.575 13.7501 17.625 13.6001 17.65Z" fill="#C9962D"/>
<path d="M6.8998 20.35C6.7748 20.775 6.5248 21.85 6.8998 23.125C7.3498 24.6 8.3498 25.425 8.6998 25.7C7.5748 25.175 6.4248 24.65 5.2998 24.125C5.8248 22.875 6.3498 21.6 6.8998 20.35Z" fill="#C9962D"/>
<path d="M16.5 22.3251C16.575 23.0501 16.775 23.8501 17.175 24.6751C18.925 28.1251 23.2 28.7501 23.8 28.8501C23.675 29.0501 23.475 29.2751 23.2 29.5251C22.95 29.7251 22.7 29.8751 22.525 29.9751C21.8 29.8001 20.875 29.5001 19.875 28.9251C18.15 27.9251 17.15 26.6001 16.625 25.8001C16.6 24.6501 16.55 23.5001 16.5 22.3251Z" fill="#C9962D"/>
<path d="M14.2749 33.3C14.4249 32.825 14.5749 32.325 14.7249 31.85C14.7249 32.375 14.7499 32.9 14.7499 33.4C14.5999 33.375 14.4499 33.325 14.2749 33.3Z" fill="#C9962D"/>
<path d="M13.875 18.175C14.125 19.55 14.275 20.75 14.375 21.625C14.525 22.875 14.65 24.1001 14.65 25.7001C14.65 27.0501 14.55 28.1501 14.45 28.9501C14.25 25.3751 14.075 21.775 13.875 18.175Z" fill="#C9962D"/>
<path d="M3.5 17.825C3.425 17.8 2.75 18.925 2.075 20.425C1.2 22.425 0.75 24.175 0.5 25.425C1.45 26.325 2.9 27.5 4.925 28.475C6.8 29.375 8.525 29.8 9.75 30C9.875 29.75 10.025 29.5 10.15 29.25C8.225 28.85 6.65 28.3 5.525 27.85C2 26.425 1.625 25.425 1.525 25.1C1.425 24.75 1.425 24.4 1.825 22.85C2.65 19.9 3.575 17.875 3.5 17.825Z" fill="#C9962D"/>
<path d="M7.8751 29.775C7.8751 30.95 7.9001 32.1 7.9001 33.275C7.8251 33.225 7.7251 33.125 7.6251 33C7.5251 32.85 7.5251 32.75 7.4501 32.725C7.4001 32.7 7.3001 32.725 7.1001 32.925C7.3751 31.875 7.6251 30.825 7.8751 29.775Z" fill="#C9962D"/>
<path d="M1.7998 37.525C5.9998 37.5 10.2248 37.475 14.4248 37.45C14.5498 37.45 14.5498 37.25 14.4248 37.25C10.2248 37.275 5.9998 37.3 1.7998 37.325C1.6748 37.325 1.6748 37.525 1.7998 37.525Z" fill="#494847"/>
</svg>
