<svg width="50" height="50" viewBox="0 0 50 50" fill="none" xmlns="http://www.w3.org/2000/svg">
<path opacity="0.1" d="M26.2159 48.1822C39.0884 47.9248 49.3151 37.2809 49.0577 24.4084C48.8004 11.5358 38.1565 1.30915 25.2839 1.5665C12.4113 1.82385 2.1847 12.4677 2.44205 25.3403C2.69939 38.2129 13.3433 48.4395 26.2159 48.1822Z" fill="#AAC4D1"/>
<path fill-rule="evenodd" clip-rule="evenodd" d="M18.5 6.3125C19.125 6 19.75 5.8125 20.4375 5.6875C21 5.5625 21.625 5.5 22.1875 5.375C22.3125 5.5 22.25 5.625 22.25 5.75C22.25 6.1875 22.3125 6.5625 22.4375 6.9375C22.5 7.125 22.6875 7.3125 22.875 7.4375C23.125 7.625 23.4375 7.6875 23.6875 7.5C24.1875 7.1875 24.6875 7.125 25.25 7.1875C25.9375 7.25 26.5625 7.0625 27.1875 6.75C27.875 6.4375 28.5 6.0625 29.0625 5.5625C29.125 5.5 29.25 5.375 29.375 5.375C30.0625 5.5 30.6875 5.625 31.375 5.875C33.5625 6.5625 35.625 7.5625 37.5 8.9375C37.5625 9 37.625 9 37.6875 9.0625C37.6875 9.125 37.6875 9.125 37.625 9.125C37.25 9.4375 36.875 9.75 36.4375 10C36.0625 10.1875 35.6875 10.25 35.25 10.25C34.6875 10.25 34.125 10.5 33.6875 10.8125C33.5625 10.875 33.5 10.9375 33.375 10.875C33 10.75 32.5625 10.6875 32.1875 10.375C32.125 10.3125 32.0625 10.3125 32 10.3125C31.3125 10.1875 30.5625 10 29.875 10.125C29.5625 10.1875 29.25 10.25 29 10.4375C28.6875 10.625 28.375 10.75 28.0625 10.9375C27.5 11.1875 27.0625 11.5 26.5625 11.9375C26.375 12.125 26.1875 12.3125 25.9375 12.4375C25.5625 12.75 25.375 13.375 25.625 13.8125C25.75 14.0625 25.9375 14.1875 26.1875 14.125C26.25 14.125 26.3125 14.125 26.375 14.0625C26.9375 13.6875 27.5625 13.5 28.1875 13.25C28.5625 13.0625 28.9375 13 29.25 12.875C29.375 12.8125 29.5625 12.875 29.6875 12.875C30 12.875 30.3125 13 30.5625 13.0625C30.75 13.125 30.8125 13.25 30.8125 13.4375C30.8125 13.5 30.8125 13.625 30.75 13.6875C30.75 13.8125 30.6875 13.875 30.5625 13.9375C30.375 14 30.25 14.0625 30.0625 14.125C29.5 14.1875 28.9375 14.3125 28.375 14.3125C28.1875 14.3125 28.0625 14.375 27.9375 14.5C27.75 14.75 27.5 14.875 27.3125 15.0625C27.0625 15.25 26.9375 15.5 26.9375 15.8125C26.9375 16.25 26.875 16.75 26.8125 17.1875C26.75 17.8125 26.875 18.375 27.5 18.75C27.6875 18.875 27.75 19 27.6875 19.25C27.625 19.875 27.625 19.875 27 19.8125C26.625 19.75 26.25 19.8125 25.8125 19.875C25.625 19.875 25.5 20 25.4375 20.1875C25.3125 20.5 25.3125 20.75 25.3125 21.0625C25.3125 21.375 25.375 21.6875 25.25 22C25.1875 22.0625 25.0625 22.0625 25 22.0625C24.125 22.0625 23.1875 22.1875 22.3125 22.1875C22.0625 22.1875 22 22.3125 22.0625 22.625C22.1875 23.125 22.375 23.625 22.625 24.0625C22.6875 24.125 22.75 24.25 22.75 24.3125C22.6875 24.4375 22.625 24.375 22.5 24.375C22.25 24.375 22.0625 24.3125 21.8125 24.25C21.3125 24.1875 20.8125 24.125 20.3125 24.25C19.0625 24.5625 18.1875 25.3125 17.75 26.5C17.4375 27.25 17.375 28.125 17.3125 28.9375C17.25 29.625 17.5 30.25 17.875 30.8125C18.1875 31.3125 18.625 31.8125 19.125 32.125C19.4375 32.3125 19.6875 32.625 19.9375 32.9375C20.1875 33.25 20.5625 33.5625 20.9375 33.75C21 33.8125 21.125 33.8125 21.125 33.9375C21.0625 34 21 34 20.9375 33.9375C19.9375 33.625 18.875 33.375 17.875 33.0625C17 32.8125 16.1875 32.375 15.375 32C14.5 31.5625 13.625 31.125 12.8125 30.5C12.3125 30.125 11.8125 29.8125 11.375 29.375V29.3125C11.375 29.25 11.375 29.1875 11.375 29.125C11.4375 28.6875 11.3125 28.375 11 28.0625C10.8125 27.875 10.5625 27.75 10.375 27.625C10 27.375 9.9375 27.1875 10 26.75C10.0625 26.5 10.125 26.3125 10.1875 26.125C10.25 25.9375 10.3125 25.75 10.3125 25.5625C10.3125 25.1875 10.1875 24.875 9.9375 24.625C9.625 24.3125 9.25 24.0625 8.875 23.9375C8.4375 23.75 8.125 23.375 8 22.9375C7.6875 22.0625 7.3125 21.1875 6.8125 20.375C6.75 20.3125 6.75 20.1875 6.75 20.125C6.75 19.875 6.875 19.6875 6.875 19.4375C7 19.0625 7.125 18.6875 7.25 18.3125C7.25 18.25 7.3125 18.125 7.3125 18.0625C7.4375 18.0625 7.5 18.1875 7.5625 18.3125C7.75 18.6875 8 19.125 8.25 19.4375C8.5 19.8125 8.6875 20.25 8.875 20.625C9.0625 21 9.25 21.4375 9.6875 21.625C9.9375 21.75 10.25 21.8125 10.5625 21.75C10.75 21.75 10.9375 21.625 11 21.4375C11.1875 21.125 11.3125 20.75 11.375 20.375C11.4375 20.1875 11.375 20 11.375 19.8125C11.3125 19.4375 11.1875 19.125 11.1875 18.75C11.1875 18.5625 11.1875 18.4375 11.375 18.3125C11.5625 18.125 11.8125 18.0625 12.0625 17.9375C12.5625 17.75 12.8125 17.375 13 16.875C13.0625 16.625 13.125 16.3125 13.25 16.0625C13.3125 15.875 13.375 15.6875 13.4375 15.5C13.625 15.1875 13.75 15.125 14.125 15.1875C14.625 15.375 15.125 15.4375 15.625 15.4375C16.375 15.5 16.9375 15.125 17.1875 14.4375C17.3125 14.125 17.375 13.8125 17.4375 13.4375C17.5 13.125 17.5625 12.875 17.8125 12.625C18.1875 12.25 18.375 11.75 18.3125 11.1875C18.3125 11 18.375 10.75 18.4375 10.5625C18.8125 9.75 19.0625 8.9375 19 8.0625C18.9375 7.4375 18.8125 6.8125 18.6875 6.1875C18.5 6.5 18.4375 6.4375 18.5 6.3125Z" fill="#D6E1E8"/>
<path fill-rule="evenodd" clip-rule="evenodd" d="M11.4376 29.5C11.8126 29.75 12.1876 30.125 12.6251 30.375C13.1251 30.6875 13.5626 31 14.0626 31.3125C14.6876 31.625 15.3126 31.9375 15.9376 32.3125C16.9376 32.8125 18.0001 33.1875 19.0626 33.4375C19.5626 33.5625 20.1251 33.75 20.6251 33.875C20.8126 33.9375 21.0001 34 21.2501 34.0625C21.3751 34 21.4376 34.0625 21.5001 34.125C21.7501 34.3125 21.9376 34.5 22.0626 34.8125C22.3751 35.5 22.6251 36.1875 22.8126 36.875C22.8751 37.0625 22.8751 37.3125 22.8751 37.5C22.8751 38.25 22.8126 39 22.9376 39.6875C23.0626 40.375 23.2501 41 23.6876 41.5625C24.0001 42.0625 24.5001 42.25 25.0626 42.125C25.8126 42 26.3751 41.625 26.8751 41.0625C27.1876 40.6875 27.5626 40.3125 27.8126 39.9375C28.3751 39.125 28.7501 38.25 28.9376 37.3125C29.1876 36.3125 29.6251 35.4375 30.2501 34.625C30.2501 34.625 30.3126 34.5625 30.3751 34.5625C30.7501 34.5 31.1251 34.5 31.5626 34.4375C31.6251 34.4375 31.6876 34.4375 31.8126 34.4375C31.9376 34.5625 31.8126 34.625 31.7501 34.6875C31.6251 34.8125 31.4376 35 31.3126 35.1875C30.7501 36 30.4376 36.875 30.3751 37.875C30.3751 38 30.3751 38.125 30.3126 38.3125C30.2501 38.5 30.3126 38.6875 30.5001 38.8125C30.6876 38.9375 30.8126 38.9375 31.0001 38.8125C31.2501 38.6875 31.5001 38.5 31.6251 38.25C32.0626 37.5625 32.4376 36.8125 32.6876 36.0625C32.8126 35.625 32.9376 35.25 32.8751 34.8125C32.8751 34.625 32.6876 34.5625 32.6876 34.375C32.8751 34.25 33.1876 34.1875 33.4376 34.125C35.3126 33.5625 37.1251 32.6875 38.6876 31.5C39.4376 30.9375 40.1876 30.4375 40.8751 29.8125C41.8751 28.9375 42.8126 28.0625 43.6876 27.125C44.3126 26.5 44.8751 25.8125 45.4376 25.125C45.5001 25.0625 45.5626 25 45.6251 25C45.6876 25.0625 45.6876 25.125 45.6876 25.1875C45.6876 25.375 45.6876 25.5625 45.6876 25.75C45.6876 26.3125 45.6251 26.875 45.5626 27.4375C45.4376 28.3125 45.2501 29.1875 45.0001 30.0625C45.0001 30.125 44.9376 30.1875 44.9376 30.1875C44.5626 30.4375 44.1251 30.5625 43.7501 30.6875C43.1876 30.875 42.6251 31.0625 42.0626 31.3125C41.4376 31.625 40.8751 32.0625 40.5001 32.625C40.1251 33.1875 39.6876 33.6875 39.5001 34.3125C39.2501 35.25 39.5001 36.25 40.5001 36.6875C40.7501 36.8125 40.9376 36.875 41.1876 36.9375C41.2501 36.9375 41.1876 36.875 41.1876 37C40.8751 37.4375 40.7501 37.8125 40.3751 38.1875C37.5626 41.125 34.1251 43.0625 30.1251 43.875C30.0001 43.875 29.9376 43.875 29.8126 43.9375C29.7501 44 29.3126 44.0625 29.1251 44.0625C28.5626 44.1875 28.0626 44.25 27.5001 44.25C27.1251 44.25 26.6876 44.3125 26.3126 44.3125C24.6251 44.3125 22.9376 44.125 21.2501 43.6875C21.1251 43.625 20.2501 43.4375 20.1251 43.4375C16.9376 42.375 14.0626 40.5 11.7501 38.0625C10.6876 36.9375 9.75013 35.6875 9.00013 34.3125C8.93763 34.25 8.93763 34.1875 8.87513 34.0625C8.62513 33.625 8.81263 33.25 9.12513 32.9375C9.31263 32.75 9.56263 32.5625 9.75013 32.375C10.4376 31.6875 10.9376 30.9375 11.3126 30.0625C11.3751 29.875 11.5001 29.6875 11.5626 29.5C11.3126 29.5625 11.3126 29.5 11.4376 29.5Z" fill="#BAD9EC"/>
<path fill-rule="evenodd" clip-rule="evenodd" d="M25.3125 21.9375C25.3125 21.5625 25.3125 21.25 25.3125 20.875C25.3125 20.625 25.375 20.375 25.4375 20.125C25.5 19.9375 25.6875 19.8125 25.875 19.8125C26.1875 19.8125 26.5625 19.75 26.875 19.75C27 19.75 27.0625 19.75 27.1875 19.8125C27.5 19.875 27.6875 19.6875 27.625 19.4375C27.625 19.375 27.625 19.25 27.625 19.1875C27.6875 19.0625 27.625 18.9375 27.5 18.875C27.0625 18.5625 26.8125 18.1875 26.75 17.625C26.75 17.375 26.75 17.0625 26.8125 16.8125C26.875 16.5625 26.875 16.3125 26.875 16.0625C26.875 15.875 26.875 15.625 26.9375 15.4375C27 15.25 27.125 15.125 27.25 15.0625C27.5 14.875 27.75 14.6875 27.9375 14.4375C28.0625 14.3125 28.1875 14.25 28.375 14.25C28.8125 14.25 29.3125 14.1875 29.75 14.125C29.8125 14.125 29.9375 14.125 30 14.125C30.0625 14.125 30.125 14.125 30.25 14.0625C30.3125 14 30.375 14 30.5 14C30.6875 14 30.75 13.9375 30.75 13.75C30.75 13.6875 30.75 13.625 30.75 13.5C30.8125 13.3125 30.75 13.3125 30.625 13.25C30.3125 13.125 30.0625 13.0625 29.75 13C29.25 12.875 28.75 13.125 28.3125 13.3125C28 13.4375 27.75 13.5625 27.4375 13.625C27.25 13.6875 27.0625 13.75 26.875 13.875C26.75 13.9375 26.625 14.0625 26.4375 14.125C26 14.3125 25.625 14.125 25.5 13.6875C25.375 13.125 25.5625 12.625 26 12.3125C26.1875 12.1875 26.3125 12.0625 26.5 11.875C26.6875 11.6875 26.875 11.5625 27.0625 11.4375C27.5 11.125 28 10.875 28.5 10.625C28.625 10.5625 28.75 10.5 28.875 10.375C29.25 10.125 29.75 10 30.1875 10C30.625 10 31.0625 10 31.4375 10.125C31.5625 10.1875 31.6875 10.1875 31.8125 10.1875C32.0625 10.25 32.25 10.3125 32.4375 10.5C32.5625 10.625 32.6875 10.6875 32.875 10.6875C33.0625 10.75 33.25 10.75 33.4375 10.875C33.5 10.9375 33.5625 10.9375 33.625 10.8125C33.75 10.625 33.9375 10.5625 34.1875 10.5C34.25 10.5 34.375 10.4375 34.4375 10.4375C34.75 10.25 35 10.25 35.375 10.25C35.625 10.25 35.875 10.1875 36.125 10.125C36.375 10.0625 36.5625 9.9375 36.75 9.75C37.0625 9.5 37.375 9.25 37.6875 9.0625C38 9.25 38.25 9.5 38.5 9.6875C41.3125 12.0625 43.3125 15 44.5 18.5C44.5625 18.625 44.5625 18.8125 44.625 18.9375C44.75 19.125 44.8125 19.375 44.8125 19.5625C44.8125 19.75 44.875 20 44.9375 20.1875C45 20.5625 45.125 20.875 45.125 21.25C44.875 21.6875 44.5 22.0625 44.125 22.375C43.5 22.9375 42.8125 23.375 42.1875 24C41.9375 24.25 41.6875 24.3125 41.375 24.25C41 24.1875 40.5625 24.1875 40.1875 24.375C40 24.4375 39.75 24.5625 39.5625 24.5C39.25 24.5 39.0625 24.625 38.9375 24.875C38.75 25.25 38.5 25.625 38.1875 25.9375C37.9375 26.25 37.75 26.6875 37.5625 27.0625C37.4375 27.3125 37.375 27.5 37.25 27.75C37.0625 28.125 36.8125 28.4375 36.4375 28.625C36 28.8125 35.5625 28.6875 35.375 28.3125C34.875 27.3125 34.5 26.3125 34.5 25.1875C34.5 25 34.5 24.8125 34.5 24.5625C34.4375 24.3125 34.375 24.1875 34.0625 24.25C33.75 24.25 33.375 24.1875 33.0625 24.1875C32.75 24.125 32.4375 24 32.25 23.75C32.0625 23.5625 31.875 23.5 31.6875 23.5C31.1875 23.5 31.0625 23.375 30.875 22.9375C30.8125 22.75 30.8125 22.5625 30.75 22.4375C30.6875 21.875 30.625 21.8125 30.25 21.875H30.1875C29.75 21.75 29.25 21.875 28.8125 21.875C28.125 21.875 27.5 21.9375 26.875 22C26.4375 22 26.0625 22.0625 25.625 22.0625C25.5 22 25.375 22.0625 25.3125 21.9375Z" fill="#00C4A6"/>
<path fill-rule="evenodd" clip-rule="evenodd" d="M30.1876 21.8125C30.2501 21.8125 30.3126 21.8125 30.3751 21.8125C30.6876 21.8125 30.7501 21.875 30.8126 22.125C30.8751 22.3125 30.8751 22.4375 30.8751 22.625C30.8751 22.75 30.9376 22.9375 31.0001 23.0625C31.1251 23.25 31.2501 23.375 31.5001 23.375C31.8751 23.3125 32.1876 23.4375 32.4376 23.75C32.5626 23.9375 32.8126 24 33.0001 24.0625C33.3751 24.125 33.7501 24.1875 34.1251 24.1875C34.4376 24.1875 34.5001 24.25 34.5626 24.5625C34.6251 24.6875 34.5626 24.8125 34.5626 24.9375C34.5001 26.125 34.8751 27.1875 35.4376 28.25C35.6876 28.6875 36.1251 28.8125 36.5626 28.625C36.6876 28.5625 36.8126 28.5 36.8751 28.375C37.0626 28.1875 37.1876 28 37.3126 27.75C37.5001 27.25 37.7501 26.75 38.0001 26.3125C38.0626 26.1875 38.1876 26 38.3126 25.875C38.5626 25.625 38.7501 25.3125 38.8751 25C38.9376 24.875 39.0001 24.75 39.1251 24.6875C39.2501 24.5625 39.3751 24.5 39.5001 24.5625C39.8126 24.5625 40.1251 24.5 40.3751 24.375C40.5001 24.3125 40.6876 24.25 40.8126 24.3125C41.0626 24.3125 41.3126 24.3125 41.5626 24.375C41.8126 24.4375 42.0626 24.3125 42.3126 24.125C42.8126 23.625 43.3751 23.25 43.9376 22.8125C44.3126 22.5 44.6876 22.125 45.0001 21.75C45.0626 21.625 45.1876 21.5625 45.2501 21.4375C45.3751 21.8125 45.3751 22.125 45.4376 22.5C45.5626 23.5625 45.6251 24.6875 45.5626 25.8125C45.5626 25.875 45.5626 26 45.5001 26.0625C45.5001 25.8125 45.5001 25.5625 45.5001 25.3125C45.3751 25.3125 45.3751 25.4375 45.3126 25.5C44.9376 25.9375 44.6251 26.375 44.2501 26.75C43.6876 27.375 43.1876 27.9375 42.5626 28.5C42.0626 28.9375 41.5626 29.4375 41.0626 29.875C40.3126 30.5625 39.5001 31.125 38.6876 31.75C37.6876 32.5 36.6876 33.0625 35.5626 33.5625C34.6251 34 33.7501 34.375 32.7501 34.5625C32.6876 34.5625 32.6251 34.5625 32.5626 34.5625C32.2501 34.5 32.0001 34.625 31.7501 34.75C31.5626 34.75 31.3126 34.8125 31.1251 34.8125C30.8751 34.875 30.5626 34.875 30.3126 34.875C30.2501 34.75 30.3126 34.625 30.3751 34.5625C30.5626 34 30.4376 33.5 30.1251 33C30.0001 32.75 29.8126 32.5625 29.6876 32.375C29.3126 31.9375 29.2501 31.4375 29.3126 30.875C29.3751 30.125 29.4376 29.4375 29.3126 28.6875C29.2501 28.5 29.1876 28.25 29.0626 28.125C28.9376 27.9375 28.8751 27.625 28.8126 27.4375C28.7501 27.3125 28.6876 27.1875 28.5626 27.0625C28.3126 26.875 28.0626 26.625 27.9376 26.375C27.6251 26.9375 27.0626 27.8125 26.0626 28.25C23.8126 29.3125 20.1876 28 19.6876 25.5C19.3126 23.625 20.8126 21.1875 22.8126 21C24.3751 20.875 25.5001 22.0625 25.6876 22.25C27.1251 21.9375 28.6876 21.875 30.1876 21.8125Z" fill="#D6E1E8"/>
<path fill-rule="evenodd" clip-rule="evenodd" d="M18.5 6.3125C18.5625 6.75 18.6875 7.1875 18.75 7.625C18.875 8.1875 18.9375 8.6875 18.875 9.25C18.8125 9.75 18.6875 10.1875 18.5 10.625C18.4375 10.6875 18.4375 10.8125 18.375 10.875C18.1875 11.1875 18.125 11.5 18.1875 11.875C18.1875 12.1875 18.125 12.4375 17.9375 12.6875C17.8125 12.875 17.75 13 17.5625 13.125C17.375 13.3125 17.3125 13.5 17.25 13.75C17.1875 14.125 17.125 14.4375 17 14.75C16.875 15.0625 16.6875 15.375 16.375 15.5625C16.0625 15.8125 15.6875 15.875 15.3125 15.8125C14.9375 15.75 14.5625 15.75 14.1875 15.625C14.0625 15.625 14 15.5625 13.875 15.5625C13.5 15.4375 13.375 15.5 13.25 15.875C13.125 16.1875 13.0625 16.5 12.9375 16.8125C12.875 17.125 12.8125 17.4375 12.625 17.6875C12.4375 17.9375 12.25 18.125 12 18.25C11.75 18.375 11.5 18.5 11.25 18.6875C11.125 18.8125 11.0625 18.9375 11.125 19.0625C11.1875 19.4375 11.25 19.75 11.3125 20.0625C11.375 20.3125 11.375 20.625 11.25 20.875C11.125 21.1875 11.0625 21.4375 10.9375 21.75C10.8125 22 10.625 22.125 10.375 22.125C10.125 22.125 9.875 22.125 9.6875 22.0625C9.375 21.9375 9.125 21.75 9 21.4375C8.9375 21.25 8.8125 21.125 8.75 20.9375C8.625 20.625 8.4375 20.25 8.25 20C7.875 19.5 7.625 18.9375 7.25 18.4375C7.375 18 7.5 17.625 7.6875 17.25C8.8125 14.625 10.4375 12.375 12.5 10.4375C13.375 9.625 14.1875 8.875 15.125 8.25C16.1875 7.5625 17.25 6.9375 18.375 6.4375C18.4375 6.3125 18.5 6.3125 18.5 6.3125Z" fill="#00C4A6"/>
<path fill-rule="evenodd" clip-rule="evenodd" d="M11.4375 29.4999C11.3125 29.8749 11.125 30.2499 10.9375 30.6249C10.5625 31.3124 10.125 31.9999 9.5625 32.4999C9.375 32.6874 9.1875 32.8124 9 32.9999C8.875 33.1249 8.8125 33.1874 8.75 33.3124C8.625 33.4999 8.5625 33.7499 8.625 33.9999C8.625 34.0624 8.625 34.1249 8.625 34.1874C8.375 33.8749 8.25 33.4999 8.0625 33.1249C7.6875 32.3749 7.375 31.5624 7.125 30.7499C7.125 30.6874 7.125 30.6249 7.0625 30.5624C6.875 29.7499 6.6875 28.9374 6.5 28.1249C6.4375 27.6874 6.3125 27.1874 6.25 26.7499C6.25 26.5624 6.25 26.3124 6.25 26.1249C6.1875 25.3749 6.1875 24.6874 6.25 23.9374C6.375 23.8749 6.4375 23.9999 6.4375 24.0624C7.0625 24.9374 7.75 25.7499 8.4375 26.6249C9 27.3124 9.625 27.8749 10.25 28.4374C10.625 28.7499 11 29.0624 11.3125 29.3749C11.375 29.3749 11.375 29.4374 11.4375 29.4999Z" fill="#05AA8B"/>
<path fill-rule="evenodd" clip-rule="evenodd" d="M41.1573 37C40.7528 36.8727 40.3483 36.7455 40.0112 36.6182C39.3371 36.3 39 35.7273 39 35.0273C39 34.4545 39.1348 33.8818 39.4719 33.4364C39.7416 33.0545 39.9438 32.7364 40.2135 32.3545C40.618 31.8455 41.0899 31.4636 41.6966 31.1455C42.3034 30.8273 42.9775 30.6364 43.6517 30.4455C43.9888 30.3818 44.3258 30.2545 44.6629 30.1273C44.7978 30.0636 44.8652 30.0636 45 30C44.7978 30.7636 44.4607 31.5273 44.1236 32.2273C43.382 33.8818 42.4382 35.4091 41.2247 36.8091C41.2247 36.8727 41.2247 36.9364 41.1573 37Z" fill="#05AA8B"/>
<path fill-rule="evenodd" clip-rule="evenodd" d="M11.4375 29.5C11.1875 29.375 11 29.125 10.8125 29C10.3125 28.625 9.9375 28.1875 9.5 27.8125C9.25 27.625 9.0625 27.375 8.875 27.1875C8.6875 27 8.5 26.8125 8.375 26.625C8.0625 26.25 7.75 25.875 7.4375 25.5C7.0625 25.0625 6.75 24.5625 6.375 24.125C6.375 24.0625 6.3125 24.0625 6.25 24.0625C6.25 23.5625 6.3125 23.0625 6.375 22.5625C6.4375 21.875 6.5625 21.1875 6.75 20.5C6.75 20.5 6.75 20.5 6.8125 20.5C6.9375 20.6875 7 20.875 7.125 21.0625C7.4375 21.625 7.75 22.25 7.9375 22.875C8.0625 23.25 8.25 23.625 8.5625 24C8.625 24.0625 8.6875 24.125 8.75 24.1875C9.25 24.4375 9.6875 24.6875 10.125 25.0625C10.5 25.375 10.5625 25.8125 10.4375 26.25C10.375 26.5 10.3125 26.6875 10.25 26.875C10.1875 27.0625 10.125 27.3125 10.125 27.5C10.125 27.625 10.1875 27.6875 10.25 27.75C10.375 27.875 10.5 27.9375 10.5625 28C10.75 28.125 10.875 28.1875 11.0625 28.3125C11.4375 28.5 11.5625 28.9375 11.4375 29.5Z" fill="#00C4A6"/>
<path fill-rule="evenodd" clip-rule="evenodd" d="M29.4375 5.375C28.625 6.1875 27.6875 6.75 26.6875 7.125C26.125 7.3125 25.5 7.375 24.9375 7.3125C24.6875 7.25 24.375 7.3125 24.1875 7.5C24.0625 7.5625 23.9375 7.625 23.875 7.6875C23.5 7.875 23.1875 7.75 22.875 7.5C22.5625 7.1875 22.4375 6.8125 22.375 6.375C22.3125 6.0625 22.3125 5.6875 22.3125 5.375C22.6875 5.25 23.0625 5.25 23.5 5.1875C24.3125 5.0625 25.3125 5 26.25 5C27.25 5 28.25 5.125 29.1875 5.3125C29.25 5.3125 29.3125 5.3125 29.4375 5.375Z" fill="#00C4A6"/>
<path fill-rule="evenodd" clip-rule="evenodd" d="M27.8125 26.0625C28 26.3125 28.1875 26.5 28.375 26.625C28.6875 26.875 28.75 27.1875 28.875 27.5C28.875 27.5625 28.875 27.625 28.9375 27.6875C29.125 27.9375 29.1875 28.25 29.25 28.5625C29.3125 29.0625 29.3125 29.625 29.25 30.125C29.25 30.4375 29.1875 30.75 29.1875 31.125C29.25 31.5625 29.4375 31.9375 29.75 32.25C29.9375 32.5 30.125 32.8125 30.25 33.125C30.4375 33.5625 30.375 34 30.25 34.4375C30.25 34.5 30.1875 34.5625 30.1875 34.625L30.125 34.6875C29.9375 34.8125 29.6875 34.8125 29.4375 34.8125C29 34.8125 28.5625 34.875 28.125 34.875C27.3125 34.8125 26.4375 34.8125 25.625 34.75C24.625 34.625 23.625 34.5625 22.625 34.4375C22.3125 34.375 21.875 34.375 21.4375 34.125C21.375 34.125 21.3125 34.0625 21.1875 34C21.0625 33.875 20.9375 33.875 20.8125 33.75C20.375 33.5 20.0625 33.125 19.75 32.75C19.5625 32.5 19.25 32.25 19 32.0625C18.1875 31.4375 17.625 30.6875 17.375 29.75C17.25 29.375 17.3125 28.9375 17.3125 28.5C17.375 28.125 17.375 27.75 17.4375 27.375C17.5 26.9375 17.625 26.5625 17.8125 26.1875C18.0625 25.625 18.375 25.25 18.875 24.875C19.3125 24.5 19.8125 24.25 20.375 24.125C20.75 24.0625 21.125 24.0625 21.4375 24.125C21.875 24.1875 22.25 24.25 22.6875 24.3125H22.75C22.875 24.3125 22.9375 24.4375 22.9375 24.5C23.3125 25.0625 23.75 25.5625 24.375 25.875C25.375 26.4375 26.4375 26.4375 27.5 26C27.625 26.0625 27.6875 26 27.8125 26.0625Z" fill="#00C4A6"/>
<path fill-rule="evenodd" clip-rule="evenodd" d="M21.4375 34.125C21.625 34.125 21.8125 34.1875 22 34.25C22.375 34.3125 22.8125 34.375 23.1875 34.4375C23.5625 34.5 24 34.5625 24.375 34.5625C24.625 34.5625 24.875 34.625 25.0625 34.625C25.3125 34.625 25.625 34.625 25.875 34.6875C25.875 34.6875 25.875 34.6875 25.9375 34.6875C26.25 34.6875 26.625 34.75 26.9375 34.75C27.375 34.75 27.875 34.8125 28.3125 34.8125C28.75 34.75 29.125 34.8125 29.5625 34.75C29.75 34.75 30 34.6875 30.1875 34.6875C30.1875 34.8125 30.0625 34.9375 30 35C29.5 35.625 29.125 36.375 29 37.1875C28.875 37.75 28.625 38.3125 28.375 38.875C28.1875 39.375 27.9375 39.8125 27.625 40.25C27.4375 40.5 27.25 40.75 27 41C26.8125 41.1875 26.625 41.4375 26.4375 41.625C25.875 42.0625 25.25 42.3125 24.5625 42.3125C24.1875 42.3125 23.875 42.0625 23.625 41.75C23.25 41.25 23 40.625 22.875 40C22.8125 39.625 22.75 39.1875 22.75 38.75C22.75 38.3125 22.75 37.9375 22.75 37.5C22.75 37.1875 22.6875 36.9375 22.625 36.625C22.4375 36.125 22.25 35.625 22.125 35.125C21.9375 34.75 21.75 34.375 21.4375 34.125Z" fill="#05AA8B"/>
<path fill-rule="evenodd" clip-rule="evenodd" d="M31.6875 34.5C31.9375 34.25 32.1875 34.1875 32.5 34.3125C32.8125 34.625 32.8125 34.9375 32.75 35.3125C32.6875 35.875 32.4375 36.375 32.25 36.875C32.0625 37.3125 31.8125 37.8125 31.5625 38.1875C31.375 38.5 31.1875 38.6875 30.875 38.8125C30.6875 38.875 30.5 38.9375 30.3125 38.75C30.125 38.625 30.0625 38.4375 30.125 38.1875C30.1875 37.9375 30.1875 37.625 30.1875 37.375C30.25 36.875 30.375 36.4375 30.5625 36C30.6875 35.75 30.8125 35.5 30.9375 35.25C31.0625 35 31.25 34.8125 31.4375 34.625C31.5625 34.6875 31.6875 34.625 31.6875 34.5Z" fill="#05AA8B"/>
<path d="M10 26.25C6.5 26.25 3.625 29.125 3.625 32.625C3.625 36.125 6.4375 39 10 39C13.5625 39 16.375 36.125 16.375 32.625C16.375 29.125 13.5 26.25 10 26.25ZM10 37.0625C7.5625 37.0625 5.5625 35.0625 5.5625 32.625C5.5625 30.1875 7.5625 28.1875 10 28.1875C12.4375 28.1875 14.4375 30.1875 14.4375 32.625C14.4375 35.0625 12.4375 37.0625 10 37.0625Z" fill="#FFD22B"/>
<path d="M10 37.0625C12.4508 37.0625 14.4375 35.0758 14.4375 32.625C14.4375 30.1742 12.4508 28.1875 10 28.1875C7.54924 28.1875 5.5625 30.1742 5.5625 32.625C5.5625 35.0758 7.54924 37.0625 10 37.0625Z" fill="#CC9510"/>
<path d="M11.875 30.25V29.75H11.125H8.3125V30.4375C9.6875 30.4375 10.0625 30.75 10.1875 31.1875H8.3125V31.6875H10.1875C10.1875 32.25 9.75 32.8125 8.3125 32.8125V33.375L8.875 34.0625L10.375 36H11.1875L9.375 33.5L9.1875 33.25C9.1875 33.25 9.375 33.25 9.6875 33.1875C10.1875 33.0625 10.9375 32.625 11 31.6875H11.875V31.1875H10.9375C10.9375 31.0625 10.875 31 10.875 30.875C10.8125 30.625 10.625 30.375 10.5 30.25H11H11.875Z" fill="#FEE245"/>
<path d="M33.9375 14.4375C33.9375 17.9375 36.75 20.75 40.25 20.75C43.75 20.75 46.5625 17.9375 46.5625 14.4375C46.5625 10.9375 43.75 8.125 40.25 8.125C36.75 8.125 33.9375 10.9375 33.9375 14.4375ZM35.8125 14.4375C35.8125 12 37.8125 10.0625 40.1875 10.0625C42.625 10.0625 44.5625 12.0625 44.5625 14.4375C44.5625 16.8125 42.5625 18.8125 40.1875 18.8125C37.8125 18.875 35.8125 16.875 35.8125 14.4375Z" fill="#FFD22B"/>
<path d="M40.1851 18.8125C42.6013 18.8125 44.5601 16.8537 44.5601 14.4375C44.5601 12.0213 42.6013 10.0625 40.1851 10.0625C37.7688 10.0625 35.8101 12.0213 35.8101 14.4375C35.8101 16.8537 37.7688 18.8125 40.1851 18.8125Z" fill="#CC9510"/>
<path d="M42.1875 15.25C42.1875 15.625 42.0625 15.9375 41.75 16.125C41.5 16.375 41.125 16.5 40.625 16.5625V17.3125H40.125V16.625C39.5625 16.625 39.0625 16.5 38.625 16.3125V15.375C38.8125 15.5 39.0625 15.5625 39.375 15.625C39.6875 15.6875 39.9375 15.75 40.125 15.75V14.625L39.875 14.5625C39.4375 14.375 39.0625 14.1875 38.875 13.9375C38.6875 13.75 38.5625 13.4375 38.5625 13.125C38.5625 12.8125 38.6875 12.5 38.9375 12.25C39.1875 12 39.5625 11.875 40.0625 11.875V11.3125H40.625V11.8125C41.1875 11.8125 41.625 11.9375 42.0625 12.125L41.75 12.9375C41.375 12.8125 41 12.6875 40.625 12.6875V13.75C41.0625 13.9375 41.4375 14.0625 41.625 14.1875C41.8125 14.3125 41.9375 14.4375 42.0625 14.625C42.125 14.875 42.1875 15.0625 42.1875 15.25ZM39.6875 13.1875C39.6875 13.3125 39.75 13.375 39.8125 13.4375C39.875 13.5 40 13.5625 40.1875 13.625V12.8125C39.8125 12.875 39.6875 12.9375 39.6875 13.1875ZM41.125 15.3125C41.125 15.1875 41.0625 15.125 41 15.0625C40.9375 15 40.8125 14.9375 40.625 14.875V15.75C40.9375 15.6875 41.125 15.5625 41.125 15.3125Z" fill="#FEE245"/>
<path d="M4.56252 18.25C6.87502 9.875 14.1875 3.625 22.875 2.625C23.1875 2.5625 23.1875 2.125 22.875 2.125C15.5625 3 9.00002 7.4375 5.68752 14C5.00002 15.3125 4.50002 16.6875 4.06252 18.125C4.00002 18.375 4.50002 18.5 4.56252 18.25Z" fill="#00C4A6"/>
<path d="M20.6877 1.31246C21.3752 1.74996 22.0627 2.18746 22.7502 2.62496C22.7502 2.49996 22.6877 2.43746 22.6877 2.31246C22.2502 2.99996 21.8752 3.74996 21.4377 4.43746C21.3127 4.68746 21.6877 4.93746 21.8127 4.68746C22.1877 3.93746 22.6252 3.24996 23.0002 2.49996C23.0627 2.37496 23.0002 2.24996 22.9377 2.18746C22.2502 1.74996 21.5627 1.31246 20.8752 0.87496C20.6877 0.68746 20.4377 1.12496 20.6877 1.31246Z" fill="#00C4A6"/>
<path d="M46.0625 32.875C43.1875 41.0625 35.375 46.8125 26.6875 47.125C26.375 47.125 26.375 47.625 26.6875 47.625C34.0625 47.3125 40.9375 43.3125 44.6875 36.9375C45.4375 35.6875 46.0625 34.375 46.5 33C46.625 32.75 46.1875 32.625 46.0625 32.875Z" fill="#00C4A6"/>
<path d="M28.8125 48.625C28.1875 48.125 27.5 47.625 26.875 47.1875C26.875 47.3125 26.9375 47.375 26.9375 47.5C27.375 46.8125 27.8125 46.125 28.3125 45.4375C28.5 45.1875 28.0625 44.9375 27.9375 45.1875C27.5 45.875 27.0625 46.5625 26.5625 47.25C26.5 47.375 26.5625 47.5 26.625 47.5625C27.25 48.0625 27.9375 48.5625 28.5625 49C28.8125 49.25 29 48.8125 28.8125 48.625Z" fill="#00C4A6"/>
</svg>
