<svg width="200" height="200" viewBox="0 0 200 200" fill="none" xmlns="http://www.w3.org/2000/svg">
<path opacity="0.1" d="M100.125 182.75C145.343 182.75 182 146.093 182 100.875C182 55.6567 145.343 19 100.125 19C54.9067 19 18.25 55.6567 18.25 100.875C18.25 146.093 54.9067 182.75 100.125 182.75Z" fill="#4CBDFF"/>
<g opacity="0.2">
<path d="M118.376 26.875L119.251 25.75C121.126 27.125 122.001 28.625 122.126 29.875C123.251 30.375 124.126 31.25 124.751 32.375C125.501 33.75 125.376 35.125 124.876 36.375C126.001 37.5 126.376 39.25 125.626 41.75L124.001 41C124.501 39.5 124.376 38.375 124.126 37.75C123.876 38 123.626 38.375 123.376 38.625C122.876 39.125 122.376 39.625 121.751 39.875C121.126 40.25 120.501 40.5 119.876 40.5C118.626 40.625 117.376 40.25 116.626 38.875C116.001 37.75 116.251 36.875 117.126 36.125C117.876 35.5 119.126 35 120.501 34.875C121.501 34.75 122.501 34.875 123.376 35.375C123.751 34.5 123.751 33.625 123.376 32.75C123.001 32.125 122.626 31.625 122.001 31.25C121.626 32.25 120.876 33.125 120.001 33.625C119.001 34.25 117.876 34.5 117.001 34.375C115.876 34.25 115.001 33.625 114.751 32.375C114.501 31.375 114.876 30.5 115.626 29.875C116.126 29.5 116.751 29.125 117.501 29C118.251 28.875 119.001 28.875 119.876 29C120.126 29 120.251 29.125 120.501 29.125C120.126 28.625 119.626 27.75 118.376 26.875ZM120.376 30.875C120.251 30.875 120.001 30.75 119.876 30.75C119.251 30.625 118.626 30.625 118.126 30.75C117.626 30.875 117.126 31 116.876 31.375C116.501 31.75 116.376 32.125 116.376 32.75C116.376 33.125 116.626 33.25 116.876 33.25C117.501 33.375 118.251 33.125 118.876 32.625C119.626 32.125 120.251 31.5 120.376 30.875ZM121.001 36.625C120.001 36.75 119.001 37 118.376 37.5C118.001 37.875 117.876 38.25 118.126 38.5C118.376 39 118.876 39.125 119.376 39C119.751 39 120.251 38.75 120.751 38.5C121.251 38.25 121.751 37.875 122.126 37.375C122.376 37.125 122.626 36.875 122.751 36.625C122.251 36.625 121.626 36.625 121.001 36.625Z" fill="#4CBDFF"/>
<path d="M54.5 64.875L53.125 64.375C54.375 62.375 55.75 61.375 57.125 61C57.5 59.875 58.25 59 59.375 58.25C60.625 57.375 62.25 57.25 63.75 57.5C64.75 56.375 66.5 55.625 69.375 56L68.875 57.5C67.125 57.25 66 57.5 65.375 58C65.75 58.125 66.125 58.375 66.375 58.5C67 58.875 67.625 59.25 68 59.75C68.5 60.25 68.875 60.75 69 61.25C69.375 62.375 69.125 63.5 67.875 64.375C66.875 65.125 65.75 65 64.875 64.375C64 63.75 63.25 62.75 63 61.5C62.75 60.625 62.75 59.75 63 58.875C62 58.75 61 58.875 60.25 59.375C59.625 59.75 59.25 60.25 58.875 60.875C60 61 61.125 61.5 61.875 62.25C62.625 63 63.125 64 63.25 64.875C63.25 65.875 62.75 66.75 61.375 67.25C60.25 67.625 59.25 67.375 58.5 66.875C58 66.5 57.5 66 57.25 65.375C57 64.75 56.875 64 56.875 63.25C56.875 63.125 56.875 62.875 56.875 62.75C56 63 55.25 63.75 54.5 64.875ZM58.375 62.375C58.375 62.5 58.375 62.75 58.375 62.875C58.375 63.5 58.5 64 58.75 64.5C59 65 59.25 65.375 59.625 65.625C60 65.875 60.5 66 61.125 65.875C61.5 65.75 61.625 65.5 61.625 65.25C61.625 64.75 61.25 64.125 60.625 63.5C60 62.875 59.125 62.5 58.375 62.375ZM64.5 60.875C64.75 61.75 65.25 62.625 65.875 63.125C66.25 63.375 66.75 63.5 67 63.25C67.5 62.875 67.5 62.5 67.375 62C67.25 61.625 67 61.25 66.625 60.875C66.25 60.5 65.75 60.125 65.25 59.75C65 59.625 64.625 59.375 64.25 59.25C64.25 59.875 64.375 60.375 64.5 60.875Z" fill="#4CBDFF"/>
<path d="M130.501 91.125L129.126 91.625C128.501 89.375 128.751 87.875 129.501 86.75C129.001 85.75 128.751 84.5 129.001 83.25C129.251 81.875 130.251 80.75 131.501 80C131.376 78.5 132.126 76.875 134.376 75.25L135.126 76.625C133.751 77.625 133.126 78.5 133.001 79.25C133.376 79.125 133.751 79 134.126 79C134.876 78.875 135.626 78.75 136.251 78.875C137.001 78.875 137.626 79.125 138.126 79.375C139.251 80 140.001 80.875 139.751 82.375C139.501 83.625 138.751 84.125 137.626 84.375C136.626 84.5 135.251 84.25 134.126 83.5C133.251 83 132.501 82.375 132.126 81.625C131.251 82.125 130.626 82.875 130.501 83.75C130.376 84.375 130.501 85 130.626 85.625C131.501 85 132.751 84.75 133.751 84.75C134.876 84.75 136.001 85.125 136.626 85.75C137.376 86.5 137.751 87.5 137.126 88.625C136.626 89.625 135.751 90.125 134.876 90.125C134.251 90.25 133.501 90.125 132.751 89.75C132.126 89.5 131.376 89 130.876 88.5C130.751 88.375 130.626 88.25 130.501 88.125C130.126 88.875 130.126 89.875 130.501 91.125ZM131.376 86.875C131.501 87 131.626 87.125 131.751 87.25C132.251 87.625 132.751 88 133.251 88.25C133.751 88.5 134.251 88.5 134.626 88.5C135.126 88.5 135.626 88.25 135.876 87.625C136.001 87.375 136.001 87.125 135.751 86.875C135.376 86.5 134.626 86.25 133.751 86.25C132.876 86.25 132.001 86.5 131.376 86.875ZM134.626 82C135.501 82.5 136.501 82.75 137.376 82.625C137.876 82.5 138.251 82.375 138.251 82C138.376 81.5 138.001 81.125 137.626 80.875C137.251 80.75 136.751 80.625 136.251 80.5C135.626 80.5 135.001 80.5 134.501 80.625C134.126 80.75 133.751 80.75 133.501 80.875C133.751 81.25 134.126 81.625 134.626 82Z" fill="#4CBDFF"/>
<path d="M57.875 48.75L57.125 50.25C54.875 49.625 54 48.375 53.875 46.875C53.875 46.625 53.875 46.25 53.875 46C52.25 45.375 50.5 44.25 49.25 42.5L50.75 41.5C51.75 43 53.125 43.875 54.375 44.5C54.5 44.25 54.625 44 54.875 43.75C55.625 42.75 56.5 42 57.5 41.75C58.5 41.5 59.375 41.75 60 42.625C60.625 43.5 60.625 44.375 60.125 45.125C59.75 45.625 59.25 46 58.625 46.25C58.125 46.5 57.375 46.5 56.625 46.5C56.25 46.5 55.875 46.5 55.375 46.375C55.375 46.375 55.375 46.375 55.375 46.5C55.625 47.375 56.25 48.25 57.875 48.75ZM57.125 45C57.625 45 58.125 44.875 58.5 44.75C58.75 44.625 58.875 44.5 59 44.5C59.125 44.375 59 44 58.75 43.625C58.5 43.25 58.125 43.125 57.75 43.125C57.25 43.25 56.75 43.625 56.375 44.25C56.25 44.375 56.125 44.625 56 44.875C56.375 44.875 56.75 45 57.125 45Z" fill="#4CBDFF"/>
<path d="M88 28.875L86.75 28.25C88.125 26.375 89.625 25.5 91 25.25C91.5 24.25 92.375 23.25 93.5 22.625C94.875 21.875 96.375 21.75 97.875 22.125C99 21 100.75 20.5 103.625 21L103 22.5C101.25 22.25 100.125 22.375 99.375 22.75C99.75 22.875 100 23.125 100.375 23.375C101 23.75 101.5 24.25 101.875 24.75C102.25 25.25 102.625 25.875 102.75 26.375C103 27.5 102.75 28.625 101.375 29.5C100.25 30.125 99.25 30 98.375 29.375C97.5 28.75 96.875 27.625 96.75 26.375C96.625 25.5 96.625 24.5 97 23.75C96 23.5 95 23.625 94.125 24C93.5 24.375 93 24.875 92.625 25.375C93.75 25.625 94.75 26.125 95.5 27C96.25 27.75 96.625 28.75 96.625 29.625C96.5 30.625 95.875 31.5 94.625 31.875C93.5 32.125 92.5 31.875 91.875 31.375C91.375 31 91 30.375 90.75 29.75C90.5 29.125 90.375 28.375 90.5 27.625C90.5 27.5 90.5 27.25 90.625 27.125C89.75 27 88.875 27.75 88 28.875ZM92.125 26.625C92.125 26.75 92.125 26.875 92.125 27.125C92.125 27.75 92.125 28.25 92.375 28.75C92.5 29.25 92.75 29.625 93.125 29.875C93.5 30.125 94 30.375 94.625 30.125C95 30 95.125 29.875 95.125 29.625C95.125 29.125 94.875 28.375 94.375 27.875C93.625 27.25 92.875 26.75 92.125 26.625ZM98.375 25.625C98.5 26.625 99 27.5 99.625 27.875C100 28.125 100.375 28.25 100.75 28C101.25 27.75 101.375 27.25 101.25 26.75C101.125 26.375 100.875 26 100.625 25.625C100.25 25.25 99.875 24.875 99.375 24.5C99.125 24.25 98.75 24.125 98.5 24C98.25 24.5 98.25 25 98.375 25.625Z" fill="#4CBDFF"/>
<path fill-rule="evenodd" clip-rule="evenodd" d="M31.75 66.875C30.875 66.625 30 66.625 29.125 66.875C29.5 67.625 29.375 68.25 29.375 69C30 68.625 30.75 68.75 31.5 69C31.375 68.25 31.375 67.5 31.75 66.875Z" fill="#4CBDFF"/>
<path fill-rule="evenodd" clip-rule="evenodd" d="M78 53.625C76.75 53.75 75.875 53.625 74.75 53.375C74.75 53.875 74.5 54.25 74.125 54.625C75.125 54.875 76 55 77.375 54.875C77.75 54.625 78 54.25 78 53.625Z" fill="#4CBDFF"/>
<path fill-rule="evenodd" clip-rule="evenodd" d="M75.25 46.25C74.875 45.5 74.375 44.875 73.625 44.375C73.25 45 72.625 45.375 72 45.875C72.75 46.125 73.125 46.625 73.25 47.375C73.875 46.875 74.375 46.375 75.25 46.25Z" fill="#4CBDFF"/>
<path fill-rule="evenodd" clip-rule="evenodd" d="M94.6251 54.875C95.7501 54.375 96.6251 54.125 97.7501 54.125C97.6251 53.625 97.6251 53.125 97.8751 52.75C96.7501 52.875 96.0001 53 94.7501 53.5C94.5001 53.875 94.5001 54.375 94.6251 54.875Z" fill="#4CBDFF"/>
<path fill-rule="evenodd" clip-rule="evenodd" d="M94.125 48.25C94.875 47.875 95.5 47.25 95.875 46.5C95.125 46.25 94.5 45.75 94 45.25C93.875 46 93.375 46.375 92.625 46.625C93.125 47.125 93.75 47.5 94.125 48.25Z" fill="#4CBDFF"/>
<path fill-rule="evenodd" clip-rule="evenodd" d="M75.625 31.5C75.25 30.75 74.75 30.125 74 29.625C73.625 30.25 73 30.625 72.375 31.125C73.125 31.375 73.5 31.875 73.625 32.625C74.25 32.125 74.75 31.625 75.625 31.5Z" fill="#4CBDFF"/>
<path fill-rule="evenodd" clip-rule="evenodd" d="M111.75 79C112.5 79.125 113.125 79.375 113.75 79.875C114.125 79.125 114.375 78.25 114.375 77.375C113.75 77.375 113 77 112.375 76.5C112.375 77.5 112.125 78.25 111.75 79Z" fill="#4CBDFF"/>
<path d="M117.5 46.375L119.125 47C118.25 49.125 117 50.25 115.75 50.625C115.5 51.75 115 52.875 114 53.75C112.875 54.75 111.375 55.125 109.875 55C109.125 56.25 107.5 57.25 104.625 57.25L104.25 55.875C106.125 55.875 107.25 55.375 107.875 54.625C107.5 54.5 107.25 54.375 107 54.25C106.25 54 105.625 53.625 105 53.125C104.375 52.625 104 52.125 103.625 51.625C103.125 50.625 103.125 49.5 104.125 48.625C105 47.75 106.125 47.75 107.25 48.25C108.25 48.75 109.25 49.75 109.75 51C110.125 51.75 110.25 52.625 110.25 53.375C111.125 53.375 112 53 112.625 52.5C113.25 52 113.625 51.375 113.75 50.75C112.625 50.75 111.625 50.25 110.75 49.75C109.75 49.125 109.125 48.125 108.875 47.25C108.75 46.375 109.125 45.5 110.125 45C111.25 44.5 112.25 44.5 113.125 45C113.75 45.375 114.375 45.875 114.75 46.5C115.125 47.125 115.375 47.75 115.5 48.5V48.625C116.5 48.375 117 47.5 117.5 46.375ZM114.125 49.5C114.125 49.25 114.125 49 114 48.625C113.875 48 113.75 47.5 113.375 47.125C113.125 46.75 112.875 46.5 112.5 46.375C112.125 46.25 111.75 46.25 111.25 46.5C110.75 46.75 110.625 47.125 110.625 47.5C110.75 48 111.125 48.5 111.75 49C112.5 49.375 113.25 49.625 114.125 49.5ZM108.25 51.5C107.875 50.625 107.25 50 106.625 49.625C106.25 49.5 105.875 49.5 105.625 49.75C105.125 50.25 105 50.875 105.25 51.375C105.375 51.75 105.75 52 106.125 52.25C106.5 52.5 107 52.875 107.5 53C107.875 53.125 108.125 53.25 108.5 53.375C108.75 52.75 108.625 52.125 108.25 51.5Z" fill="#4CBDFF"/>
<path d="M173.625 86.75V88.25C171.125 87.75 170.125 86.375 169.75 84.875C169.75 84.625 169.75 84.375 169.75 84.25C168 83.75 166.25 82.75 164.875 81L166.125 80.25C167.25 81.625 168.625 82.375 170 82.75C170.125 82.375 170.25 82 170.5 81.625C171 80.625 171.875 79.875 172.75 79.625C173.75 79.25 174.75 79.5 175.625 80.5C176.5 81.5 176.5 82.375 176.125 83C175.875 83.375 175.5 83.75 174.875 84C174.375 84.25 173.75 84.375 173 84.5C172.5 84.5 172 84.5 171.375 84.5C171.375 84.625 171.375 84.75 171.375 84.875C171.5 85.75 172.125 86.5 173.625 86.75ZM172.5 83C173 83 173.5 82.875 173.875 82.625C174.25 82.5 174.375 82.25 174.5 82.125C174.625 81.875 174.625 81.625 174.25 81.375C174 81.125 173.75 81 173.375 81.125C172.75 81.375 172.25 81.875 171.875 82.625C171.75 82.75 171.75 82.875 171.625 83C172 83 172.25 83 172.5 83Z" fill="#4CBDFF"/>
<path d="M85.3751 86.5L83.875 86.75C83.0001 84.75 83.6251 83.25 84.7501 82.25C85.0001 82 85.2501 81.875 85.5001 81.75C85.0001 80.25 85 78.25 85.875 76.25L87.3751 77C86.7501 78.5 86.75 80 87 81.25C87.375 81.125 87.6251 81.125 88.0001 81.125C89.2501 81 90.5001 81.25 91.2501 81.875C92.1251 82.5 92.5 83.375 92.125 84.5C91.75 85.5 91 86 90.25 86.125C89.75 86.125 89.1251 86 88.5001 85.625C88.0001 85.375 87.5 84.875 87 84.375C86.75 84.125 86.5001 83.75 86.2501 83.375C86.1251 83.375 86.1251 83.5 86.0001 83.625C85.2501 84.25 84.7501 85.125 85.3751 86.5ZM88.1251 83.625C88.3751 84 88.75 84.25 89 84.375C89.25 84.5 89.5001 84.625 89.7501 84.625C90.1251 84.625 90.3751 84.375 90.5001 83.875C90.6251 83.5 90.6251 83.25 90.3751 83.125C90.0001 82.875 89.25 82.75 88.375 82.75C88.125 82.75 87.7501 82.875 87.5001 82.875C87.7501 83.125 88.0001 83.375 88.1251 83.625Z" fill="#4CBDFF"/>
<path d="M58.625 109.125L59.75 110.375C57.875 111.75 56.125 111.625 54.75 110.75C54.5 110.625 54.25 110.5 54.125 110.25C52.625 111.125 50.625 111.75 48.375 111.625L48.125 110.125C50.125 110.25 51.75 109.75 53 109C52.75 108.75 52.625 108.375 52.5 108.125C52 107.125 51.875 106 52.25 105.125C52.625 104.375 53.25 103.75 54.5 103.875C55.875 103.875 56.625 104.5 57 105.375C57.25 105.875 57.25 106.5 57.125 107C57 107.5 56.75 108 56.25 108.625C56 109 55.625 109.25 55.375 109.625C55.375 109.625 55.5 109.625 55.5 109.75C56.25 110 57.375 110 58.625 109.125ZM54.875 107.5C55.25 107.125 55.375 106.75 55.5 106.375C55.625 106.125 55.625 105.875 55.5 105.75C55.5 105.625 55.25 105.5 54.75 105.5C54.25 105.5 53.875 105.75 53.75 106.125C53.5 106.625 53.625 107.375 53.875 108C53.875 108.125 54 108.25 54.125 108.375C54.5 108 54.75 107.75 54.875 107.5Z" fill="#4CBDFF"/>
<path d="M36.876 53.375L37.751 52.25C39.626 53.625 40.501 55.125 40.626 56.375C41.751 56.875 42.626 57.75 43.251 58.875C44.001 60.25 43.876 61.625 43.376 62.875C44.501 64 44.876 65.75 44.126 68.25L42.501 67.625C43.001 66.125 42.876 65 42.626 64.375C42.376 64.625 42.126 65 41.876 65.25C41.376 65.75 40.876 66.25 40.251 66.5C39.626 66.875 39.001 67.125 38.376 67.125C37.126 67.25 35.876 66.875 35.126 65.5C34.501 64.375 34.751 63.5 35.626 62.75C36.376 62.125 37.626 61.625 39.001 61.5C40.001 61.375 41.001 61.5 41.876 62C42.251 61.125 42.251 60.25 41.876 59.375C41.501 58.75 41.126 58.25 40.501 57.875C40.126 58.875 39.376 59.75 38.501 60.25C37.501 60.875 36.376 61.125 35.501 61C34.376 60.875 33.501 60.25 33.251 59C33.001 58 33.376 57.125 34.126 56.5C34.626 56.125 35.251 55.75 36.001 55.625C36.751 55.5 37.501 55.5 38.376 55.625C38.626 55.625 38.751 55.75 39.001 55.75C38.751 55 38.126 54.25 36.876 53.375ZM39.001 57.25C38.876 57.25 38.626 57.125 38.501 57.125C37.876 57 37.251 57 36.751 57.125C36.251 57.25 35.751 57.375 35.501 57.75C35.126 58.125 35.001 58.5 35.001 59.125C35.001 59.5 35.251 59.625 35.501 59.625C36.126 59.75 36.876 59.5 37.501 59C38.126 58.625 38.751 58 39.001 57.25ZM39.501 63C38.501 63.125 37.501 63.375 36.876 63.875C36.501 64.25 36.376 64.625 36.626 64.875C36.876 65.375 37.376 65.5 37.876 65.375C38.251 65.375 38.751 65.125 39.251 64.875C39.751 64.625 40.251 64.25 40.626 63.75C40.876 63.5 41.126 63.25 41.251 63C40.751 63.125 40.126 63 39.501 63Z" fill="#4CBDFF"/>
<path d="M78.25 96.5L77.625 95.25C79.625 94 81.375 94.25 82.625 95.125C82.875 95.25 83.125 95.5 83.375 95.75C85 95 87 94.5 89.375 94.875L88.75 96.25C87 96 85.375 96.25 84.125 96.875C84.25 97.125 84.375 97.5 84.5 97.75C84.875 98.875 84.875 100 84.375 100.75C83.875 101.625 83 102.25 81.75 102.125C80.625 102 79.875 101.5 79.625 100.75C79.5 100.25 79.5 99.625 79.75 99.125C80 98.625 80.375 98 80.75 97.5C81 97.25 81.375 97 81.625 96.625C81.5 96.5 81.5 96.5 81.375 96.375C80.625 95.875 79.5 95.625 78.25 96.5ZM81.875 98.375C81.5 98.75 81.375 99 81.25 99.375C81.125 99.625 81.125 99.875 81.25 100C81.375 100.25 81.625 100.5 82.25 100.5C82.625 100.5 82.875 100.375 83 100.25C83.25 99.875 83.25 99.125 83 98.375C82.875 98.125 82.75 97.875 82.625 97.625C82.375 97.875 82.125 98.125 81.875 98.375Z" fill="#4CBDFF"/>
<path d="M24.125 112.875L23.375 114.375C21.125 113.75 20.25 112.5 20.125 111C20.125 110.75 20.125 110.375 20.125 110.125C18.5 109.5 16.75 108.375 15.5 106.625L17 105.625C18 107.125 19.375 108 20.625 108.625C20.75 108.375 20.875 108.125 21.125 107.875C21.875 106.875 22.75 106.125 23.75 105.875C24.75 105.625 25.625 105.875 26.25 106.75C26.875 107.625 26.875 108.5 26.375 109.25C26 109.75 25.5 110.125 24.875 110.375C24.375 110.625 23.625 110.625 22.875 110.625C22.5 110.625 22.125 110.625 21.625 110.5C21.625 110.5 21.625 110.5 21.625 110.625C21.875 111.5 22.5 112.375 24.125 112.875ZM23.375 109C23.875 109 24.375 108.875 24.75 108.75C25 108.625 25.125 108.5 25.25 108.5C25.375 108.375 25.25 108 25 107.625C24.75 107.25 24.375 107.125 24 107.125C23.5 107.25 23 107.625 22.625 108.25C22.5 108.375 22.375 108.625 22.25 108.875C22.625 109 23 109 23.375 109Z" fill="#4CBDFF"/>
<path d="M146.5 103.125L145 103.375C144.125 101.375 144.75 99.875 145.875 98.875C146.125 98.625 146.375 98.5 146.625 98.375C146.125 96.75 146.125 94.875 146.875 92.875L148.375 93.625C147.75 95.125 147.75 96.625 148 97.875C148.375 97.75 148.625 97.75 149 97.75C150.25 97.625 151.5 97.875 152.25 98.5C153.125 99.125 153.5 100 153.125 101.125C152.75 102.125 152 102.625 151.25 102.75C150.75 102.75 150.125 102.625 149.5 102.25C149 102 148.5 101.5 148 101C147.75 100.75 147.5 100.375 147.25 100C147.125 100 147.125 100.125 147 100.25C146.375 100.75 146 101.75 146.5 103.125ZM149.25 100.125C149.5 100.5 149.875 100.75 150.125 100.875C150.375 101 150.625 101.125 150.875 101.125C151.25 101.125 151.5 100.875 151.625 100.375C151.75 100 151.75 99.75 151.5 99.625C151.125 99.375 150.375 99.25 149.5 99.25C149.25 99.25 148.875 99.375 148.625 99.375C148.875 99.625 149.125 100 149.25 100.125Z" fill="#4CBDFF"/>
<path d="M105.25 82L103.75 81.625C104.5 79.5 105.625 78.25 106.875 77.625C107 76.5 107.5 75.375 108.5 74.5C109.625 73.375 111.125 73 112.5 73C113.25 71.625 114.75 70.625 117.625 70.375L117.5 72C115.75 72.125 114.75 72.625 114.125 73.125C114.5 73.25 114.875 73.25 115.25 73.375C116 73.625 116.625 73.875 117.125 74.25C117.75 74.625 118.125 75.125 118.5 75.625C119.125 76.625 119.125 77.875 118.125 79C117.375 80 116.25 80 115.25 79.625C114.25 79.25 113.375 78.25 112.75 77.125C112.375 76.375 112.125 75.375 112.125 74.5C111.125 74.5 110.125 74.875 109.5 75.5C109 76 108.625 76.625 108.5 77.125C109.625 77 110.75 77.375 111.75 77.875C112.75 78.5 113.375 79.375 113.625 80.125C113.875 81.125 113.5 82.125 112.375 82.75C111.375 83.25 110.375 83.375 109.5 83C108.875 82.75 108.375 82.25 108 81.75C107.625 81.25 107.25 80.5 107.125 79.75C107.125 79.625 107 79.375 107 79.25C106.25 79.875 105.625 80.75 105.25 82ZM108.5 78.875C108.5 79 108.5 79.125 108.625 79.375C108.75 80 109 80.5 109.25 80.875C109.5 81.25 109.875 81.625 110.25 81.75C110.75 82 111.25 82 111.75 81.625C112 81.5 112.125 81.25 112.125 81C112 80.5 111.5 79.875 110.75 79.5C110.125 79 109.25 78.75 108.5 78.875ZM114.125 76.25C114.625 77.125 115.25 77.875 116 78.125C116.5 78.25 116.875 78.25 117.125 78C117.5 77.625 117.5 77.125 117.25 76.75C117 76.375 116.75 76.125 116.25 75.75C115.75 75.5 115.25 75.125 114.625 75C114.25 74.875 114 74.75 113.625 74.75C113.75 75.25 113.875 75.75 114.125 76.25Z" fill="#4CBDFF"/>
<path fill-rule="evenodd" clip-rule="evenodd" d="M87.75 59.5C87.125 60.5 86.5 61.125 85.5 61.625C86 62 86.125 62.375 86.25 62.875C87.125 62.25 87.75 61.75 88.5 60.75C88.375 60.375 88.25 60 87.75 59.5Z" fill="#4CBDFF"/>
<path fill-rule="evenodd" clip-rule="evenodd" d="M123 121.375C123.75 121.5 124.375 121.75 125 122.25C125.375 121.5 125.625 120.625 125.625 119.75C125 119.75 124.25 119.375 123.625 118.875C123.625 119.75 123.375 120.625 123 121.375Z" fill="#4CBDFF"/>
<path fill-rule="evenodd" clip-rule="evenodd" d="M146.75 111C145.5 111.125 144.625 111 143.5 110.75C143.5 111.25 143.25 111.625 142.875 112C143.875 112.25 144.75 112.375 146.125 112.25C146.375 112 146.625 111.625 146.75 111Z" fill="#4CBDFF"/>
<path fill-rule="evenodd" clip-rule="evenodd" d="M176.25 99.125C175 99.25 174.125 99.125 173 98.875C173 99.375 172.75 99.75 172.375 100.125C173.375 100.375 174.25 100.5 175.625 100.375C176 100.125 176.25 99.75 176.25 99.125Z" fill="#4CBDFF"/>
<path fill-rule="evenodd" clip-rule="evenodd" d="M78.625 71.375C77.375 71.5 76.5 71.375 75.375 71.125C75.375 71.625 75.125 72 74.75 72.375C75.75 72.625 76.625 72.75 78 72.625C78.25 72.375 78.5 72 78.625 71.375Z" fill="#4CBDFF"/>
<path fill-rule="evenodd" clip-rule="evenodd" d="M43.75 93.875C42.5 94 41.625 93.875 40.5 93.625C40.5 94.125 40.25 94.5 39.875 94.875C40.875 95.125 41.75 95.25 43.125 95.125C43.5 94.875 43.75 94.5 43.75 93.875Z" fill="#4CBDFF"/>
<path fill-rule="evenodd" clip-rule="evenodd" d="M25.75 136.875C25.375 136.125 24.875 135.5 24.125 135C23.75 135.625 23.125 136 22.5 136.5C23.25 136.75 23.625 137.25 23.75 138C24.375 137.5 24.875 137 25.75 136.875Z" fill="#4CBDFF"/>
<path fill-rule="evenodd" clip-rule="evenodd" d="M33 91.625C32.625 90.875 32.125 90.25 31.375 89.75C31 90.375 30.375 90.75 29.75 91.25C30.5 91.5 30.875 92 31 92.75C31.625 92.25 32.25 91.75 33 91.625Z" fill="#4CBDFF"/>
<path fill-rule="evenodd" clip-rule="evenodd" d="M167.875 113C167.5 112.25 167 111.625 166.25 111.125C165.875 111.75 165.25 112.125 164.625 112.625C165.375 112.875 165.75 113.375 165.875 114.125C166.375 113.625 167 113.125 167.875 113Z" fill="#4CBDFF"/>
<path fill-rule="evenodd" clip-rule="evenodd" d="M98.375 107.375C99.125 107.5 99.75 107.75 100.375 108.25C100.75 107.5 101 106.625 101 105.75C100.375 105.75 99.625 105.375 99 104.875C99 105.75 98.75 106.625 98.375 107.375Z" fill="#4CBDFF"/>
<path fill-rule="evenodd" clip-rule="evenodd" d="M19.875 125.75C20.625 125.875 21.25 126.125 21.875 126.625C22.25 125.875 22.5 125 22.5 124.125C21.875 124.125 21.125 123.75 20.5 123.25C20.5 124.25 20.25 125.125 19.875 125.75Z" fill="#4CBDFF"/>
<path fill-rule="evenodd" clip-rule="evenodd" d="M45.625 55.125C46.375 55.25 47 55.5 47.625 56C48 55.25 48.25 54.375 48.25 53.5C47.625 53.5 46.875 53.125 46.25 52.625C46.125 53.625 46 54.375 45.625 55.125Z" fill="#4CBDFF"/>
<path fill-rule="evenodd" clip-rule="evenodd" d="M178.5 109.875C179.25 110 179.875 110.25 180.5 110.75C180.875 110 181.125 109.125 181.125 108.25C180.5 108.25 179.75 107.875 179.125 107.375C179.125 108.375 178.875 109.25 178.5 109.875Z" fill="#4CBDFF"/>
<path fill-rule="evenodd" clip-rule="evenodd" d="M36.5 73C37.25 73.125 37.875 73.375 38.5 73.875C38.875 73.125 39.125 72.25 39.125 71.375C38.5 71.375 37.75 71 37.125 70.5C37.125 71.5 36.875 72.25 36.5 73Z" fill="#4CBDFF"/>
<path d="M115 100.25L116.125 101.5C114.25 102.875 112.5 102.75 111.125 101.875C110.875 101.75 110.625 101.625 110.5 101.375C109 102.25 107 102.875 104.75 102.75L104.5 101.25C106.5 101.375 108.125 100.875 109.375 100.125C109.125 99.875 109 99.5 108.875 99.25C108.375 98.25 108.25 97.125 108.625 96.25C109 95.5 109.625 94.875 110.875 95C112.25 95 113 95.625 113.375 96.5C113.625 97 113.625 97.625 113.5 98.125C113.375 98.625 113.125 99.125 112.625 99.75C112.375 100.125 112 100.375 111.75 100.75C111.75 100.75 111.875 100.75 111.875 100.875C112.625 101.125 113.75 101.125 115 100.25ZM111.25 98.625C111.625 98.25 111.75 97.875 111.875 97.5C112 97.25 112 97 111.875 96.875C111.875 96.75 111.625 96.625 111.125 96.625C110.625 96.625 110.25 96.875 110.125 97.25C109.875 97.75 110 98.5 110.25 99.125C110.25 99.25 110.375 99.375 110.5 99.5C110.75 99.125 111 98.875 111.25 98.625Z" fill="#4CBDFF"/>
<path d="M56.376 75.5L57.251 74.375C59.126 75.75 60.001 77.25 60.126 78.5C61.251 79 62.126 79.875 62.751 81C63.501 82.375 63.376 83.75 62.876 85C64.001 86.125 64.376 87.875 63.626 90.375L62.001 89.625C62.501 88.125 62.376 87 62.126 86.375C61.876 86.625 61.626 87 61.376 87.25C60.876 87.75 60.376 88.25 59.751 88.5C59.126 88.875 58.501 89.125 57.876 89.125C56.626 89.25 55.376 88.875 54.626 87.5C54.001 86.375 54.251 85.5 55.126 84.75C55.876 84.125 57.126 83.625 58.501 83.5C59.501 83.375 60.501 83.5 61.376 84C61.751 83.125 61.751 82.25 61.376 81.375C61.001 80.75 60.626 80.25 60.001 79.875C59.626 80.875 58.876 81.75 58.001 82.25C57.001 82.875 55.876 83.125 55.001 83C53.876 82.875 53.001 82.25 52.751 81C52.501 80 52.876 79.125 53.626 78.5C54.126 78.125 54.751 77.75 55.501 77.625C56.251 77.5 57.001 77.5 57.876 77.625C58.126 77.625 58.251 77.75 58.501 77.75C58.126 77.125 57.501 76.375 56.376 75.5ZM58.376 79.375C58.251 79.375 58.001 79.25 57.876 79.25C57.251 79.125 56.626 79.125 56.126 79.25C55.626 79.375 55.126 79.5 54.876 79.875C54.501 80.25 54.376 80.625 54.376 81.25C54.376 81.625 54.626 81.75 54.876 81.75C55.501 81.875 56.251 81.625 56.876 81.125C57.626 80.75 58.126 80.125 58.376 79.375ZM59.001 85.125C58.001 85.25 57.001 85.5 56.376 86C56.001 86.375 55.876 86.75 56.126 87C56.376 87.5 56.876 87.625 57.376 87.5C57.751 87.5 58.251 87.25 58.751 87C59.251 86.75 59.751 86.375 60.126 85.875C60.376 85.625 60.626 85.375 60.751 85.125C60.251 85.125 59.626 85.125 59.001 85.125Z" fill="#4CBDFF"/>
<path d="M105.125 43L106.25 44.25C104.375 45.625 102.625 45.5 101.25 44.625C101 44.5 100.75 44.375 100.625 44.125C99.125 45 97.125 45.625 94.875 45.5L94.625 44C96.625 44.125 98.25 43.625 99.5 42.875C99.25 42.625 99.125 42.25 99 42C98.5 41 98.375 39.875 98.75 39C99.125 38.25 99.75 37.625 101 37.75C102.375 37.75 103.125 38.375 103.5 39.25C103.75 39.75 103.75 40.375 103.625 40.875C103.5 41.375 103.25 41.875 102.75 42.5C102.5 42.875 102.125 43.125 101.875 43.5C101.875 43.5 102 43.5 102 43.625C102.75 43.875 103.875 43.875 105.125 43ZM101.375 41.375C101.75 41 101.875 40.625 102 40.25C102.125 40 102.125 39.75 102 39.625C102 39.5 101.75 39.375 101.25 39.375C100.75 39.375 100.375 39.625 100.25 40C100 40.5 100.125 41.25 100.375 41.875C100.375 42 100.5 42.125 100.625 42.25C100.875 41.875 101.125 41.625 101.375 41.375Z" fill="#4CBDFF"/>
<path d="M144.249 36.875L145.624 36.375C146.749 38.375 146.374 39.875 145.374 41C145.124 41.25 144.874 41.375 144.624 41.625C145.374 43.125 145.624 45.125 145.124 47.125L143.499 46.5C143.874 44.875 143.749 43.5 143.249 42.25C142.874 42.375 142.624 42.5 142.249 42.5C141.124 42.75 139.874 42.625 138.999 42.125C137.999 41.625 137.499 40.75 137.749 39.5C137.999 38.5 138.624 37.875 139.374 37.75C139.874 37.625 140.499 37.75 141.124 38C141.749 38.25 142.249 38.625 142.749 39.125C142.999 39.375 143.374 39.75 143.624 40C143.749 39.875 143.874 39.875 143.874 39.75C144.624 39.125 144.874 38.125 144.249 36.875ZM141.874 40.125C141.499 39.75 141.124 39.625 140.874 39.375C140.624 39.25 140.374 39.25 140.124 39.25C139.749 39.375 139.499 39.625 139.374 40.125C139.249 40.5 139.374 40.75 139.624 40.875C140.124 41.125 140.874 41.125 141.624 41C141.874 41 142.124 40.875 142.499 40.75C142.249 40.5 141.999 40.25 141.874 40.125Z" fill="#4CBDFF"/>
<path fill-rule="evenodd" clip-rule="evenodd" d="M89.75 126.625C90.5 126.75 91.125 127 91.75 127.5C92.125 126.75 92.375 125.875 92.375 125C91.75 125 91 124.625 90.375 124.125C90.25 125.125 90.125 125.875 89.75 126.625Z" fill="#4CBDFF"/>
<path fill-rule="evenodd" clip-rule="evenodd" d="M145.875 125.375C145.5 124.625 145 124 144.25 123.5C143.875 124.125 143.25 124.5 142.625 125C143.375 125.25 143.75 125.75 143.875 126.5C144.5 126 145.125 125.5 145.875 125.375Z" fill="#4CBDFF"/>
<path fill-rule="evenodd" clip-rule="evenodd" d="M122.625 113.75C122.25 113 121.75 112.375 121 111.875C120.625 112.5 120 112.875 119.375 113.375C120.125 113.625 120.5 114.125 120.625 114.875C121.25 114.375 121.75 113.875 122.625 113.75Z" fill="#4CBDFF"/>
<path fill-rule="evenodd" clip-rule="evenodd" d="M72.625 113.125C71.375 113.25 70.5 113.125 69.375 112.875C69.375 113.375 69.125 113.75 68.75 114.125C69.75 114.375 70.625 114.5 72 114.375C72.375 114 72.625 113.75 72.625 113.125Z" fill="#4CBDFF"/>
<path d="M141.375 64.25L140.375 63.25C142.125 61.625 143.875 61.5 145.25 62.125C145.5 62.25 145.75 62.375 146 62.5C147.375 61.375 149.25 60.625 151.625 60.5L151.375 62.125C149.625 62.25 148.125 62.75 147 63.5C147.25 63.75 147.375 64 147.625 64.25C148.25 65.25 148.5 66.375 148.25 67.25C148 68.25 147.25 69 145.875 69.125C144.75 69.25 143.875 68.875 143.5 68.25C143.25 67.75 143.125 67.25 143.25 66.625C143.375 66.125 143.5 65.5 143.875 64.875C144.125 64.5 144.375 64.25 144.625 63.875C144.5 63.75 144.375 63.75 144.25 63.75C143.5 63.125 142.375 63.25 141.375 64.25ZM145.375 65.375C145.125 65.75 145 66.125 145 66.5C145 66.75 145 67 145.125 67.25C145.25 67.5 145.625 67.625 146.25 67.625C146.625 67.625 146.875 67.375 146.875 67.25C147 66.75 146.75 66.125 146.375 65.375C146.25 65.125 146.125 64.875 145.875 64.75C145.75 64.875 145.5 65.125 145.375 65.375Z" fill="#4CBDFF"/>
<path d="M35.75 83.125L36.875 84.375C35 85.75 33.25 85.625 31.875 84.75C31.625 84.625 31.375 84.5 31.25 84.25C29.75 85.125 27.75 85.75 25.5 85.625L25.25 84.125C27.25 84.25 28.875 83.75 30.125 83C29.875 82.75 29.75 82.375 29.625 82.125C29.125 81.125 29 80 29.375 79.125C29.75 78.375 30.375 77.75 31.625 77.875C33 77.875 33.75 78.5 34.125 79.375C34.375 79.875 34.375 80.5 34.25 81C34.125 81.5 33.875 82 33.375 82.625C33.125 83 32.75 83.25 32.5 83.625C32.5 83.625 32.625 83.625 32.625 83.75C33.375 84 34.5 84 35.75 83.125ZM32 81.5C32.375 81.125 32.5 80.75 32.625 80.375C32.75 80.125 32.75 79.875 32.625 79.75C32.625 79.625 32.375 79.5 31.875 79.5C31.375 79.5 31 79.75 30.875 80.125C30.625 80.625 30.75 81.375 31 82C31 82.125 31.125 82.25 31.25 82.375C31.5 82 31.75 81.75 32 81.5Z" fill="#4CBDFF"/>
<path d="M156.125 81.625L157.25 82.875C155.375 84.25 153.625 84.125 152.25 83.25C152 83.125 151.75 83 151.625 82.75C150.125 83.625 148.125 84.25 145.875 84.125L145.625 82.625C147.625 82.75 149.25 82.25 150.5 81.5C150.25 81.25 150.125 80.875 150 80.625C149.5 79.625 149.375 78.5 149.75 77.625C150.125 76.875 150.75 76.25 152 76.375C153.375 76.375 154.125 77 154.5 77.875C154.75 78.375 154.75 79 154.625 79.5C154.5 80 154.25 80.5 153.75 81.125C153.5 81.5 153.125 81.75 152.875 82.125C152.875 82.125 153 82.125 153 82.25C153.75 82.5 154.875 82.5 156.125 81.625ZM152.375 80C152.75 79.625 152.875 79.25 153 78.875C153.125 78.625 153.125 78.375 153 78.25C153 78.125 152.75 78 152.25 78C151.75 78 151.375 78.25 151.25 78.625C151 79.125 151.125 79.875 151.375 80.5C151.375 80.625 151.5 80.75 151.625 80.875C151.875 80.5 152.125 80.25 152.375 80Z" fill="#4CBDFF"/>
<path d="M79.7503 32.25L81.3753 32.875C80.5003 35 79.2503 36.125 78.0003 36.5C77.7503 37.625 77.2503 38.75 76.2503 39.625C75.1253 40.625 73.6253 41 72.1253 40.875C71.3753 42.125 69.7503 43.125 66.8753 43.125L66.5003 41.75C68.3753 41.75 69.5003 41.25 70.1253 40.5C69.7503 40.375 69.5003 40.25 69.2503 40.125C68.5003 39.875 67.8753 39.5 67.2503 39C66.6253 38.5 66.2503 38 65.8753 37.5C65.3753 36.5 65.3753 35.375 66.3753 34.5C67.2503 33.625 68.3753 33.625 69.5003 34.125C70.5003 34.625 71.5003 35.625 72.0003 36.875C72.3753 37.625 72.5003 38.5 72.5003 39.25C73.3753 39.25 74.2503 38.875 74.8753 38.375C75.5003 37.875 75.8753 37.25 76.0003 36.625C74.8753 36.625 73.8753 36.125 73.0003 35.625C72.0003 35 71.3753 34 71.1253 33.125C71.0003 32.25 71.3753 31.375 72.3753 30.875C73.5003 30.375 74.5003 30.375 75.3753 30.875C76.0003 31.25 76.6253 31.75 77.0003 32.375C77.3753 33 77.6253 33.625 77.7503 34.375V34.5C78.6253 34.125 79.2503 33.375 79.7503 32.25ZM76.3753 35.375C76.3753 35.125 76.3753 34.875 76.2503 34.5C76.1253 33.875 76.0003 33.375 75.6253 33C75.3753 32.625 75.1253 32.375 74.7503 32.25C74.3753 32.125 74.0003 32.125 73.5003 32.375C73.0003 32.625 72.8753 33 72.8753 33.375C73.0003 33.875 73.3753 34.375 74.0003 34.875C74.7503 35.125 75.5003 35.375 76.3753 35.375ZM70.5003 37.25C70.1253 36.375 69.5003 35.75 68.8753 35.375C68.5003 35.25 68.1253 35.25 67.8753 35.5C67.3753 36 67.2503 36.625 67.5003 37.125C67.6253 37.5 68.0003 37.75 68.3753 38C68.7503 38.25 69.2503 38.625 69.7503 38.75C70.1253 38.875 70.3753 39 70.7503 39.125C71.0003 38.625 70.7503 37.875 70.5003 37.25Z" fill="#4CBDFF"/>
<path d="M138 52.25L139.125 53.5C137.25 54.875 135.5 54.75 134.125 53.875C133.875 53.75 133.625 53.625 133.5 53.375C132 54.25 130 54.875 127.75 54.75L127.5 53.25C129.5 53.375 131.125 52.875 132.375 52.125C132.125 51.875 132 51.5 131.875 51.25C131.375 50.25 131.25 49.125 131.625 48.25C132 47.5 132.625 46.875 133.875 47C135.25 47 136 47.625 136.375 48.5C136.625 49 136.625 49.625 136.5 50.125C136.375 50.625 136.125 51.125 135.625 51.75C135.375 52.125 135 52.375 134.75 52.75C134.75 52.75 134.875 52.75 134.875 52.875C135.625 53.125 136.75 53.125 138 52.25ZM134.25 50.5C134.625 50.125 134.75 49.75 134.875 49.375C135 49.125 135 48.875 134.875 48.75C134.875 48.625 134.625 48.5 134.125 48.5C133.625 48.5 133.25 48.75 133.125 49.125C132.875 49.625 133 50.375 133.25 51C133.25 51.125 133.375 51.25 133.5 51.375C133.75 51.125 134 50.875 134.25 50.5Z" fill="#4CBDFF"/>
<path d="M97 119.25L95.75 118.125C97.375 116.5 98.875 115.75 100.25 115.75C100.875 114.75 101.75 113.875 103 113.375C104.375 112.75 106 113 107.375 113.5C108.5 112.5 110.375 112.125 113.125 113L112.875 114.5C111.125 114 109.875 114 109 114.5C109.25 114.625 109.5 114.875 109.75 115.125C110.375 115.625 110.875 116.25 111.125 116.75C111.5 117.375 111.75 118 111.875 118.625C112 119.75 111.5 120.75 110.25 121.25C109.125 121.75 108 121.375 107.25 120.625C106.5 119.875 106 118.5 105.875 117.25C105.875 116.375 106 115.625 106.375 114.875C105.5 114.625 104.625 114.625 103.875 115C103.125 115.25 102.5 115.75 102.125 116.25C103.125 116.625 104 117.375 104.5 118.125C105.125 119.125 105.5 120.125 105.25 121.125C105.125 122 104.375 122.625 103.25 122.75C102 122.875 101.125 122.5 100.375 121.75C99.875 121.25 99.5 120.5 99.375 119.875C99.25 119.25 99.25 118.5 99.375 117.75V117.625C98.75 117.75 97.875 118.25 97 119.25ZM101.375 117.375C101.25 117.625 101.125 117.875 101.125 118.125C101 118.75 101 119.25 101.125 119.75C101.25 120.125 101.375 120.5 101.625 120.75C101.875 121 102.25 121.125 102.875 121.125C103.375 121 103.75 120.75 103.75 120.375C103.875 119.875 103.625 119.25 103.25 118.625C102.75 118 102.125 117.5 101.375 117.375ZM107.5 117.375C107.5 118.25 107.875 119.125 108.25 119.625C108.5 119.875 108.875 120 109.25 119.75C110 119.375 110.25 118.875 110.125 118.375C110.125 118 109.875 117.625 109.625 117.25C109.375 116.875 109 116.375 108.625 116C108.375 115.75 108.125 115.625 107.75 115.375C107.625 116 107.5 116.625 107.5 117.375Z" fill="#4CBDFF"/>
<path fill-rule="evenodd" clip-rule="evenodd" d="M84.375 48C83.625 48.25 82.875 48.25 82.125 48C82.125 48.75 82.375 49.75 82.75 50.5C83.375 50.25 84.125 50.25 85 50.5C84.5 49.625 84.375 48.75 84.375 48Z" fill="#4CBDFF"/>
<path fill-rule="evenodd" clip-rule="evenodd" d="M153.25 37.875C152.875 37.125 152.375 36.5 151.625 36C151.25 36.625 150.625 37 150 37.5C150.75 37.75 151.125 38.25 151.25 39C151.875 38.5 152.375 38 153.25 37.875Z" fill="#4CBDFF"/>
<path fill-rule="evenodd" clip-rule="evenodd" d="M101 66.625C100.625 65.875 100.125 65.25 99.375 64.75C99 65.375 98.375 65.75 97.75 66.25C98.5 66.5 98.875 67 99 67.75C99.625 67.25 100.125 66.75 101 66.625Z" fill="#4CBDFF"/>
<path fill-rule="evenodd" clip-rule="evenodd" d="M117.375 64.125C118.125 64.25 118.75 64.5 119.375 65C119.75 64.25 120 63.375 120 62.5C119.375 62.5 118.625 62.125 118 61.625C117.875 62.625 117.75 63.5 117.375 64.125Z" fill="#4CBDFF"/>
<path fill-rule="evenodd" clip-rule="evenodd" d="M150.125 50.875C150.25 51.625 150 52.25 149.625 52.875C150.5 53 151.5 53 152.375 52.875C152.25 52.25 152.375 51.625 152.875 50.875C151.875 51 151 51 150.125 50.875Z" fill="#4CBDFF"/>
<path fill-rule="evenodd" clip-rule="evenodd" d="M152.75 42.75C151.5 42.875 150.625 42.75 149.5 42.5C149.5 43 149.25 43.375 148.875 43.75C149.875 44 150.75 44.125 152.125 44C152.5 43.75 152.75 43.375 152.75 42.75Z" fill="#4CBDFF"/>
<path fill-rule="evenodd" clip-rule="evenodd" d="M59.625 131.375C60.375 131.5 61 131.75 61.625 132.25C62 131.5 62.25 130.625 62.25 129.75C61.625 129.75 60.875 129.375 60.25 128.875C60.25 129.875 60 130.625 59.625 131.375Z" fill="#4CBDFF"/>
<path fill-rule="evenodd" clip-rule="evenodd" d="M99.125 87.5C99.875 87.625 100.5 87.875 101.125 88.375C101.5 87.625 101.75 86.75 101.75 85.875C101.125 85.875 100.375 85.5 99.75 85C99.75 86 99.5 86.875 99.125 87.5Z" fill="#4CBDFF"/>
<path fill-rule="evenodd" clip-rule="evenodd" d="M64.125 149.875C64.875 150 65.5 150.25 66.125 150.75C66.5 150 66.75 149.125 66.75 148.25C66.125 148.25 65.375 147.875 64.75 147.375C64.75 148.375 64.5 149.125 64.125 149.875Z" fill="#4CBDFF"/>
<path d="M34.875 93.625L36.625 93.125C37.5 95.125 37.5 96.75 36.875 97.875C37.5 98.75 38 100 37.875 101.25C37.75 102.625 37 103.875 35.75 104.75C36.125 106.125 35.75 107.75 33.625 109.75L32.25 109C33.625 107.75 34.125 106.75 34 105.875C33.75 106 33.375 106.125 33.125 106.25C32.375 106.5 31.625 106.625 30.875 106.625C30.125 106.625 29.375 106.625 28.75 106.375C27.625 106 26.875 105.125 26.875 103.875C26.875 102.75 27.75 102 28.875 101.75C30 101.5 31.5 101.625 32.75 102.125C33.625 102.5 34.375 103 34.875 103.625C35.5 103 35.875 102.375 35.875 101.5C35.875 100.75 35.75 100.125 35.5 99.5C34.625 100.125 33.625 100.5 32.5 100.625C31.25 100.75 30 100.5 29.25 99.875C28.5 99.375 28.125 98.5 28.5 97.5C28.875 96.5 29.75 95.875 30.75 95.625C31.5 95.5 32.25 95.5 33.125 95.75C33.875 96 34.625 96.25 35.25 96.75H35.375C35.5 95.75 35.375 94.75 34.875 93.625ZM34.75 98C34.5 97.75 34.375 97.625 34.125 97.375C33.625 97 33.125 96.75 32.625 96.625C32.125 96.5 31.75 96.5 31.375 96.5C31 96.625 30.625 96.875 30.5 97.375C30.375 97.875 30.5 98.25 30.75 98.5C31.125 98.75 31.875 99 32.625 98.875C33.375 98.875 34.125 98.625 34.75 98C34.75 98.125 34.75 98.125 34.75 98ZM31.875 103.125C31 102.75 30 102.625 29.375 102.75C29 102.875 28.75 103.125 28.75 103.5C28.75 104.25 29.125 104.625 29.75 104.875C30.125 105 30.625 105 31 105C31.5 105 32.125 104.875 32.625 104.75C33 104.625 33.25 104.5 33.625 104.375C33.125 103.75 32.5 103.375 31.875 103.125Z" fill="#4CBDFF"/>
<path d="M85.5 68.75L84.5 67.75C86.25 66.125 88 66 89.375 66.625C89.625 66.75 89.875 66.875 90.125 67C91.5 65.875 93.375 65.125 95.75 65L95.5 66.625C93.75 66.75 92.25 67.25 91.125 68C91.375 68.25 91.5 68.5 91.75 68.75C92.375 69.75 92.625 70.875 92.375 71.75C92.125 72.75 91.375 73.5 90 73.625C88.875 73.75 88 73.375 87.625 72.75C87.375 72.25 87.25 71.75 87.375 71.125C87.5 70.625 87.625 70 88 69.375C88.25 69 88.5 68.75 88.75 68.375C88.625 68.25 88.5 68.25 88.375 68.25C87.75 67.625 86.625 67.75 85.5 68.75ZM89.625 69.875C89.375 70.25 89.25 70.625 89.25 71C89.25 71.25 89.25 71.5 89.375 71.75C89.5 72 89.875 72.125 90.5 72.125C90.875 72.125 91.125 71.875 91.125 71.75C91.25 71.25 91 70.625 90.625 69.875C90.5 69.625 90.375 69.375 90.125 69.25C89.875 69.375 89.75 69.625 89.625 69.875Z" fill="#4CBDFF"/>
<path d="M76.875 115.25L75.875 114.25C77.625 112.625 79.375 112.5 80.75 113.125C81 113.25 81.25 113.375 81.5 113.5C82.875 112.375 84.75 111.625 87.125 111.5L86.875 113.125C85.125 113.25 83.625 113.75 82.5 114.5C82.75 114.75 82.875 115 83.125 115.25C83.75 116.25 84 117.375 83.75 118.25C83.5 119.25 82.75 120 81.375 120.125C80.25 120.25 79.375 119.875 79 119.25C78.75 118.75 78.625 118.25 78.75 117.625C78.875 117.125 79 116.5 79.375 115.875C79.625 115.5 79.875 115.25 80.125 114.875C80 114.75 79.875 114.75 79.75 114.75C79.125 114.125 78 114.25 76.875 115.25ZM81 116.375C80.75 116.75 80.625 117.125 80.625 117.5C80.625 117.75 80.625 118 80.75 118.25C80.875 118.5 81.25 118.625 81.875 118.625C82.25 118.625 82.5 118.375 82.5 118.25C82.625 117.75 82.375 117.125 82 116.375C81.875 116.125 81.75 115.875 81.5 115.75C81.25 115.875 81.125 116.125 81 116.375Z" fill="#4CBDFF"/>
<path fill-rule="evenodd" clip-rule="evenodd" d="M137.875 105.75C138 106.5 137.75 107.125 137.375 107.75C138.25 107.875 139.25 107.875 140.125 107.75C140 107.125 140.125 106.5 140.625 105.75C139.625 106 138.75 106 137.875 105.75Z" fill="#4CBDFF"/>
<path fill-rule="evenodd" clip-rule="evenodd" d="M42.125 44.25C42.25 45 42 45.625 41.625 46.25C42.5 46.375 43.5 46.375 44.375 46.25C44.25 45.625 44.375 45 44.875 44.25C43.875 44.375 43 44.375 42.125 44.25Z" fill="#4CBDFF"/>
<path fill-rule="evenodd" clip-rule="evenodd" d="M43.5 72C43.625 72.75 43.375 73.375 43 74C43.875 74.125 44.875 74.125 45.75 74C45.625 73.375 45.75 72.75 46.25 72C45.25 72.25 44.25 72.25 43.5 72Z" fill="#4CBDFF"/>
<path fill-rule="evenodd" clip-rule="evenodd" d="M127.375 69.25C127.5 70 127.25 70.625 126.875 71.25C127.75 71.375 128.75 71.375 129.625 71.25C129.5 70.625 129.625 70 130.125 69.25C129.125 69.375 128.25 69.375 127.375 69.25Z" fill="#4CBDFF"/>
<path fill-rule="evenodd" clip-rule="evenodd" d="M56 119.125C56.125 119.875 55.875 120.5 55.5 121.125C56.375 121.25 57.375 121.25 58.25 121.125C58.125 120.5 58.25 119.875 58.75 119.125C57.75 119.375 56.75 119.25 56 119.125Z" fill="#4CBDFF"/>
<path d="M44 126.75L45.125 128C43.25 129.375 41.5 129.25 40.125 128.375C39.875 128.25 39.625 128.125 39.5 127.875C38 128.75 36 129.375 33.75 129.25L33.5 127.75C35.5 127.875 37.125 127.375 38.375 126.625C38.125 126.375 38 126 37.875 125.75C37.375 124.75 37.25 123.625 37.625 122.75C38 122 38.625 121.375 39.875 121.5C41.25 121.5 42 122.125 42.375 123C42.625 123.5 42.625 124.125 42.5 124.625C42.375 125.125 42.125 125.625 41.625 126.25C41.375 126.625 41 126.875 40.75 127.25C40.75 127.25 40.875 127.25 40.875 127.375C41.625 127.625 42.75 127.625 44 126.75ZM40.25 125.125C40.625 124.75 40.75 124.375 40.875 124C41 123.75 41 123.5 40.875 123.375C40.875 123.25 40.625 123.125 40.125 123.125C39.625 123.125 39.25 123.375 39.125 123.75C38.875 124.25 39 125 39.25 125.625C39.25 125.75 39.375 125.875 39.5 126C39.75 125.625 40 125.375 40.25 125.125Z" fill="#4CBDFF"/>
<path d="M116.5 131.5L117.625 132.75C115.75 134.125 114 134 112.625 133.125C112.375 133 112.125 132.875 112 132.625C110.5 133.5 108.5 134.125 106.25 134L106 132.5C108 132.625 109.625 132.125 110.875 131.375C110.625 131.125 110.5 130.75 110.375 130.5C109.875 129.5 109.75 128.375 110.125 127.5C110.5 126.75 111.125 126.125 112.375 126.25C113.75 126.25 114.5 126.875 114.875 127.75C115.125 128.25 115.125 128.875 115 129.375C114.875 129.875 114.625 130.375 114.125 131C113.875 131.375 113.5 131.625 113.25 132C113.25 132 113.375 132 113.375 132.125C114.125 132.375 115.25 132.375 116.5 131.5ZM112.75 129.875C113.125 129.5 113.25 129.125 113.375 128.75C113.5 128.5 113.5 128.25 113.375 128.125C113.375 128 113.125 127.875 112.625 127.875C112.125 127.875 111.75 128.125 111.625 128.5C111.375 129 111.5 129.75 111.75 130.375C111.75 130.5 111.875 130.625 112 130.75C112.375 130.375 112.625 130.125 112.75 129.875Z" fill="#4CBDFF"/>
<path fill-rule="evenodd" clip-rule="evenodd" d="M82.25 137.375C81 137.5 80.125 137.375 79 137.125C79 137.625 78.75 138 78.375 138.375C79.375 138.625 80.25 138.75 81.625 138.625C81.875 138.375 82.25 138 82.25 137.375Z" fill="#4CBDFF"/>
<path fill-rule="evenodd" clip-rule="evenodd" d="M49.5 141.25C49.375 142.375 49.25 143.125 48.75 144.125C49.375 144.25 49.75 144.5 50 144.875C50.5 144 50.75 143.25 50.75 142C50.5 141.625 50.125 141.375 49.5 141.25Z" fill="#4CBDFF"/>
<path fill-rule="evenodd" clip-rule="evenodd" d="M169.875 140.5C169.75 141.625 169.625 142.375 169.125 143.375C169.75 143.5 170.125 143.75 170.375 144.125C170.875 143.25 171.125 142.5 171.125 141.25C170.875 140.875 170.5 140.625 169.875 140.5Z" fill="#4CBDFF"/>
</g>
<path d="M36.375 74.375C36.625 80 37 85.625 37.375 91.25C37.5 93.625 37.75 96 37.875 98.375C39.125 99 41.375 99.875 44.125 100C48.375 100.25 51.5 98.625 52.875 97.875C52.5 91.125 52.25 84.25 51.875 77.5C46.75 76.5 41.5 75.5 36.375 74.375Z" fill="#E2B18A"/>
<path d="M36.375 74.375C36.5 76.875 36.625 79.375 36.625 81.875C37 87.625 37.375 93.25 37.625 99C38.25 99.125 39 99.375 39.625 99.5C39.25 97.875 38.875 96.125 38.625 94.25C38 90.375 37.875 86.875 37.875 83.75C40.5 87.75 44.875 89.5 48.25 88.25C50.375 87.5 51.5 85.75 52.125 84.875C52 82.375 52 80 51.875 77.5C46.75 76.5 41.5 75.5 36.375 74.375Z" fill="#B48262"/>
<path d="M99.625 77.7499C100.375 77.3749 101.375 76.6249 102.25 75.3749C103 74.4999 104.375 72.4999 105.125 66.4999C105.75 61.7499 105.125 61.1249 105.875 58.2499C106.625 55.3749 108 53.1249 109 51.7499C109.375 51.1249 109.125 50.3749 108.625 50.1249C108.25 49.8749 107.75 49.8749 107.25 50.2499C107.875 49.7499 108.125 48.8749 107.75 48.2499C107.375 47.6249 106.5 47.3749 105.75 47.7499C105.875 46.8749 105.875 45.8749 105.5 45.7499C104.5 45.2499 101.875 48.7499 101.5 49.3749C99.375 52.2499 98.25 54.8749 96.625 59.2499C95.625 61.9999 94.5 64.9999 93.375 68.2499C95.375 71.1249 97.5 74.4999 99.625 77.7499Z" fill="#E2B18A"/>
<path d="M99.8756 61.9999C100.751 60.8749 101.376 59.6249 102.001 58.3749C102.501 57.2499 102.626 55.9999 103.251 54.9999C103.751 53.9999 104.376 55.7499 104.376 56.2499C104.376 57.1249 104.001 58.1249 103.501 58.8749C103.251 59.2499 102.876 59.7499 102.751 60.2499C102.626 60.7499 102.751 61.4999 102.751 61.9999C102.751 62.7499 102.626 63.4999 102.501 64.2499C102.001 66.6249 101.001 68.7499 99.5006 70.6249C99.0006 71.2499 99.8756 72.1249 100.376 71.4999C101.626 69.8749 102.626 68.1249 103.251 66.1249C103.626 64.7499 103.876 63.3749 104.001 61.9999C104.001 61.6249 104.001 61.3749 104.001 60.9999C104.001 60.8749 103.876 60.3749 103.876 60.4999C103.876 60.3749 104.126 60.1249 104.251 59.9999C105.001 58.6249 105.876 56.9999 105.626 55.3749C105.376 53.9999 103.751 52.3749 102.501 53.8749C101.751 54.7499 101.626 56.2499 101.126 57.3749C100.626 58.7499 99.7506 59.9999 98.8756 61.2499C98.2506 61.9999 99.3756 62.6249 99.8756 61.9999Z" fill="#B48262"/>
<path d="M103.376 54.6249C104.376 52.2499 105.501 49.8749 106.501 47.4999C106.626 47.2499 106.626 46.8749 106.251 46.6249C106.001 46.4999 105.501 46.4999 105.376 46.8749C104.376 49.2499 103.251 51.6249 102.251 53.9999C102.126 54.2499 102.126 54.6249 102.501 54.8749C102.751 54.9999 103.251 54.9999 103.376 54.6249Z" fill="#B48262"/>
<path d="M107.251 49.2499C106.251 50.9999 105.376 52.6248 104.376 54.3748C104.001 54.9998 105.001 55.6248 105.376 54.9998C106.376 53.2498 107.251 51.6249 108.251 49.8749C108.626 49.2499 107.626 48.6249 107.251 49.2499Z" fill="#B48262"/>
<path d="M27.125 153.5C33 153.625 40.25 153.25 48.5 151.625C57.875 149.875 65.625 147 71.375 144.25C72.75 152.625 74.125 161 75.5 169.25C68.125 169.25 60.625 169.25 53.25 169.375C44.375 169.375 35.375 169.375 26.5 169.375C26.625 164.25 26.875 158.875 27.125 153.5Z" fill="#AAC4D1"/>
<path d="M57.375 162.375C56.25 163.625 55.125 164.75 54 166C53.75 167.125 53.375 168.25 53.125 169.5C53.75 169.5 54.375 169.5 54.875 169.375C55 168.875 55 168.5 55.125 168C55.625 165.75 56.5 163.875 57.375 162.375Z" fill="#78929F"/>
<path d="M44.5 152.25C43.25 158 42.125 163.625 40.875 169.375C36 169.375 31.25 169.5 26.375 169.5C26.625 165.875 26.875 162.125 27 158.25C27 156.625 27.125 155.125 27.125 153.5C29.5 153.625 32.25 153.625 35.25 153.5C38.625 153.25 41.75 152.875 44.5 152.25Z" fill="#78929F"/>
<path d="M62.625 147.75C64.25 147.25 65.875 146.625 67.5 146C68.75 145.5 70 145 71.25 144.375C72.25 150 73.375 155.625 74.375 161.25C71 163 67.625 164.625 64.375 166.375C63.875 160.125 63.25 154 62.625 147.75Z" fill="#78929F"/>
<path d="M37.875 98.5C39.25 99.125 42 100.125 45.5 100C49 99.875 51.5 98.75 52.875 98C53.5 99.5 54.5 101.75 55.5 104.5C59.5 115.125 61.125 123.75 62.375 130C63.375 135.125 64.375 141.875 65.125 149.75C60.75 151.125 56 152.375 50.875 153.375C46.75 154.25 42.875 154.875 39.125 155.25C40.75 145.25 41.75 132.875 40.625 118.75C40.125 111.25 39.125 104.5 37.875 98.5Z" fill="white"/>
<path d="M37.875 98.5C38.125 100.25 38.5 102.875 39 106.125C39.625 109.625 40 112.125 40.125 112.375C40.75 116.125 40.875 127.25 39.25 155.125C40.75 154.875 42.375 154.75 43.875 154.5C44.25 149.875 44.5 145 44.375 139.875C44.375 124.375 42.25 110.625 39.625 99.125C39 98.875 38.375 98.625 37.875 98.5Z" fill="#DCDCDC"/>
<path d="M52.5 98.125C53.625 101.75 54.75 105.5 55.75 109.25C59.625 123.875 61.875 137.625 62.875 150.125C64.125 149.875 65.25 149.625 66.5 149.25C65.875 140.25 64.25 129.625 61.125 118C59 110.125 56.5 103 54 96.875C53.5 97.375 53 97.75 52.5 98.125Z" fill="#DCDCDC"/>
<path d="M37.0007 82.2499C36.0007 82.8749 35.0007 83.4999 34.0007 84.1249C33.6257 84.9999 33.3757 85.8749 33.0007 86.8749C29.2507 88.2499 25.6257 89.6249 21.8757 90.9999C16.7507 98.6249 12.0007 106.125 7.50072 113.5C3.12572 120.75 -0.124282 126.375 1.12572 132.5C1.37572 133.75 2.25072 137.625 5.37572 139.5C6.25072 140 7.37572 140.5 10.6257 140.625C13.1257 140.75 16.7507 140.75 21.2507 139.875C19.3757 146.875 17.5007 154 15.6257 161C16.8757 160.75 18.7507 160.625 20.8757 161.125C24.5007 162.125 25.6257 164.625 29.3757 166.75C30.8757 167.625 33.2507 168.625 36.6257 169C39.2507 157.75 42.3757 140.5 41.5007 126.625C41.0007 120 40.2507 113.375 40.2507 113.375C39.3757 106.875 38.7507 104.5 38.0007 99.2499C37.5007 95.3749 37.0007 89.4999 37.0007 82.2499Z" fill="#E4B34D"/>
<path d="M36.25 81.8749C35.5 82.2499 34.625 82.6249 33.875 82.9999C33.25 83.3749 33.25 83.8749 33 84.4999C32.5 86.1249 32 87.8749 31.5 89.4999C30.5 92.8749 29.5 96.2499 28.625 99.7499C28.5 99.9999 28.75 100.375 29 100.5C30.875 100.875 32.375 100.5 33.875 99.4999C35.125 98.6249 36.5 100.25 37.25 101.125C37.75 101.75 38.625 100.875 38.125 100.25C37.25 99.2499 36 97.8749 34.5 97.8749C33.75 97.8749 33.25 98.3749 32.75 98.7499C31.75 99.4999 30.5 99.4999 29.375 99.2499C29.5 99.4999 29.625 99.7499 29.75 99.9999C30.625 96.8749 31.625 93.6249 32.5 90.4999C33 88.9999 33.375 87.3749 33.875 85.8749C34.125 85.1249 34.125 84.2499 34.75 83.8749C35.375 83.4999 36.125 83.2499 36.75 82.8749C37.5 82.6249 36.875 81.4999 36.25 81.8749Z" fill="#C9962D"/>
<path d="M52 81C52.75 81.5 53.75 82.125 54.5 83.25C54.75 83.625 55 84 55.25 84.375C56.875 84.375 58.5 84.5 60.125 84.5C63.375 85.75 66.75 87.125 70.25 88.75C73.5 90.25 76.625 91.625 79.5 93.125C83.875 84 88.125 74.875 92.5 65.625C94.125 67 96.25 68.875 98.25 71.75C100.75 75.375 102 78.75 102.5 81.125C101 85.875 99 91.125 96.375 96.625C93.25 103.25 89.875 108.875 86.75 113.5C84.375 113.5 81.75 113.25 78.75 112.75C74.375 112 70.75 110.875 67.875 109.625C68.5 112.125 69.125 114.875 69.625 117.625C70.5 122.125 71.125 126.375 71.5 130.375C73 133.875 74.625 137.5 76 141.5C77.5 145.625 78.875 149.625 80 153.375C78.25 153.875 76.75 154.625 75.75 155.375C73.125 157.25 72.5 159 69.875 160.5C68.375 161.375 66.875 161.875 65.625 162C65.5 152.25 64.5 140.375 61.625 127C59.25 115.75 56 105.875 52.75 97.875C52.625 92.25 52.25 86.625 52 81Z" fill="#E4B34D"/>
<path d="M15.625 161.125C16.75 162.875 18.625 165 21.25 167C22.75 168.125 24.125 168.875 25.25 169.375C25.625 169.375 25.875 169.375 26.25 169.375C26.375 167.875 26.5 166.375 26.625 164.875C25.875 164 23.875 162 20.75 161.25C18.625 160.75 16.75 160.875 15.625 161.125Z" fill="#C9962D"/>
<path d="M73.625 157.25C74.125 156.625 74.875 156 75.875 155.375C77.5 154.25 79 153.75 80.125 153.375C80 154.25 79.875 155.5 79.125 156.875C77.75 159.625 75.25 160.875 74.5 161.25C74.25 159.875 74 158.625 73.625 157.25Z" fill="#C9962D"/>
<path d="M54.6252 100.25C55.8752 98.2499 56.5002 95.9999 56.1252 93.7499C56.0002 93.2499 55.5002 91.9999 56.1252 91.7499C56.8752 91.3749 58.3752 92.1249 59.0002 92.2499C59.3752 92.3749 59.8752 91.8749 59.7502 91.4999C58.2502 87.1249 55.6252 83.2499 52.1252 80.2499C51.5002 79.7499 50.6252 80.6249 51.2502 81.1249C54.6252 83.9999 57.1252 87.6249 58.6252 91.8749C58.8752 91.6249 59.1252 91.3749 59.3752 91.1249C58.1252 90.6249 55.2502 89.6249 54.7502 91.7499C54.5002 92.9999 55.1252 94.3749 55.1252 95.6249C55.1252 97.1249 54.5002 98.4999 53.6252 99.7499C53.1252 100.375 54.1252 101 54.6252 100.25Z" fill="#C9962D"/>
<path d="M63.1257 97.7499C65.2507 101.5 66.6257 105.625 67.2507 109.875C67.3757 110.625 68.5007 110.375 68.3757 109.5C67.7507 105.125 66.2507 101 64.1257 97.1249C63.7507 96.4999 62.7507 96.9999 63.1257 97.7499Z" fill="#C9962D"/>
<path d="M81.3754 99.7499C81.6254 97.2499 81.1254 94.7499 79.8754 92.4999C79.7504 92.7499 79.5004 93.1249 79.3754 93.3749C79.5004 93.3749 79.5004 93.3749 79.6254 93.3749C79.8754 93.3749 80.0004 93.4999 80.2504 93.4999C80.8754 93.7499 81.3754 93.9999 81.7504 94.3749C82.7504 95.2499 83.2504 96.4999 83.3754 97.7499C83.3754 98.4999 84.6254 98.4999 84.6254 97.7499C84.6254 96.1249 83.8754 94.6249 82.6254 93.4999C81.7504 92.6249 80.5004 92.1249 79.2504 91.9999C78.7504 91.8749 78.5004 92.4999 78.7504 92.8749C79.8754 94.8749 80.2504 97.2499 80.0004 99.4999C80.0004 99.8749 80.2504 100.125 80.6254 100.125C81.1254 100.375 81.2504 100.125 81.3754 99.7499Z" fill="#C9962D"/>
<path d="M27.876 112C25.501 115.5 24.001 119.375 23.501 123.5C23.376 124.25 24.626 124.25 24.751 123.5C25.251 119.625 26.751 115.875 29.001 112.625C29.376 112 28.251 111.375 27.876 112Z" fill="#C9962D"/>
<path d="M15.25 124.125C22.5 124.375 29.75 124.75 36.875 125C37.625 125 37.625 123.875 36.875 123.75C29.625 123.5 22.375 123.125 15.25 122.875C14.5 122.875 14.5 124.125 15.25 124.125Z" fill="#C9962D"/>
<path d="M53.0006 55.1249C54.2506 58.3749 55.3756 62.4999 56.0006 67.3749C56.3756 70.1249 56.5006 72.7499 56.5006 74.9999C56.1256 75.9999 54.8756 78.4999 52.2506 80.1249C52.0006 80.2499 50.6256 81.1249 48.5006 81.3749C43.6256 82.1249 39.2506 79.8749 37.6256 78.8749C37.2506 77.8749 36.8756 76.7499 36.6256 75.4999C36.5006 75.1249 36.5006 74.7499 36.5006 74.4999C35.0006 74.9999 33.2506 74.8749 32.2506 73.8749C30.3756 72.1249 31.2506 68.6249 32.1256 68.3749C32.8756 68.2499 34.2506 70.3749 34.2506 70.3749C30.7506 65.8749 29.3756 60.3749 31.3756 56.7499C33.8756 51.2499 44.0006 48.7499 53.0006 55.1249Z" fill="#E2B18A"/>
<path d="M53 55.1248C52.5 54.6248 51.75 54.1248 50.875 54.1248C49.5 54.1248 48.875 55.2498 47.75 55.8748C44.75 57.6248 41.875 53.4998 37.125 54.6248C35 55.1248 32.75 56.4998 32.625 58.1248C32.625 58.4998 32.75 58.9998 33.125 59.8748C33.75 61.6248 34.25 61.9998 34.625 62.9998C35 64.3748 34.375 64.9998 34.25 66.3748C34.125 67.4998 34.375 69.2498 35.75 71.4998C35.875 71.3748 35.875 71.2498 36 71.1248C36.25 70.4998 36.125 69.8748 36 69.4998C35.875 68.8748 35.5 67.4998 35.625 66.2498C35.75 65.1248 36.125 65.3748 36.25 64.3748C36.375 62.7498 35.25 62.2498 35.375 60.6248C35.5 59.6248 36 58.8748 36.25 58.6248C37 57.6248 38.125 57.2498 39.25 56.9998C44 55.9998 45.625 58.4998 48.25 56.9998C49 56.6248 50 55.7498 51.75 55.3748C52.125 55.1248 52.625 55.1248 53 55.1248Z" fill="#B48262"/>
<path d="M55.1257 62.2499C55.6257 61.9999 56.7507 61.4999 57.1257 60.3749C57.8757 58.6249 56.8757 55.9999 54.3757 54.4999C54.3757 53.7499 54.2507 51.6249 52.8757 50.1249C51.7507 48.9999 50.5007 48.8749 47.8757 48.4999C46.0007 48.2499 43.8757 47.9999 41.2507 48.7499C39.5007 49.2499 38.1257 49.9999 37.2507 50.6249C36.7507 50.4999 33.6257 49.9999 31.1257 51.9999C28.6257 53.9999 27.6257 57.4999 28.6257 60.8749C26.5007 62.4999 25.6257 64.9999 26.3757 67.1249C27.0007 68.7499 28.5007 69.4999 28.8757 69.7499C28.8757 70.2499 28.7507 72.1249 30.0007 73.7499C31.5007 75.4999 34.0007 76.1249 36.5007 75.3749C36.3757 74.8749 36.3757 74.3749 36.2507 73.8749C34.5007 74.3749 32.7507 73.8749 31.8757 72.7499C30.8757 71.3749 31.0007 69.1249 31.8757 68.7499C32.0007 68.7499 32.6257 68.4999 34.0007 70.2499C34.1257 70.9999 34.5007 71.4999 35.0007 71.6249C35.2507 71.6249 35.5007 71.6249 35.6257 71.4999C36.3757 70.8749 35.0007 68.2499 34.8757 67.8749C34.7507 67.4999 34.7507 66.8749 34.7507 66.2499C34.8757 64.9999 35.2507 64.8749 35.2507 63.8749C35.2507 62.8749 34.6257 61.9999 34.0007 60.9999C33.3757 59.9999 33.1257 59.9999 33.0007 59.4999C32.7507 58.3749 33.7507 57.1249 34.6257 56.3749C37.0007 54.6249 40.7507 55.3749 43.3757 55.9999C44.8757 56.2499 45.8757 56.7499 47.5007 56.3749C48.7507 56.1249 49.6257 55.4999 50.2507 54.9999C50.3757 54.8749 50.8757 54.4999 51.5007 54.4999C52.3757 54.4999 52.8757 54.9999 53.0007 54.9999C53.5007 56.2499 53.8757 57.6249 54.2507 59.1249C54.6257 60.2499 54.8757 61.2499 55.1257 62.2499Z" fill="#281B10"/>
<path d="M45.0002 53.6249C43.5002 53.2499 43.5002 51.9999 42.1252 51.7499C41.0002 51.6249 40.6252 52.3749 38.6252 52.9999C36.0002 53.8749 35.2502 53.1249 33.5002 54.1249C33.0002 54.3749 31.7502 55.1249 31.1252 56.7499C30.2502 58.9999 31.5002 61.1249 31.7502 61.3749C28.7502 62.2499 27.0002 64.7499 27.2502 66.8749C27.5002 68.3749 28.5002 69.3749 29.0002 69.7499C29.0002 70.2499 28.8752 72.1249 30.1252 73.7499C31.6252 75.4999 34.1252 76.1249 36.6252 75.3749C36.5002 74.8749 36.5002 74.3749 36.3752 73.8749C34.6252 74.3749 32.8752 73.8749 32.0002 72.7499C31.0002 71.3749 31.1252 69.1249 32.0002 68.7499C32.1252 68.7499 32.7502 68.4999 34.1252 70.2499C34.2502 70.9999 34.6252 71.4999 35.1252 71.6249C35.3752 71.6249 35.6252 71.6249 35.7502 71.4999C36.5002 70.8749 35.1252 68.2499 35.0002 67.8749C34.8752 67.4999 34.8752 66.8749 34.8752 66.2499C35.0002 64.9999 35.3752 64.8749 35.3752 63.8749C35.3752 62.8749 34.7502 61.9999 34.1252 60.9999C33.5002 59.9999 33.2502 59.9999 33.1252 59.4999C32.8752 58.3749 33.8752 57.1249 34.7502 56.3749C37.2502 54.4999 41.6252 55.2499 43.5002 55.9999C43.8752 56.1249 44.7502 56.4999 46.0002 56.4999C46.6252 56.4999 47.1252 56.3749 47.5002 56.2499C47.7502 56.1249 48.2502 55.9999 48.7502 55.6249C49.8752 54.9999 50.1252 54.4999 50.8752 54.3749C51.3752 54.2499 52.0002 54.2499 53.0002 54.8749C51.8752 53.2499 50.7502 52.7499 50.0002 52.6249C47.8752 52.4999 46.8752 54.2499 45.0002 53.6249Z" fill="#140D07"/>
<path d="M33.5009 70.8748C33.2509 70.4998 33.1259 70.2498 32.7509 69.9998C32.3759 69.7498 31.7509 69.7498 31.7509 69.8748C31.5009 70.2498 33.6259 71.8748 33.8759 71.7498C34.0009 71.7498 33.7509 71.1248 33.5009 70.8748Z" fill="#B48262"/>
<path d="M37.0009 50.4998C38.0009 49.7498 39.0009 49.2498 40.1259 48.8748C41.2509 48.4998 42.2509 48.1248 43.3759 47.8748C45.5009 47.3748 47.7509 47.3748 49.8759 48.1248C50.3759 48.3748 51.0009 48.6248 51.3759 49.1248C51.7509 49.4998 51.8759 50.1248 51.6259 50.6248C51.5009 50.8748 51.2509 50.7498 51.3759 50.4998C51.5009 49.9998 51.3759 49.4998 51.0009 49.1248C50.6259 48.7498 50.1259 48.4998 49.6259 48.3748C48.6259 47.9998 47.6259 47.8748 46.6259 47.8748C44.5009 47.8748 42.5009 48.3748 40.6259 48.9998C39.3759 49.3748 38.2509 49.8748 37.2509 50.6248C37.1259 50.8748 36.8759 50.6248 37.0009 50.4998Z" fill="#281B10"/>
<path d="M29.8755 54.9999C28.6255 56.7499 27.2505 58.9999 28.1255 61.1249C28.3755 61.6249 28.6255 62.1249 29.1255 62.4999C29.2505 62.6249 29.1255 62.8749 29.0005 62.7499C28.1255 62.1249 27.6255 61.1249 27.5005 59.9999C27.3755 58.7499 27.7505 57.6249 28.3755 56.6249C28.7505 55.9999 29.1255 55.3749 29.5005 54.7499C29.7505 54.6249 30.0005 54.8749 29.8755 54.9999Z" fill="#281B10"/>
<path d="M53.875 54.1248C54.375 53.8748 55 53.8748 55.625 54.1248C56.125 54.3748 56.625 54.8748 56.875 55.3748C57.125 55.8748 57.375 56.6248 57.125 57.1248C56.875 57.6248 56.375 57.9998 55.875 57.8748C55.625 57.8748 55.75 57.4998 56 57.6248C56.375 57.7498 56.875 57.3748 56.875 56.8748C57 56.3748 56.75 55.8748 56.5 55.3748C56 54.6248 55 53.8748 54.125 54.3748C53.875 54.4998 53.625 54.2498 53.875 54.1248Z" fill="#281B10"/>
<path d="M52.1254 79.6247C52.0004 79.4997 51.7504 79.3747 49.8754 79.8747C48.2504 80.2497 47.5004 80.4997 47.3754 80.9997C47.2504 81.4997 48.0004 81.9997 48.0004 82.1247C49.0004 82.8747 50.7504 82.7497 51.6254 81.6247C52.2504 80.9997 52.5004 79.9997 52.1254 79.6247Z" fill="#281B10"/>
<path d="M51.25 79.9999C50.875 79.8749 50.5 80.2499 49.625 80.6249C48.875 80.9999 48.125 81.1249 47.625 81.1249C47.625 81.3749 47.75 81.7499 48 81.9999C48.875 82.9999 51.25 82.6249 51.625 81.4999C51.875 80.8749 51.625 80.1249 51.25 79.9999Z" fill="#140D07"/>
<path d="M47.7507 60.9999L49.2507 67.3749C49.2507 67.6249 49.2507 67.9999 49.3757 68.2499C49.5007 68.3749 49.7507 68.4999 49.8757 68.6249C50.1257 68.8749 50.3757 68.9999 50.5007 69.2499C50.7507 69.4999 50.8757 69.8749 50.8757 70.2499C50.7507 70.9999 49.7507 71.3749 49.0007 71.6249C48.7507 71.7499 48.6257 71.2499 48.8757 71.1249C49.2507 70.9999 49.7507 70.8749 50.1257 70.6249C50.5007 70.2499 50.3757 69.9999 50.1257 69.6249C49.8757 69.2499 49.5007 68.9999 49.1257 68.6249C48.8757 68.3749 48.8757 67.7499 48.7507 67.3749L47.3757 61.1249C47.1257 60.7499 47.6257 60.6249 47.7507 60.9999Z" fill="#281B10"/>
<path d="M49.5 59.2498C49.25 58.9998 49.5 58.4998 49.75 58.2498C50.125 57.6248 51.125 57.3748 51.875 57.4998C53 57.7498 53.75 58.9998 53.5 59.3748C53.375 59.6248 52.625 58.8748 51.375 58.9998C50.25 58.9998 49.625 59.4998 49.5 59.2498Z" fill="#281B10"/>
<path d="M38.8761 60.4997C39.5011 59.8747 40.6261 58.9997 41.6261 59.4997C42.0011 59.6247 42.3761 60.1247 42.3761 60.4997C42.2511 60.9997 41.2511 60.8747 40.0011 61.6247C38.7511 62.3747 38.3761 63.3747 38.1261 63.2497C37.7511 62.9997 37.8761 61.6247 38.8761 60.4997Z" fill="#281B10"/>
<path d="M51.5 62.7498C51.75 62.7498 52.25 63.6248 52.25 64.4998C52.25 65.1248 52.125 65.8748 51.875 65.8748C51.625 65.8748 51.125 64.9998 51.125 64.1248C51.125 63.6248 51.25 62.7498 51.5 62.7498Z" fill="#281B10"/>
<path d="M42.5 64.4998C42.875 64.4998 43 65.3748 43.125 65.8748C43.125 66.4998 43 67.3748 42.75 67.3748C42.375 67.3748 41.875 66.6248 41.875 65.8748C41.875 65.1248 42.25 64.4998 42.5 64.4998Z" fill="#281B10"/>
<path d="M49.376 58.2498C49.376 58.3748 49.376 58.3748 49.251 58.4998V58.6248C49.251 58.6248 49.251 58.6248 49.251 58.7498C49.251 58.8748 49.251 58.9998 49.251 59.1248C49.251 59.1248 49.251 59.1248 49.251 59.2498V59.3748C49.251 59.4998 49.251 59.6248 49.126 59.6248C49.001 59.6248 48.876 59.6248 48.876 59.4998C48.751 59.1248 48.876 58.6248 49.001 58.2498C49.001 58.2498 49.001 58.1248 49.126 58.1248C49.126 58.1248 49.251 58.1248 49.376 58.1248C49.376 57.9998 49.501 58.1248 49.376 58.2498Z" fill="#281B10"/>
<path d="M42 58.8748C42.5 59.1248 42.75 59.6248 43 59.9998C43 60.1248 43 60.2498 42.875 60.2498C42.75 60.2498 42.625 60.2498 42.625 60.1248C42.625 60.1248 42.625 59.9998 42.5 59.9998C42.5 59.9998 42.5 59.8748 42.375 59.8748C42.375 59.8748 42.375 59.8748 42.25 59.7498L42.125 59.6248C42 59.6248 42 59.4998 41.875 59.4998C41.75 59.3748 41.75 59.2498 41.75 59.1248C41.75 58.8748 41.875 58.8748 42 58.8748Z" fill="#281B10"/>
<path d="M52.25 65.3748H52.125H52C52 65.3748 51.875 65.3748 51.875 65.2498C51.875 65.2498 51.875 65.1248 51.75 65.1248V64.9998V64.8748C51.75 64.8748 51.75 64.7498 51.875 64.7498H52H52.125H52.25H52.375C52.375 64.7498 52.5 64.7498 52.5 64.8748C52.5 64.8748 52.5 64.9998 52.625 64.9998V65.1248V65.2498C52.625 65.2498 52.625 65.3748 52.5 65.3748H52.375C52.25 65.3748 52.25 65.3748 52.25 65.3748Z" fill="white"/>
<path d="M43.25 66.8748H43H42.875C42.875 66.8748 42.75 66.8748 42.75 66.7498C42.75 66.7498 42.75 66.6248 42.625 66.6248V66.4998V66.3748C42.625 66.3748 42.625 66.2498 42.75 66.2498H42.875H43H43.25H43.375C43.375 66.2498 43.5 66.2498 43.5 66.3748C43.5 66.3748 43.5 66.4998 43.625 66.4998V66.6248V66.7498C43.625 66.7498 43.625 66.8748 43.5 66.8748H43.375H43.25Z" fill="white"/>
<path d="M51.0017 74.8748C51.2517 75.6248 49.8767 77.2498 48.0017 77.2498C46.0017 77.2498 44.0017 75.1248 44.2517 74.3748C44.3767 73.9998 45.1267 73.9998 46.5017 73.9998C48.8767 74.1248 50.7517 74.1248 51.0017 74.8748Z" fill="black"/>
<path d="M50.252 74.6248C50.002 74.7498 49.502 74.9998 48.877 75.1248C48.752 75.1248 48.252 75.1248 47.252 74.9998C46.752 74.8748 46.002 74.6248 45.252 74.3748C45.752 74.3748 46.377 74.3748 46.877 74.3748C48.252 74.3748 49.252 74.4998 50.252 74.6248Z" fill="white"/>
<path d="M48.752 76.9998C48.627 76.8748 48.377 76.2498 47.752 75.9998C46.752 75.6248 45.877 76.1248 45.752 76.2498C46.002 76.4998 46.502 76.8748 47.252 76.9998C47.877 77.1248 48.502 77.1248 48.752 76.9998Z" fill="#FFC6C5"/>
<path d="M29 100.375C29.75 100.5 30.875 100.5 32.125 100.125C33.5 99.625 34 98.875 35 98.75C35.75 98.75 36.75 99 38.125 100.5C38.375 101.875 38.625 103.25 38.875 104.625C38 102.75 37 102.125 36.25 102C34.75 101.5 33.75 102.5 32 102.25C30.75 102 29.75 101.125 29 100.375Z" fill="#C9962D"/>
<path d="M36.9998 82.25C35.7498 82.5 34.1248 83.125 33.9998 84.125C33.8748 85 34.9998 85.5 35.7498 87.125C36.6248 89.125 35.3748 90.25 35.8748 92.75C35.9998 93.75 36.4998 95.125 37.8748 96.75C37.4998 91.875 37.2498 87.125 36.9998 82.25Z" fill="#C9962D"/>
<path d="M55.625 85.625C55.25 85 54.75 84.125 54 83.375C53.25 82.5 52.5 82 51.875 81.625C52.125 85.25 52.375 88.75 52.5 92.375C53 89.875 53.625 89.125 54.25 89C54.625 88.875 54.875 89.125 55.25 89C55.875 88.625 55.75 87.125 55.625 85.625Z" fill="#C9962D"/>
<path d="M54.375 100.625C54.75 99.4999 55.25 98 55.5 96C55.75 93.5 55.25 91.9999 56 91.3749C56.5 90.9999 57.375 91 59.375 92.25C58.875 92.375 58.25 92.4999 57.875 92.9999C57.25 93.8749 57.75 95 57.625 96C57.625 97.125 57 98.7499 54.375 100.625Z" fill="#C9962D"/>
<path d="M29 112.375C28.75 113 27.875 116.125 29.5 119.25C31.75 123.5 36.75 123.875 37 123.875C32.625 123.75 28.25 123.625 24 123.5C24.125 122.375 24.375 120.875 24.875 119.375C25.875 116.125 27.75 113.75 29 112.375Z" fill="#C9962D"/>
<path d="M19.3752 127.75C21.0002 126.5 22.7502 125.25 24.3752 124.125C24.6252 123.875 24.7502 123.625 24.6252 123.25C24.5002 123 24.0002 122.875 23.7502 123C22.1252 124.25 20.3752 125.5 18.7502 126.625C18.5002 126.875 18.3752 127.125 18.5002 127.5C18.6252 127.75 19.0002 127.875 19.3752 127.75Z" fill="#C9962D"/>
<path d="M1.12508 132.5C0.875075 130.875 0.875076 129.75 1.00008 128.625C1.12508 126.625 1.62508 124.625 2.62508 122.375C4.37508 118.25 6.62508 114.75 8.50008 112.25C3.62508 121.625 2.75008 130 6.62508 133.625C7.75008 134.75 9.50008 135.625 15.0001 135.875C20.1251 136 28.5001 135.5 39.0001 131.125C38.8751 131.75 38.7501 132.375 38.5001 133.125C38.0001 134.625 37.3751 135.875 36.7501 136.875C30.8751 138.625 26.0001 139.75 22.5001 140.25C18.3751 141 15.8751 141.125 13.2501 141.125C10.7501 141.125 8.62508 140.875 7.25008 140.625C6.50008 140.375 5.50008 139.75 4.37508 138.875C2.00008 136.375 1.37508 133.5 1.12508 132.5Z" fill="#C9962D"/>
<path d="M70.3752 122.25C70.1252 122.375 69.2502 122.75 68.8752 123.75C68.2502 125.25 69.1252 126.625 69.2502 126.625C70.0002 127.875 70.7502 129.125 71.6252 130.375C71.5002 129 71.3752 127.625 71.1252 126.125C70.8752 124.75 70.6252 123.5 70.3752 122.25Z" fill="#C9962D"/>
<path d="M37.375 103.875C37.625 110.5 37.875 117 38.125 123.625C38.75 123 39.375 122.375 39.875 121.875C39.75 117.75 39.25 113.125 38.25 108.125C38 106.625 37.625 105.125 37.375 103.875Z" fill="#C9962D"/>
<path d="M40.5 134.25C40.375 137.5 40.125 140.875 39.75 144.375C38.75 153 37 160.625 35.125 167.25C33.875 167.375 33 167 32.625 166.75C31.625 166.125 31.625 165.125 30.5 164.375C29.875 163.875 29.25 163.75 28.75 163.625C29.625 163 30.875 162.125 32.125 160.75C35 157.5 35.875 154.125 37 148.875C38.25 143.125 39.125 138 39.875 134C39.875 134.125 40.125 134.25 40.5 134.25Z" fill="#C9962D"/>
<path d="M57.7517 104.5C57.5017 104.625 62.2517 114.875 65.3767 129.125C68.0017 141.25 68.5017 151.5 68.3767 158.5C69.2517 158.75 69.6267 158.625 70.0017 158.5C70.3767 158.25 70.5017 157.875 71.0017 157.25C71.3767 156.875 71.6267 156.625 71.8767 156.5C71.3767 149.875 70.2517 140 67.0017 128.625C63.2517 114.875 58.0017 104.375 57.7517 104.5Z" fill="#C9962D"/>
<path d="M37.625 124.5C37.875 124 38.125 123.125 38.625 122.375C39.375 121.25 40.125 120 41.125 120C41.75 120 42.5 120.625 42.5 121.25C42.75 122.625 39.5 123.875 37.625 124.5Z" fill="#B48262"/>
<path d="M37.25 124.875C38.5 123.75 39.875 122.625 41.375 121.375C42.625 120.375 43.875 119.5 45.125 118.75C45.875 118.75 47.375 119 48.875 120.125C49.875 120.875 50.375 121.75 50.75 122.25C50.375 122.875 50 123.625 49.625 124.25C49.75 124.25 50.875 124.625 51.375 125.75C51.75 126.75 51.5 128 50.5 128.75C50.625 129.125 50.625 129.5 50.75 129.875C50.875 130.375 51 131.375 50.5 132.125C50 132.875 49.125 133.125 48.5 133.25C45.25 134 38.5 134.625 37.75 134.625C38.125 133.875 39.25 131.75 39 128.875C38.75 127 37.875 125.5 37.25 124.875Z" fill="#E2B18A"/>
<path d="M37.875 134.875C38 134.375 38.25 133.875 38.375 133.375C38.625 132.625 38.875 131.875 39 131.125C39.75 131.625 41 132.25 42.625 132.5C47 133.125 50.25 130.125 50.75 129.625C50.875 130 51.25 131 50.875 131.875C50.625 132.375 50.375 132.75 50.25 132.875C48.75 134.25 45.25 134.375 42 134.625C40.875 134.5 39.5 134.625 37.875 134.875Z" fill="#B48262"/>
<path d="M146.75 85.125C146.875 84.75 148.375 81.25 151.25 79.875C152.75 79.125 154.125 79.125 154.125 79.125C154.875 79.125 155.5 79.25 155.875 79.25C156.25 81.625 156.375 83.75 156.75 85.25C157.5 89.875 158 90.875 158.625 91.75C159.875 93.375 161.5 94.25 162.75 94.75C162.625 99 162.625 103.375 162.75 107.875C163.125 123.25 163.875 138 165.125 152C164.375 153 160.125 159 152.625 159.75C147 160.375 142 157.875 139 154.875C130.375 146.375 133.625 130.5 136.75 116.25C138.75 106.875 141.5 99.25 143.625 94.125L147.75 91.625C147.875 91 148.25 90.25 148.125 89C147.875 87.25 147.125 85.75 146.75 85.125Z" fill="#FFC39A"/>
<path d="M151.375 80.125C153.25 79.375 155.25 79.5 156 79.625C156.5 82.375 156.75 84.25 156.875 85.625C157 86.75 156.875 88.5 157.875 90.5C158 90.75 158.125 91.125 158.5 91.625C159 92.375 160.125 93.875 162.625 94.875C162.625 95 162.625 95.125 162.625 95.25C162.25 95.25 161.75 95.25 161.125 95.125C160.625 95.125 160.125 95 159.625 94.875C159.125 94.75 157.875 94.25 156.875 93.375C154.75 91.25 155.375 88.375 154.25 88.125C153.625 88 152.75 88.75 152 89.5C151.125 90.375 151 90.875 150.5 91C150 91.125 149.25 90.875 147.875 89.125C147.875 88.75 147.75 88.125 147.625 87.625C147.375 86.5 146.75 85.875 146.25 85.625C146.5 84.75 147.75 81.375 151.375 80.125Z" fill="#C5886B"/>
<path d="M133.751 121.25C133.376 126.75 133.876 131.625 134.626 135.25C140.001 134.875 145.751 134.375 151.376 134.25C155.501 134.125 159.501 133.875 163.501 133.75L164.751 106.75C163.251 106.875 160.876 107.25 158.001 107.875C153.626 108.75 151.751 109.75 149.626 110.25C146.751 110.875 142.501 111 136.251 108.125C135.251 111.625 134.126 115.875 133.751 121.25Z" fill="#604945"/>
<path d="M176 169.375C175.375 167.125 174.75 164.75 174.25 162.25C172.625 155.125 171.625 148.25 170.875 142C163.75 146.25 144.375 147 135.875 141.875C134.375 151.125 133 160.25 131.5 169.5C139 169.5 146.5 169.375 153.875 169.375C161.25 169.375 168.625 169.375 176 169.375Z" fill="#604945"/>
<path d="M166.125 124.875C166.625 128.625 167.375 132.125 168 135.5C164.875 136.875 159.375 138.75 152.375 138.625C146.75 138.5 142.25 137.25 139.375 136.125C139.75 133.5 140 130.75 140.25 127.875C140.5 123.25 140.5 119 140.375 115.125C148.25 120.625 155.75 115 164.375 110.375C164.75 115.125 165.375 119.875 166.125 124.875Z" fill="#604945"/>
<path d="M160.5 104.625C159.125 106.5 157.625 105.25 151.375 108.25C149.5 109.125 147.75 110.125 145.5 109.875C144.125 109.75 143.125 109.25 142.5 108.875C142.5 109.25 142.375 109.875 142.375 110.25C144.625 111 146.375 111.125 147.5 111C151.375 110.75 153.25 108.875 158.125 107.625C160 107.125 161.75 107 163 106.875C162.875 104.75 162.5 102.375 161.625 99.75C160.5 95.75 158.75 92.5 157.375 90.25C158.125 91.75 163.25 100.875 160.5 104.625Z" fill="#C5886B"/>
<path d="M143.5 100.375C142.375 104.125 142.125 107.5 141.875 110.25C141.5 107.875 141.5 104.375 142.75 100.25C143.875 96.6249 145.625 93.7499 146.875 92.1249C145.875 94.3749 144.625 96.9999 143.5 100.375Z" fill="#C5886B"/>
<path d="M151.375 140C155.125 140.125 157 139.25 159 140.375C160.75 141.375 162.5 144 162.125 151.875C162.375 151.875 162.75 152 163 152C163.125 149.875 163.25 147.625 163.375 145.375C163.5 142.5 163.5 139.75 163.5 137.125C160.375 137.875 156.125 138.625 151 138.375C147.5 138.25 144.5 137.75 142 137.125C141.125 136.875 140.25 136.5 139.375 136.25C138 139.5 137.875 142.375 139.25 143.375C139.5 143.5 139.875 143.75 140.25 143.75C140.25 141.5 140.375 139.125 140.375 136.875C142.875 138.25 146.625 139.75 151.375 140Z" fill="#C5886B"/>
<path d="M163.625 122C163.625 122.625 163.375 126 163.375 130.5C163.375 131.375 163.375 132.25 163.375 132.75C163.125 131.75 162.875 130.375 162.625 128.75C161.75 122.75 162.375 121.125 161.125 119.875C159.25 118.125 156.5 120.25 152.75 119.75C149.875 119.375 146 117.375 142 110.125C144.625 111.25 146.625 111.25 148.125 111.125C151.125 110.875 152.5 109.375 156.75 108.125C158.875 107.5 160.625 107.125 161.875 107C163.5 114.75 163.75 119.25 163.625 122Z" fill="#473634"/>
<path d="M141.125 168.375C140.875 160.125 140.5 152 140.25 143.75C139.875 143.625 139.5 143.5 139.25 143.375C139.25 146.5 139.25 149.75 139.5 153.125C139.75 157.5 140 161.625 140.375 165.5C139 165 137.375 164.375 135.5 164C134.375 163.75 133.375 163.625 132.375 163.5C132.125 165.125 131.875 166.625 131.625 168.25C132.5 168.625 134 169.125 136 169.25C138.25 169.375 140.125 168.75 141.125 168.375Z" fill="#473634"/>
<path d="M161.375 154.625C161.25 160.125 161.625 165.125 162.125 169.5C166.5 168.125 170.875 166.875 175.25 165.5C175.375 166.75 175.5 168.125 175.75 169.375C170.625 169.375 165.375 169.375 160.25 169.375C160.5 161.25 160.75 153 161 144.875C161.375 144.75 161.75 144.75 162.125 144.625C161.75 147.75 161.5 151.125 161.375 154.625Z" fill="#473634"/>
<path d="M153.5 161.625C153.625 161.25 153 161.25 153 161.625C153.125 164.25 153.25 166.875 153.5 169.5C153.75 169.5 153.875 169.5 154.125 169.5C153.875 166.75 153.625 164.125 153.5 161.625Z" fill="#3D2E2C"/>
<path d="M155.749 57.8751C161.874 59.0001 164.999 65.5001 165.249 65.7501C165.374 66.0001 165.499 66.1251 165.624 66.2501C168.124 72.0001 165.749 77.3751 165.249 78.3751C165.249 78.3751 166.624 78.7501 166.874 79.5001C166.999 80.5001 165.624 81.2501 164.874 81.6251C163.874 82.0001 163.124 82.0001 162.749 82.0001C161.374 83.2501 159.124 84.8751 155.749 86.0001C151.624 87.5001 147.874 87.1251 145.999 86.8751C144.749 85.5001 141.874 82.0001 141.124 76.5001C140.874 74.6251 139.999 69.2501 143.374 64.3751C143.749 64.0001 148.624 57.0001 155.749 57.8751Z" fill="#FFC49B"/>
<path d="M155.625 58.125C160.125 59 163.625 62.75 165.125 66C165.25 66.25 165.375 66.375 165.5 66.5C166.5 69.25 167.5 73 166.625 78.5C166 78.625 165.25 78.375 164.625 78.5C164.375 77.375 163.875 75.75 162.75 74C161.375 71.75 160 71.25 159 69.625C158.25 68.25 157.625 66.125 158.25 62.75C157.25 63.125 156.125 63.5 154.75 64.125C152 65.75 151.375 67.25 149.75 67.75C148.25 68.375 146 68.125 142.125 64.875C145.25 60 150.75 57 155.625 58.125Z" fill="#C6896B"/>
<path d="M158.125 67.3749C158.625 68.7499 159.5 69.7499 160.875 71.6249C161.875 73.1249 162.375 73.7499 163.25 75.1249C163.75 75.7499 163.75 76.3749 163.875 76.9999C164.125 78.4999 164 79.1249 164.5 79.3749C164.875 79.4999 165 79.1249 165.75 79.2499C166.125 79.2499 166.5 79.6249 166.75 80.1249C166.875 80.9999 165.5 81.8749 164.75 82.2499C163.75 82.4999 163 82.4999 162.625 82.4999C161.75 83.2499 160.625 83.9999 159.375 84.7499C159.25 84.8749 158.625 85.6249 157.625 85.6249C157.375 85.6249 157.125 85.6249 156.875 85.4999C157.375 87.6249 157.875 89.7499 158.375 91.8749C159.5 92.1249 160.125 92.3749 160.625 92.6249C160.75 92.7499 161 92.8749 161.375 92.9999C161.875 93.2499 162.25 93.2499 162.375 93.3749C163.125 93.3749 163.125 92.9999 164 92.8749C164.75 92.8749 165.25 93.1249 165.625 93.2499C165.625 93.2499 165.625 93.2499 165.75 93.3749C166.25 93.6249 166.75 93.8749 167.125 93.8749C168 93.4999 169.125 92.7499 169.875 91.3749C171 89.2499 170.25 87.2499 170 83.2499C169.875 81.7499 169.875 79.4999 170 76.7499C170.125 76.4999 170.25 75.7499 170.5 74.8749C170.625 74.3749 170.75 73.9999 170.75 73.2499C171 69.4999 169.625 66.4999 169.25 65.6249C168.75 64.6249 165.125 56.8749 157.125 55.8749C149.875 54.9999 143 59.9999 141.625 62.7499C141.375 63.2499 140.625 64.7499 139.25 65.4999C138.25 65.9999 137.625 65.6249 136.625 66.3749C135.75 67.1249 135.25 67.9999 135 68.8749C135.875 68.1249 138.125 66.9999 138.625 67.6249C138.875 67.8749 138.75 68.4999 138.75 68.6249C138.25 69.9999 136.375 69.7499 134.5 71.1249C133 72.1249 131.125 74.2499 131.625 75.9999C132 77.1249 133.5 77.7499 134.25 77.8749C133.375 77.9999 132.625 78.7499 132.5 79.4999C132.375 79.9999 132.5 80.6249 132.875 80.9999C133.625 81.7499 134.875 80.8749 136.25 81.7499C136.625 81.8749 137 82.2499 137.5 82.7499C138.5 83.6249 138.5 83.8749 139 84.1249C139.625 84.4999 140 83.9999 140.625 84.3749C141 84.4999 140.75 84.4999 141.625 85.2499C142.25 85.9999 142.625 86.1249 142.875 86.2499C143.375 86.4999 143.375 86.3749 144.125 86.4999C144.25 86.4999 144.375 86.4999 144.5 86.6249C144.75 86.7499 144.875 86.8749 145 86.9999C145 86.9999 145 86.9999 145.125 86.9999C145.25 87.1249 145.75 87.4999 147.125 88.3749C147.125 88.1249 147.25 87.9999 147.25 87.7499C147.25 87.4999 147.375 87.3749 147.375 87.1249C147.125 87.1249 146.875 87.1249 146.5 87.1249C145.875 86.4999 144.875 85.6249 144 84.2499C141 79.8749 140.875 75.3749 140.875 73.9999C140.75 69.8749 142.25 66.7499 143.25 65.3749C144.125 65.9999 145.5 66.4999 146.875 66.3749C148.5 66.3749 149.75 65.4999 151.75 64.1249C154 62.8749 154.5 62.2499 155.625 62.2499C156.625 62.3749 157.375 62.7499 157.875 63.2499C157.875 64.1249 157.75 65.6249 158.125 67.3749Z" fill="#3F2D20"/>
<path d="M160.875 71.25C161.375 71.875 161.625 72.125 162.125 72.75C162.5 73.25 162.875 73.875 163.375 74.75C163.875 75.375 163.875 76 164 76.625C164.25 78.125 164.125 78.75 164.625 79C165 79.125 165.125 78.75 165.875 78.875C166.25 78.875 166.625 79.25 166.875 79.75C167 80.625 165.625 81.5 164.875 81.875C163.875 82.125 163.125 82.125 162.75 82.125C161.875 83 160.5 84.125 158.75 84.875C158.125 85.125 157.625 85.375 157.125 85.5C157.25 86.375 157.25 87.375 157.375 88.25C157.625 89.375 158 90.625 158.25 91.75C158.375 91.625 158.5 91.625 158.625 91.5C159.125 91.375 159.75 91.625 160.875 92.25C161 92.375 161.375 92.5 161.625 92.625C162.125 92.875 162.5 92.875 162.625 93C163.125 93.125 163.125 92.25 164 92.125C164.625 92 165.125 92.125 165.625 92.375C165.75 92.5 165.75 92.5 166.125 92.625C166.5 92.75 166.625 92.875 166.75 93C169.25 91.125 169.75 89.75 169.875 88.625C170 87.5 169.5 87.125 168.875 84.375C168.5 82.375 168.125 81.5 168.5 80.5C168.875 79 169.625 78.75 170.375 76.25C170.625 75.375 170.875 74.875 170.875 74.375C170.875 74.375 171 73.625 171.125 72.75C171.25 71.875 170.75 69.125 168.875 65.875C166.375 61.5 162.375 59.125 160.5 58C156.375 60.75 153 61.125 150.75 60.875C148.125 60.5 146.875 59.5 145.375 60.25C143 61.5 142.25 66 140.75 66C140.5 66.125 139.875 66.125 138.875 66.25C138.625 66.375 138.375 66.375 138.125 66.5C136.75 67 136 68 135.5 68.625C136.375 67.875 138.625 66.75 139.125 67.375C139.25 67.5 139.375 67.625 139.25 68.375C139 69.75 138.125 70.75 137.125 71.75C135.375 73.625 134.75 74.625 134.75 75.375C134.875 76 135.125 76.875 136.625 77.875C136.5 77.75 135.375 78 134.875 79.125C134.875 79.125 134.5 80.25 135 80.875C135.5 81.5 135.875 81.125 136.875 81.875C137 82 137.625 82.375 138.125 82.875C139.125 83.75 139.125 84 139.625 84.25C140.25 84.625 140.625 84.125 141.25 84.5C141.625 84.625 141.375 84.625 142.25 85.375C142.875 86.125 143.25 86.25 143.5 86.375C144 86.625 144 86.5 144.75 86.625C144.875 86.625 145.125 86.75 145.375 86.875C145.5 87 145.625 87.125 145.625 87.125C145.875 87.375 146.5 87.75 148.25 88.75C148.25 88.625 148.25 88.375 148.125 88.25C148 87.875 147.875 87.625 147.75 87.375C147.5 87.375 147.25 87.375 146.875 87.375C146.25 86.75 145.25 85.875 144.375 84.5C141.375 80.125 141.25 75.625 141.25 74.25C141.125 70.125 142.625 67 143.625 65.625C144.5 66.25 145.875 66.75 147.25 66.625C148.875 66.625 150.125 65.75 152.125 64.375C154.375 63.125 154.875 62.5 156 62.5C157 62.625 157.75 63 158.25 63.5C159.25 68.5 160.125 70.5 160.875 71.25Z" fill="#1E150F"/>
<path d="M164.875 80.75C165.625 80.875 166.25 80.25 166.25 80C166.375 79.875 165.625 79.625 165.375 79.75C164.875 79.625 164.375 80.125 164.25 80.125C164.25 80.25 164.5 80.5 164.875 80.75Z" fill="#C6896B"/>
<path d="M155.75 56C155.875 56.125 156 55.75 155.75 55.625C149.25 54.125 142.75 58 141 64.25C141.125 64.5 141.25 64.5 141.375 64.375C143.125 58.375 149.375 54.625 155.75 56Z" fill="#3F2D20"/>
<path d="M158.125 63.2499C158 63.3749 158.375 63.1249 158.125 62.8749C157.125 61.6249 155.75 60.5 154.25 61.125C153.75 61.375 153.375 61.6249 153 61.9999C152.5 62.2499 152 62.875 151.5 63.125C150.625 63.875 149.5 64.6249 148.5 65.1249C146.875 65.8749 145 65.75 143.5 65.25C143.25 65.375 143.25 65.5 143.375 65.5C145 65.75 146.5 65.875 148.125 65.5C149.25 65.25 149.875 64.6249 150.75 64.1249C151.875 63.4999 152.875 62.6249 153.75 61.9999C154.5 61.3749 155.125 61.125 156.125 61.5C157 62 157.625 62.6249 158.125 63.2499Z" fill="#3F2D20"/>
<path d="M137.5 70.5C137.625 70.375 137.5 70.125 137.375 70.375C135.625 71 133.5 71.375 132.25 72.75C131.375 73.875 131.125 75.625 132.5 76.5C132.625 76.625 132.75 76.25 132.625 76.25C132 75.875 131.625 75 131.875 74.25C131.875 73.5 132.375 72.75 133 72.375C134.25 71.375 136 71.125 137.5 70.5Z" fill="#3F2D20"/>
<path d="M134 78.75C134.125 78.875 134.125 78.625 134 78.375C133.25 78.375 132.375 78.375 132 79.125C131.875 79.875 132.375 80.5 132.75 80.875C132.875 81 133.125 80.625 132.875 80.5C132.625 80.125 132.125 79.75 132.375 79.25C132.75 78.625 133.5 78.625 134 78.75Z" fill="#3F2D20"/>
<path d="M169.75 78.25C169.75 78.125 169.625 78.25 169.25 78.625C169.375 80.25 170.375 81.625 171.125 83.125C171.5 83.875 171.75 84.75 171.875 85.625C171.875 86.75 171.625 87.875 171 88.75C171 88.875 171.25 89 171.375 88.875C172 87.75 172.5 86.875 172.375 85.75C172.5 84.875 172.25 84.125 172 83.25C171.125 81.625 169.875 80 169.75 78.25Z" fill="#3F2D20"/>
<path d="M167.124 93.5C167.374 93.375 167.249 93.25 167.249 93.25C166.624 93.375 166.124 93.25 165.499 93.25C165.249 93.375 164.874 93.375 164.749 93.25C164.374 93.125 164.249 93 163.999 92.75C163.874 92.625 163.749 93 163.874 93C163.999 93.25 164.249 93.375 164.624 93.5C164.749 93.625 165.124 93.625 165.374 93.5C165.874 93.375 166.499 93.5 167.124 93.5Z" fill="#3F2D20"/>
<path d="M147.625 73.3749C147.25 74.2499 146.875 75.2499 146.625 76.1249C146.75 76.1249 146.75 75.9999 146.875 75.9999C146.375 75.9999 145.75 76.3749 145.625 76.9999C145.5 77.6249 146 78.1249 146.625 78.1249C146.875 78.1249 147 77.7499 146.75 77.7499C146.375 77.7499 146 77.4999 146 76.9999C146.125 76.6249 146.5 76.3749 146.875 76.3749C147 76.3749 147 76.3749 147.125 76.2499C147.5 75.3749 147.875 74.3749 148.125 73.4999C148.125 73.2499 147.75 73.1249 147.625 73.3749Z" fill="black"/>
<path d="M157.875 72.75C158.25 72.75 157.375 69.875 156.25 70.25C156.25 70.625 157.75 72.875 157.875 72.75Z" fill="#281B10"/>
<path d="M143.499 68C143.249 67.75 145.874 66.25 146.499 67.375C146.249 67.75 143.624 68.125 143.499 68Z" fill="#281B10"/>
<path d="M152.5 74.375C152.25 74.25 151.875 74.875 151.75 75.25C151.625 75.5 151.375 76.125 151.625 76.25C151.875 76.375 152.375 76.125 152.625 75.75C152.875 75.25 152.75 74.375 152.5 74.375Z" fill="#1E150F"/>
<path d="M151.5 75.875C151.5 76 151.5 76 151.5 75.875C151.625 75.875 151.625 75.875 151.625 76H151.75H151.875C151.875 76 152 76 152 75.875C152 75.875 152 75.875 152 75.75V75.625C152 75.625 152 75.625 152 75.5L151.875 75.375H151.75H151.625H151.5C151.5 75.375 151.375 75.375 151.375 75.5C151.375 75.5 151.375 75.5 151.375 75.625V75.75C151.375 75.75 151.375 75.75 151.5 75.875Z" fill="white"/>
<path d="M141.25 70.875C141.375 71 141.5 70.75 141.25 70.625C141 70.5 140.5 70.5 140.25 70.375L140.125 70.5L140.25 70.625C140.75 70.625 141 70.75 141.25 70.875Z" fill="#6D5B5A"/>
<path d="M147.375 73.5C147.125 73.625 147.125 73.625 147.25 73.75C147.5 73.875 147.75 74 148 74.125C148.125 74.25 148.25 74 148.25 74C148.375 73.875 148.125 73.75 148.125 73.75C147.875 73.75 147.75 73.75 147.375 73.5C147.25 73.5 147.25 73.5 147.375 73.5Z" fill="#6D5B5A"/>
<path d="M157.875 76.875C157.75 76.75 157.75 77 157.75 77C160.125 77.625 162.375 78.375 164.625 79.25C164.75 79.375 164.875 79.25 164.75 79.125C162.5 78.5 160.125 77.75 157.875 76.875Z" stroke="#6D5B5A" stroke-width="0.2384" stroke-miterlimit="10"/>
<path d="M149 81.1251C150.125 81.1251 150.625 81.2501 150.75 81.3751C150.875 81.8751 149.5 83.1251 148 83.1251C146.625 83.0001 145.25 81.7501 145.5 81.3751C145.75 81.0001 147 81.1251 149 81.1251Z" fill="black"/>
<path d="M148.375 81.2501C149 81.2501 149.625 81.2501 150.25 81.3751C149.75 81.6251 148.875 82.0001 147.875 82.0001C147.5 82.0001 147.125 81.8751 146.75 81.8751C146.625 81.8751 146.625 81.8751 146.5 81.7501C146.25 81.6251 146.125 81.5001 146 81.3751C146.75 81.2501 147.625 81.2501 148.375 81.2501Z" fill="white"/>
<path d="M147.875 83.125C148.375 83.25 148.875 83 149.125 82.875C149.375 82.75 149.625 82.625 149.75 82.5C149.625 82.5 149.375 82.375 149.25 82.375C148.75 82.25 148.25 82.375 148 82.375C147.625 82.5 147.375 82.625 147.125 82.75C147.125 82.875 147.375 83.125 147.875 83.125Z" fill="#FFC6C5"/>
<path d="M143.875 71.875C143.625 71.875 143.375 72.375 143.25 72.75C143.125 73 143 73.625 143.25 73.75C143.5 73.875 144 73.625 144.125 73.125C144.375 72.75 144.125 72 143.875 71.875Z" fill="#1E150F"/>
<path d="M143.125 73.625C143.25 73.625 143.25 73.625 143.25 73.625H143.375C143.375 73.625 143.5 73.625 143.5 73.5V73.375C143.5 73.375 143.5 73.375 143.5 73.25V73.125C143.5 73.125 143.5 73.125 143.5 73L143.375 72.875H143.25H143.125C143.125 72.875 143 72.875 143 73V73.125C143 73.125 143 73.125 143 73.25V73.375C143 73.375 143 73.375 143 73.5C143 73.625 143.125 73.625 143.125 73.625Z" fill="white"/>
<g opacity="0.28">
<path d="M148.874 73.1249C152.374 67.1249 161.249 72.2499 157.124 78.1249C153.874 82.3749 145.749 78.1249 148.874 73.1249Z" fill="white"/>
</g>
<path d="M148.624 73.125C152.374 67.125 161.249 72.125 156.999 78.25C153.749 82.625 145.749 78.125 148.624 73.125Z" stroke="#6D5B5A" stroke-width="0.1954" stroke-miterlimit="10"/>
<g opacity="0.28">
<path d="M147.499 73.1248C148.874 66.6248 140.749 65.2498 139.749 71.9998C139.124 76.9998 146.374 78.4998 147.499 73.1248Z" fill="white"/>
</g>
<path d="M147.5 72.9999C148.875 66.4999 140.75 65.1249 139.75 72.1249C139.25 77.1249 146.375 78.6249 147.5 72.9999Z" stroke="#6D5B5A" stroke-width="0.1706" stroke-miterlimit="10"/>
<path d="M182.5 45.25C179.25 45 178 44.125 177.625 43.25C176.875 41.75 178.125 40.5 177.25 39.125C176.375 37.75 174.625 38.25 173.75 36.625C173.375 35.875 173.25 34.75 173.75 34.375C174.375 33.875 176.125 34.5 178 36C177.75 35.125 177.5 34.25 177.25 33.375C177.25 33.25 177.125 32.875 177.375 32.375C177.5 32 177.875 31.75 178 31.625C179 31.25 180.625 30.625 182.625 30.5C184.125 30.375 185.125 30.375 186.125 30.875C188.375 32 188.875 35 189.375 38.875C189.625 40.625 189.875 43.25 189.75 46.5C187.125 46.125 184.75 45.75 182.5 45.25Z" fill="#FFC49B"/>
<path d="M177.25 36.75C177.875 38 178.5 39.125 179.25 40.375C179.75 41.25 180.75 41.5 181.625 41C182.375 40.5 182.625 39.375 182 38.625C181.375 37.875 181.125 37 181 36C181 35.625 181 35.125 181.125 34.75C181.125 34.625 181.25 34.5 181.25 34.375C181.25 34.5 181.125 34.375 181.125 34.375L181.375 34.5C182.125 35.125 182.25 36.25 181.875 37C181.625 37.625 181.125 38.25 181.25 39C181.25 39.375 181.375 39.875 181.625 40.125C182.625 41.75 184.75 42.5 186.375 43.25C187 43.5 187.25 42.5 186.625 42.25C185.625 41.875 184.75 41.375 183.75 40.875C183.25 40.625 182.75 40.25 182.5 39.75C182.375 39.625 182.25 39.375 182.25 39.375C182.25 39.25 182.25 39.25 182.125 39.125V39C182.125 38.25 182.75 37.625 182.875 36.875C183.125 36 182.875 35 182.375 34.25C182 33.75 181.125 33 180.5 33.5C179.875 34 179.875 35 179.875 35.75C179.875 36.75 180.125 37.75 180.625 38.5C180.875 38.875 181.25 39.125 181.125 39.625C181 40.125 180.5 40.25 180.125 40C179.875 39.75 179.75 39.375 179.625 39.125C179.5 38.75 179.25 38.5 179.125 38.125C178.75 37.5 178.375 36.75 178 36.125C177.875 35.625 177 36.125 177.25 36.75Z" fill="#C6896B"/>
<path d="M105.625 70.625C105.25 69.75 104.75 68.5 104.25 66.875C103.75 65.125 103.75 64.75 103.125 62.625C102.5 60.375 102.25 60.25 101.75 58.375C101.25 56.625 101.125 55.75 101.125 54.5C101.125 52.5 101.625 50.125 102.375 50.125C102.625 50.125 103.375 50.375 104.625 55.125C104.375 54.125 104.125 53.25 103.875 52.25C105 47.875 105.375 44.375 105.625 41.875C105.75 39.75 105.875 37.625 106.375 37.625C106.875 37.625 107.5 39.375 107.75 40.75C108.5 44.5 107.25 48.125 106.875 48.125C106.5 48.125 106.625 44.625 107.125 41.875C107.25 41.375 107.875 37.625 108.5 37.625C108.875 37.625 109.125 38.5 109.25 39.75C109.375 43.375 109.5 47.125 109.5 50.75C109.5 53.25 109.875 55.25 110.5 57.625C111.25 60.5 112.125 63 112.875 65C110.5 66.875 108 68.75 105.625 70.625Z" fill="#FFC49B"/>
<path d="M147.125 90.125C144.75 90.75 142.25 91.375 139.875 92.125C137.25 92.375 132.75 92.375 127.75 90.625C124.375 89.375 121.875 87.75 120.125 86.5C117.75 77.875 115.25 69.125 112.875 60.5C111.5 61.25 110 62.25 108.5 63.5C105.75 65.625 103.75 67.75 102.125 69.625C102.25 73.75 102.75 78.625 104 84C104.875 88 106 91.5 107.125 94.625C111 98.625 117.25 103.875 126.25 107.125C128.75 108 131.125 108.625 133.25 109.125C133.5 119.125 132.875 131.125 130.25 144.375C128.875 151.75 127 158.625 125.125 164.625C127.5 164 131.375 163.5 135.875 164.5C137.625 164.875 139.25 165.5 140.5 166C139.375 155.875 138.875 143.375 140 129.125C141.125 113.5 144.125 100.5 147.125 90.125Z" fill="#FA7755"/>
<path d="M157.375 88.5C158.625 88.625 160 88.75 161.25 88.875C162 89 162.625 89 163.375 89C166.125 88.125 169.625 86.75 173.5 84.25C177.625 81.625 180.5 78.75 182.375 76.5C183.25 73.125 184.25 67.375 183.125 60.25C182.125 53.75 179.625 48.875 178 46C179.125 45.25 182 43.625 185.875 43.625C190.25 43.5 193.375 45.5 194.5 46.25C196.25 50.375 198.25 56.625 198.875 64.5C199.5 71.75 198.625 77.875 197.75 82.125C194.625 86.625 190.25 92 184.25 97.125C180.75 100.125 177.375 102.625 174.25 104.625C173.75 106.75 173.25 110.25 173.5 114.375C174.125 124.25 178.5 130.375 183.125 139.125C185.875 144.375 189.5 152.25 192.75 162.75C186.25 161.25 181.875 162.25 179.125 163.5C176.25 164.75 174.75 166.25 170.875 167.75C167.375 169 164.25 169.375 162.125 169.5C160.625 144.25 161.125 130 162 121.625C162.25 119.25 163 112.875 161.75 104.625C160.875 97.625 158.875 92.125 157.375 88.5Z" fill="#FA7755"/>
<path d="M192.75 162.875C191.625 164.375 189.75 166.375 187 168C182.625 170.75 178.25 171.375 176 171.5C175.75 169.625 175.375 167.625 175.125 165.75C176.625 164.625 179.875 162.625 184.5 162.125C188.25 161.625 191.125 162.375 192.75 162.875Z" fill="#B04934"/>
<path d="M125 164.25C125.75 165.125 127 166.125 128.625 167.125C129.75 167.75 130.75 168.125 131.625 168.375C131.875 166.75 132.125 165.25 132.375 163.625C131.375 163.5 130.125 163.5 128.75 163.625C127.25 163.75 126 164 125 164.25Z" fill="#B04934"/>
<path d="M139.875 130C140 130.875 140.25 132.25 141.125 133.625C143.125 136.875 146.5 137.875 147.375 138.125C146.5 138 145.375 137.875 144.375 137.75C142.5 137.375 140.875 136.875 139.5 136.25C139.5 134.125 139.625 132 139.875 130Z" fill="#473634"/>
<path d="M148 89.9999C147.875 90.3749 147.875 90.6249 147.75 90.9999C147.625 91.2499 147.625 91.4999 147.5 91.6249C145.25 97.6249 143 105.5 142.125 115.125C141.75 119 142 120 141.625 126.5C140.875 139.625 139.375 150.875 138.875 150.875C138.5 150.875 140.5 140.875 138.25 128.875C137.75 126.375 136.875 122.75 136.875 117.75C136.75 114.875 137.125 109.875 137.125 108.875C136.875 104.5 138.25 102.125 141.875 99.9999C141.75 98.8749 139.75 97.6249 138.75 97.9999C139.25 96.8749 140.25 94.7499 142.5 92.7499C144.625 90.9999 146.75 90.2499 148 89.9999Z" fill="#B04934"/>
<path d="M143.249 92.1249C141.249 92.3749 137.499 96.3749 137.999 98.8749C138.374 98.4999 140.499 99.2499 140.874 99.8749C139.749 100.25 137.374 103.375 137.499 104.625L141.999 99.9999C141.874 98.8749 139.874 97.6249 138.874 97.9999C139.374 96.1249 141.749 93.1249 143.249 92.1249Z" fill="#E46349"/>
<path d="M139.25 97.2498L138.75 98.1248C139.75 97.7498 141.75 98.9998 141.875 100.125C142.75 98.2498 140.75 96.6248 139.25 97.2498Z" fill="#923A2D"/>
<path d="M138 153.25C142 134.5 135.625 128.25 136.625 113.625C132.5 128.75 142 136.5 138 153.25Z" fill="#E46349"/>
<path d="M139.5 102.625C134.25 111 140.75 127.875 139.25 140.875C139.25 136.375 138 130.5 137.25 126.25C136.125 117.625 136.25 114.375 137.125 105L139.5 102.625Z" fill="#923A2D"/>
<path d="M162.875 117.875C163 125 162.25 131.25 161.25 136.375C161.25 138.625 161.25 140.875 161.125 143.25C162.375 138.875 163.5 134.25 164.5 129.25C166.375 120.125 167.375 111.75 168 104.125C167.625 103.625 167.125 102.75 166.125 102C165.25 101.25 164.25 100.75 163.625 100.75C164.125 99.5 167.25 97 168.625 96.875C168.25 95.75 166.5 91.5 161.875 89.375C160 88.5 158.25 88.375 157 88.375C159.75 95.25 162.5 105.375 162.875 117.875Z" fill="#B04934"/>
<path d="M158.125 88.5C161.375 97.75 162.625 105.75 163.125 111.5C163.75 118.75 163.5 124.125 163.375 125.625C163 131 162.125 135.5 161.25 139.125C161.125 137.125 161.125 134 161.25 130.125C161.5 125.25 161.875 121.625 162 120.875C162.5 116.375 162 107.375 157.125 88.375C157.5 88.375 157.75 88.375 158.125 88.5Z" fill="#923A2D"/>
<path d="M107.376 49.4999C108.001 46.3749 108.251 43.1249 108.251 39.8749C108.251 39.1249 107.001 39.1249 107.001 39.8749C107.001 42.9999 106.751 46.1249 106.126 49.2499C106.001 49.8749 107.251 50.2499 107.376 49.4999Z" fill="#C6896B"/>
<path d="M105.5 56.125C105.125 54.75 104.75 53.375 104.5 52.125C104.375 51.75 104.125 51.625 103.75 51.75C103.375 51.875 103.25 52.125 103.375 52.5C103.75 53.875 104.125 55.25 104.375 56.5C104.5 56.875 104.75 57 105.125 56.875C105.375 56.75 105.5 56.5 105.5 56.125Z" fill="#C6896B"/>
<path d="M177.875 35.875C177.25 35.25 176.625 34.75 176.125 34.625C175.875 34.5 175.625 34.375 175.375 34.25C175.25 34.25 175.125 34.125 174.875 34.125C174.625 34.125 174.25 34 173.625 34.25C175 34.75 175.875 35.5 176.375 36C177.875 37.375 178.625 39.125 179 39.875C179.5 40.875 179.5 41.25 180 41.875C180.625 42.75 181.5 43.25 182.125 43.625C183.75 43.5 185.375 43.25 187 43.125C185.375 42.125 183.625 41.125 182 40.125C181.875 40.5 181.5 41 181 41.125C180.375 41.25 179.75 40.125 179.125 39.125C178.875 38.375 178.25 37.25 177.875 35.875Z" fill="#C6896B"/>
<path d="M175.5 100.25C174 103.25 173.25 106.625 173.125 110C173.125 110.375 173.625 110.5 173.75 110C173.875 106.75 174.75 103.25 176.125 100.25C176.25 100.125 175.625 99.8749 175.5 100.25Z" fill="#B04934"/>
<path d="M172.125 102.375C172.125 102.125 171.625 102.125 171.5 102.5C171.125 103.75 171.125 105.25 171.5 106.625C171.625 107.875 172.125 109.125 173 110.125C173.25 110.25 173.75 110.125 173.5 109.875C172.75 108.875 172.125 107.75 172 106.5C171.75 105.25 171.75 103.75 172.125 102.375Z" fill="#B04934"/>
<path d="M190.125 44.375C191.5 48.25 193.25 54 193.875 61.125C194.5 66.875 195.125 73.75 192.75 81C189 92.75 179.5 99.25 175.125 101.875C174.875 102.875 174.625 103.75 174.375 104.75C178.125 102.5 182.75 99.25 187.5 94.625C192.125 90.25 195.5 85.75 198 82.125C198.875 77.875 199.75 71.75 199.125 64.5C198.5 56.625 196.5 50.375 194.75 46.25C193.125 45.625 191.625 45 190.125 44.375Z" fill="#E46349"/>
<path d="M163.375 90.125C164.25 90.375 167.25 91.25 169 94.125C169.75 95.375 170.125 96.5 170.25 97.375C168.625 98.375 167 99.375 165.375 100.5C165.875 100.625 167 100.875 168 102C168.75 102.75 169.125 103.625 169.25 104.125C169.25 108.25 168.875 113 168.125 118.125C166.75 126.625 164.5 133.875 162.25 139.625C163.375 134.625 164.375 129.5 165.375 124.125C166.5 117.25 167.5 110.625 168.125 104.375C167.875 104.125 167.75 103.75 167.375 103.5C166.125 102.125 164.75 101.375 163.75 101C164.25 100.125 165.25 98.5 167.25 97.625C167.75 97.375 168.25 97.25 168.75 97.125C168.5 96.5 168.125 95.875 167.75 95.125C166.375 92.625 164.625 91 163.375 90.125Z" fill="#E46349"/>
<path d="M167.875 167.875C167.625 155.375 167.375 142.875 167.125 130.25C169.625 141.5 172.125 152.625 174.5 163.875C174.125 164.125 173.625 164.375 172.875 164.875C171.875 165.5 171.375 165.875 170.875 166.25C170.25 166.75 169.25 167.375 167.875 167.875Z" fill="#E46349"/>
<path d="M133.625 106.375C130.125 105.75 124.625 104.25 119 100.375C114.875 97.625 111.875 94.5 110 92.25C109 89.5 108 86.375 107.25 82.875C105.875 76.125 105.75 70.25 106 65.625C105.5 66 104.875 66.375 104.25 67C103.25 67.875 102.5 68.75 102 69.5C102.125 74 102.625 79.5 104.25 85.625C105 88.75 106 91.5 107 93.875C109.125 96.625 113.125 100.75 119.125 104.125C124.625 107.125 129.75 108.375 133.125 108.75C133.25 108 133.375 107.125 133.625 106.375Z" fill="#E46349"/>
<path d="M134.626 102.75C134.751 102.375 134.251 102.375 134.001 102.75C132.876 105.875 132.626 109.375 132.876 112.75C132.876 113.125 133.501 113.125 133.501 112.75C133.251 109.375 133.751 105.875 134.626 102.75Z" fill="#B04934"/>
<path d="M14.125 170.125C35.125 170.125 56 170 77 170C98 170 118.875 169.875 139.875 169.875C151.75 169.875 163.5 169.875 175.375 169.875C176 169.875 176 168.875 175.375 168.875C154.375 168.875 133.5 169 112.5 169C91.5 169 70.625 169.125 49.625 169.125C37.75 169.125 26 169.125 14.125 169.125C13.5 169.25 13.5 170.125 14.125 170.125Z" fill="#6B6C6D"/>
<path d="M115.75 31.5C115.25 32.75 114.75 34.125 114.25 35.375C114.125 35.625 114.375 36.125 114.625 36.125C115 36.25 115.25 36 115.375 35.75C115.875 34.5 116.375 33.125 116.875 31.875C117 31.625 116.75 31.125 116.5 31.125C116.125 31 115.875 31.25 115.75 31.5Z" fill="#00C4A6"/>
<path d="M118 32.875C117.375 34.125 116.75 35.5 116.125 36.875C116 37.125 116.25 37.625 116.5 37.625C116.875 37.75 117.125 37.5 117.25 37.25C117.75 36 118.375 34.75 119 33.625C119.125 33.375 119.125 32.875 118.75 32.75C118.5 32.5 118.125 32.5 118 32.875Z" fill="#00C4A6"/>
<path d="M103.625 26.625C104 29.25 104.375 31.75 104.75 34.375C104.75 34.75 105.25 34.875 105.5 34.75C105.875 34.625 106 34.375 105.875 34C105.5 31.375 105.125 28.875 104.75 26.25C104.75 25.875 104.25 25.75 104 25.875C103.625 26 103.5 26.25 103.625 26.625Z" fill="#00C4A6"/>
<path d="M106.375 30.25C106.5 31.625 106.625 33.125 106.875 34.5C106.875 34.875 107.375 35 107.625 34.875C108 34.75 108.125 34.5 108 34.125C107.75 32.875 107.625 31.5 107.5 30.25C107.5 29.875 107.25 29.625 106.875 29.625C106.75 29.625 106.375 29.875 106.375 30.25Z" fill="#00C4A6"/>
<path d="M91.0009 36.2501C92.7509 38.1251 94.5009 40.0001 96.1259 42.0001C96.3759 42.2501 96.7509 42.2501 97.0009 42.0001C97.2509 41.7501 97.2509 41.3751 97.0009 41.1251C95.3759 39.1251 93.7509 37.2501 91.8759 35.3751C91.3759 34.7501 90.5009 35.7501 91.0009 36.2501Z" fill="#00C4A6"/>
<path d="M92.625 41.625C93.75 42.625 94.75 43.75 95.75 44.875C96 45.125 96.375 45.125 96.625 44.875C96.875 44.625 96.875 44.25 96.625 44C95.625 42.875 94.5 41.75 93.5 40.75C93.25 40.5 92.875 40.5 92.625 40.75C92.375 41 92.375 41.375 92.625 41.625Z" fill="#00C4A6"/>
<path d="M96.625 45.375C97.375 45.375 97.375 44.125 96.625 44.125C95.75 44.125 95.75 45.375 96.625 45.375Z" fill="#00C4A6"/>
</svg>
