<svg width="25" height="25" viewBox="0 0 25 25" fill="none" xmlns="http://www.w3.org/2000/svg">
<rect width="25" height="25" rx="12.5" fill="#F4F6F5"/>
<path d="M9.875 8.75C10.4844 8.75 11 8.23438 11 7.625C11 7.03906 10.4844 6.5 9.875 6.5C9.24219 6.5 8.75 7.01562 8.75 7.625C8.75 8.21094 9.24219 8.75 9.875 8.75ZM16.625 8.75H12.875C12.6641 8.75 12.5 8.91406 12.5 9.10156V12.125H11.7031L10.9531 10.3203C10.7422 9.82812 10.2734 9.5 9.73438 9.5H9.3125C8.58594 9.5 8 10.0859 8 10.7891V13.1797C8 13.3672 8.07031 13.8594 8.49219 14.1875L10.2734 15.5938C10.4141 15.7109 10.5078 15.8516 10.5547 16.0156L11 18.0078C11.0703 18.2891 11.3516 18.5 11.6797 18.4062C11.9844 18.3594 12.1719 18.0312 12.1016 17.7266L11.5859 15.5703C11.5391 15.2891 11.375 15.0312 11.1406 14.8438L10.25 14.2109V11.5391L10.7656 12.8047C10.8828 13.0625 11.1406 13.25 11.4453 13.25H16.625C16.8125 13.25 17 13.0859 17 12.8984V9.125C17 8.9375 16.8125 8.75 16.625 8.75ZM15.875 12.125H13.625V9.875H15.875V12.125ZM8 17.9375C8 18.2422 8.23438 18.4766 8.5625 18.4766C8.86719 18.4766 9.125 18.2656 9.125 17.9375V15.6875C8.84375 15.4531 8 14.7969 8 14.7734V17.9375Z" fill="#14191F"/>
</svg>
