<svg width="40" height="40" viewBox="0 0 40 40" fill="none" xmlns="http://www.w3.org/2000/svg">
<circle cx="20" cy="20" r="19.5" fill="#FDFDFD" stroke="#DEE2E1"/>
<rect x="5" y="5" width="30" height="30" rx="15" fill="#FDFDFD"/>
<path d="M13 14.7734C13 14.1445 13.4922 13.625 14.1211 13.625H25.8516C26.4805 13.625 27 14.1445 27 14.7734C27 15.0469 26.8906 15.293 26.7266 15.4844L22.1875 21.0898V25C22.1875 25.4922 21.7773 25.875 21.2852 25.875C21.0938 25.875 20.9023 25.8203 20.7383 25.6836L18.2227 23.6875C17.9492 23.4688 17.8125 23.168 17.8125 22.8398V21.0898L13.2461 15.4844C13.082 15.293 13 15.0469 13 14.7734ZM14.4766 14.9375L18.9609 20.4336C19.0703 20.5703 19.125 20.707 19.125 20.8438V22.7305L20.875 24.125V20.8438C20.875 20.707 20.9023 20.5703 21.0117 20.4336L25.4961 14.9375H14.4766Z" fill="#14191F"/>
</svg>
