<svg width="80" height="80" viewBox="0 0 80 80" fill="none" xmlns="http://www.w3.org/2000/svg">
<path opacity="0.1" d="M40 66.4401C57.3638 66.4401 71.44 52.3639 71.44 35.0001C71.44 17.6362 57.3638 3.56006 40 3.56006C22.6362 3.56006 8.56 17.6362 8.56 35.0001C8.56 52.3639 22.6362 66.4401 40 66.4401Z" fill="#4CBDFF"/>
<path opacity="0.2" d="M39.6 47.8H28.12V56.8H39.6V47.8Z" stroke="#4CBDFF" stroke-width="0.5826" stroke-miterlimit="10"/>
<path opacity="0.2" d="M38.92 48.6001H28.68V56.0001H38.92V48.6001Z" fill="#4CBDFF"/>
<path opacity="0.2" d="M57.76 9.19995H35.48V26.68H57.76V9.19995Z" stroke="#4CBDFF" stroke-width="1.2071" stroke-miterlimit="10"/>
<path opacity="0.2" d="M56.44 10.72H36.6V25.04H56.44V10.72Z" fill="#4CBDFF"/>
<path d="M42.16 17.3999C44.24 17.5599 46.36 17.6799 48.6 17.6399C60.76 17.5999 71.12 14.5999 78.96 11.3199C77.04 22.3199 72.96 37.3999 63.52 53.0799C59.84 59.2399 55.88 64.4799 52.12 68.9199C51.44 69.5599 50.6 70.2399 49.6 70.9199C48 71.9999 46.44 72.7199 45.2 73.1999C42.68 73.9599 33.04 76.5999 23 71.6799C17.48 68.9999 14.08 65.1199 12.32 62.7599C13.2 63.1599 14.56 63.5999 16.16 63.5199C16.16 63.5199 17.48 63.4799 18.8 62.9599C21.6 61.9199 37 50.0799 41.52 22.0399C41.88 20.0399 42.04 18.3999 42.16 17.3999Z" fill="#B1E7DD"/>
<path d="M16.76 65.6399C18.12 64.4399 19.48 63.1999 20.84 61.9999C21 61.8399 20.76 61.5999 20.6 61.7599C19.24 62.9599 17.88 64.1999 16.52 65.3999C16.32 65.5599 16.56 65.7999 16.76 65.6399Z" fill="#8FC9BE"/>
<path d="M44.04 22.84C43.68 24.84 43.28 26.84 42.92 28.84C44.92 29 46.88 29.2 48.88 29.36C49.36 27.32 49.84 25.28 50.36 23.24C48.24 23.12 46.12 23 44.04 22.84Z" fill="white"/>
<path d="M53.56 24.8C59.6 24.76 65.64 24.68 71.68 24.64C72.12 24.64 72.12 23.96 71.68 23.96C65.64 24 59.6 24.08 53.56 24.12C53.12 24.12 53.12 24.8 53.56 24.8Z" fill="white"/>
<path d="M52.64 28.68C58.6 28.72 64.52 28.8 70.48 28.84C70.92 28.84 70.92 28.16 70.48 28.16C64.52 28.12 58.6 28.04 52.64 28C52.2 28 52.2 28.68 52.64 28.68Z" fill="white"/>
<path d="M41.2 33.96C40.56 35.88 39.96 37.84 39.32 39.76C41.44 40.16 43.56 40.56 45.68 40.96C46.24 39.04 46.8 37.08 47.4 35.16C45.36 34.76 43.28 34.36 41.2 33.96Z" fill="white"/>
<path d="M50.48 37.08C56.48 37.8 62.48 38.48 68.48 39.2C68.92 39.24 68.92 38.56 68.48 38.52C62.48 37.8 56.48 37.12 50.48 36.4C50.04 36.32 50.04 37 50.48 37.08Z" fill="white"/>
<path d="M48.96 40.8C54.84 41.6 60.76 42.4 66.64 43.2C67.08 43.24 67.24 42.6 66.84 42.52C60.96 41.72 55.04 40.92 49.16 40.12C48.72 40.08 48.52 40.72 48.96 40.8Z" fill="white"/>
<path d="M35.32 47.5199C37.2 47.9599 39.04 48.4399 40.92 48.8799C39.84 51.0399 38.76 53.1999 37.68 55.3599C35.8 54.6399 33.92 53.9199 32.04 53.1599C33.12 51.3199 34.24 49.3999 35.32 47.5199Z" fill="white"/>
<path d="M29.4 57.9199C31.4 58.3999 33.44 58.9199 35.44 59.3999C34.12 61.4799 32.76 63.5999 31.44 65.6799C29.36 64.8799 27.28 64.0799 25.2 63.2799C26.56 61.4799 27.96 59.6799 29.4 57.9199Z" fill="white"/>
<path d="M43 50.9599C48.6 52.4799 54.16 54.0399 59.76 55.5599C60.16 55.6799 60.36 55.0399 59.92 54.9199C54.32 53.3999 48.76 51.8399 43.16 50.3199C42.76 50.1599 42.6 50.8399 43 50.9599Z" fill="white"/>
<path d="M41.16 53.92C46.68 55.68 52.2 57.48 57.72 59.24C58.12 59.36 58.32 58.72 57.88 58.6C52.36 56.84 46.84 55.04 41.32 53.28C40.92 53.12 40.76 53.76 41.16 53.92Z" fill="white"/>
<path d="M36.76 62.08C40.88 63.52 45 64.96 49.12 66.4C49.52 66.56 49.72 65.88 49.32 65.72C45.2 64.28 41.08 62.84 36.96 61.4C36.52 61.28 36.36 61.96 36.76 62.08Z" fill="white"/>
<path d="M34.32 65.1999C38.44 66.6399 42.56 68.0799 46.68 69.5199C47.08 69.6799 47.28 68.9999 46.88 68.8399C42.76 67.3999 38.64 65.9599 34.52 64.5199C34.08 64.3999 33.88 65.0399 34.32 65.1999Z" fill="white"/>
<path d="M52.64 68.1599C51.8 68.3599 50.52 68.5599 49 68.3599C46.96 68.0799 45.44 67.2399 44.68 66.7599C44.32 67.9199 43.92 70.0399 44.76 72.2399C44.88 72.5999 45.04 72.9199 45.24 73.2399C46.12 72.9599 47.08 72.5199 48.12 71.9199C50.2 70.7199 51.68 69.2799 52.64 68.1599Z" fill="#8FC9BE"/>
<path d="M43.92 26.7999C44.4 27.2399 44.84 27.7199 45.32 28.1599C45.52 28.3599 45.84 28.3599 46.04 28.1599C47.24 27.1199 48.48 26.1199 49.68 25.0799C49.88 24.9199 49.88 24.5199 49.68 24.3599C49.48 24.1599 49.16 24.1999 48.96 24.3599C47.76 25.3999 46.52 26.3999 45.32 27.4399C45.56 27.4399 45.8 27.4399 46.04 27.4399C45.56 26.9999 45.12 26.5199 44.64 26.0799C44.16 25.5999 43.44 26.3199 43.92 26.7999Z" fill="#348C5E"/>
<path d="M40.56 37.6799C40.96 38.1999 41.36 38.7199 41.76 39.2399C41.92 39.4399 42.2 39.5999 42.48 39.4399C43.84 38.5999 45.2 37.7999 46.56 36.9599C47.12 36.5999 46.6 35.7199 46.04 36.0799C44.68 36.9199 43.32 37.7199 41.96 38.5599C42.2 38.6399 42.44 38.6799 42.68 38.7599C42.28 38.2399 41.88 37.7199 41.48 37.1999C41.32 36.9599 41.04 36.8799 40.76 36.9999C40.52 37.1199 40.4 37.4799 40.56 37.6799Z" fill="#348C5E"/>
<path d="M15.72 59.6799C15.88 59.3599 16 59.0399 16.16 58.7199C16.24 59.0799 16.32 59.4399 16.36 59.8399C18.64 59.8399 20.92 59.8399 23.2 59.7999C24.24 58.8399 25.24 57.8799 26.28 56.8799C25.92 54.6399 25.52 52.4399 25.16 50.1999C23.32 50.7999 19.6 51.7599 15.04 50.8399C12.24 50.2799 10.12 49.1599 8.72 48.3199C7.72 50.9999 6.84 53.9599 6.08 57.1599C5.88 58.0399 5.68 58.9199 5.52 59.7999C8.96 59.7599 12.36 59.7199 15.72 59.6799Z" fill="#AAC4D1"/>
<path d="M14.64 51.1999C14.48 51.8799 14.36 52.5599 14.2 53.2399C13.84 53.4799 13.24 53.8399 12.44 53.9199C10.76 54.1199 9.88001 52.8399 9.00001 53.0399C8.24001 53.1999 7.36001 54.4399 7.12001 59.7599C6.60001 59.7599 6.12001 59.7599 5.60001 59.7599C5.92001 57.8799 6.36001 55.8399 7.00001 53.6399C7.56001 51.6799 8.16001 49.9199 8.80001 48.3199C10.72 49.3199 12.68 50.2799 14.64 51.1999Z" fill="#78929F"/>
<path d="M19 55.44C18.64 55.64 18.28 55.8 17.92 56C17.76 56.08 17.52 56.16 17.36 56.28C17.24 56.36 17.16 56.6 17.12 56.76C16.76 57.48 16.44 58.2 16.08 58.92C16 59.12 16.28 59.28 16.36 59.08C16.68 58.4 17 57.72 17.36 57C17.4 56.92 17.44 56.84 17.48 56.76C17.52 56.68 17.56 56.56 17.6 56.52C17.68 56.48 17.76 56.44 17.84 56.4C17.92 56.36 18.04 56.32 18.12 56.28C18.48 56.12 18.84 55.92 19.16 55.76C19.36 55.6 19.16 55.32 19 55.44Z" fill="#78929F"/>
<path d="M17.76 19.4399C17.36 20.1199 16.96 20.8399 16.56 21.5199C16.16 21.6399 15.8 21.7199 15.4 21.8399C15.4 24.1199 15.4 26.4399 15.4 28.7199C15.92 28.9999 16.72 29.3999 17.76 29.5599C19.56 29.8399 21 29.2799 21.64 28.9999C21.64 28.6799 21.64 28.3599 21.64 28.0399C21.88 27.8799 22.2 27.5999 22.48 27.1999C22.68 26.8799 22.76 26.6399 22.84 26.4799C23.04 25.8399 23.44 24.6399 23.92 23.1199C21.84 21.8799 19.8 20.6799 17.76 19.4399Z" fill="#E2B18A"/>
<path d="M16.24 21.6C15.96 21.68 15.68 21.76 15.4 21.84C15.4 24.12 15.4 26.44 15.4 28.72C15.56 28.8 15.68 28.88 15.84 28.96C15.84 27.24 15.92 25.4 16.04 23.52C16.12 22.88 16.16 22.24 16.24 21.6Z" fill="#B48262"/>
<path d="M17.84 19.2C17.52 19.8 17.2 20.4 16.88 21C17.72 24.32 19.64 26.36 21.32 26.28C21.68 26.24 22.2 26.12 22.84 25.6C22.72 26.16 22.56 26.56 22.44 26.84C22.16 27.4 21.8 27.84 21.48 28.24C21.32 28.44 21.16 28.6 21.04 28.72C21.36 28.52 22.04 28.08 22.56 27.2C23.08 26.36 23.16 25.52 23.16 25.16C23.4 24.48 23.6 23.84 23.84 23.16C21.88 21.8 19.84 20.52 17.84 19.2Z" fill="#B48262"/>
<path d="M15.44 28.6C15.56 32.2 15.56 36.16 15.28 40.44C15.04 44.28 14.6 47.88 14.08 51.12C15 51.4 16.2 51.64 17.56 51.72C19.24 51.84 20.68 51.68 21.8 51.48C22.2 48.72 22.48 45.64 22.56 42.32C22.72 37.04 22.32 32.28 21.76 28.24C21.36 28.56 20.4 29.24 18.96 29.4C17.16 29.6 15.84 28.84 15.44 28.6Z" fill="white"/>
<path d="M21.76 28.24C22.24 31.08 22.6 34.36 22.72 37.96C22.88 43.12 22.44 47.68 21.8 51.48C21.56 51.52 21.32 51.6 21.12 51.64C21.8 46.92 22.2 41.36 21.76 35.2C21.6 32.92 21.36 30.76 21.08 28.72C21.28 28.52 21.52 28.4 21.76 28.24Z" fill="#DCDCDC"/>
<path d="M15.44 28.6C15.56 32.2 15.56 36.16 15.28 40.44C15.04 44.28 14.6 47.88 14.08 51.12C14.28 51.16 14.44 51.2 14.64 51.24C15.32 46.76 15.84 41.76 15.92 36.32C15.96 33.72 15.92 31.24 15.84 28.88C15.72 28.76 15.56 28.68 15.44 28.6Z" fill="#DCDCDC"/>
<path d="M15.84 21.76C15 21.92 14.08 22.16 13.12 22.44C11.52 22.96 10.16 23.6 9.08 24.24C7.12 26.32 4.56 29.6 2.72 34.12C1.72 36.56 1.12 38.8 0.800003 40.68C2.32 42.2 4.4 43.88 7.12 45.08C7.64 45.32 8.12 45.52 8.6 45.68C8.12 47.76 7.6 49.84 7.12 51.92C8.4 51.88 9.28 52.12 9.88 52.4C10.8 52.8 11.24 53.32 12.28 53.48C12.92 53.56 13.48 53.48 13.84 53.36C14.12 51.52 14.4 49.72 14.68 47.88C15 47.92 15.32 47.96 15.64 47.96C16.52 46.36 17.36 44.76 18.24 43.12C17.32 42.64 16.4 42.2 15.44 41.72C15.48 37.8 15.52 33.84 15.64 29.84C15.68 27.16 15.76 24.44 15.84 21.76Z" fill="#E4B34D"/>
<path d="M15.92 21.5199C15.48 21.6399 15.04 21.7199 14.6 21.8399C14.44 21.8799 14.2 21.8799 14.04 21.9999C13.88 22.0799 13.72 22.3199 13.56 22.4799C12.88 23.1599 12.2 23.8399 11.52 24.5199C11.44 24.5999 11.48 24.7199 11.56 24.7599C12.24 25.1999 13.04 25.3599 13.84 25.1199C14.16 25.0399 14.56 24.7599 14.84 25.0799C15.08 25.3599 15.12 25.8399 15.2 26.1999C15.32 27.0399 15.32 27.8799 15.32 28.7199C15.32 28.9199 15.64 28.9199 15.64 28.7199C15.64 27.8399 15.64 26.9599 15.52 26.1199C15.44 25.7199 15.36 25.2799 15.12 24.9199C14.92 24.6399 14.64 24.5599 14.32 24.5999C13.92 24.6799 13.6 24.8799 13.2 24.8799C12.68 24.9199 12.2 24.7199 11.76 24.4399C11.76 24.5199 11.8 24.5999 11.8 24.6799C12.44 24.0399 13.04 23.3999 13.68 22.7999C13.84 22.6399 13.96 22.4799 14.12 22.3599C14.28 22.1999 14.52 22.1599 14.72 22.1199C15.16 21.9999 15.6 21.9199 16.04 21.7999C16.2 21.7999 16.12 21.4799 15.92 21.5199Z" fill="#C9962D"/>
<path d="M46.72 46.72C46.84 46.68 46.92 46.68 47.04 46.64C47.24 46.6 47.32 46.6 47.44 46.6C47.56 46.56 47.68 46.52 47.76 46.48C47.8 46.48 48.04 46.48 48.16 46.64C48.16 46.64 48.28 46.8 48.2 47.04C48.08 47.64 46.08 48.28 45.92 48.36C46.04 47.96 46.12 47.52 46.24 47.12C46.4 47 46.56 46.88 46.72 46.72Z" fill="#B48262"/>
<path d="M37.84 43.88C39.56 42.92 40.52 42.84 41.08 43C41.24 43.04 41.72 43.2 42.36 43.2C42.84 43.2 43.2 43.16 43.44 43.08C44 43 44.44 43.24 44.52 43.52C44.6 43.88 44.16 44.24 44.12 44.32C43.88 44.52 43.72 44.56 43.12 44.8C42.84 44.92 42.6 45.04 42.48 45.12C42.64 45.36 42.92 45.72 43.36 46.04C44.12 46.56 44.92 46.56 45.2 46.52C45.88 46.24 46.52 46 47.2 45.72C47.84 45.48 48 45.72 48 45.76C48.16 46 47.8 46.6 47.4 46.92C47.28 47 47.16 47.08 47.08 47.12C46.84 47.52 46.6 47.88 46.32 48.28C46.04 48.4 45.68 48.56 45.24 48.72C44.8 48.84 43.84 49.12 42.76 49C42 48.92 41.36 48.6 40.12 48.04C39.16 47.6 38.44 47.16 37.92 46.84C36.8 46.92 35.64 47 34.52 47.04C34.32 45.64 34.16 44.24 33.96 42.84C35.24 43.12 36.56 43.52 37.84 43.88Z" fill="#E2B18A"/>
<path d="M40.44 45.1999C40.76 45.4799 41.2 45.6399 41.64 45.5999C42 45.5599 42.32 45.4399 42.6 45.1999C42.68 45.1599 42.64 45.0399 42.6 44.9999C42.52 44.9199 42.44 44.9599 42.4 44.9999C42.36 44.9999 42.36 45.0399 42.32 45.0399C42.28 45.0799 42.2 45.1199 42.16 45.1199C42 45.1999 41.84 45.2399 41.64 45.2799C41.44 45.2799 41.2 45.2799 41 45.1999C40.92 45.1599 40.84 45.1199 40.8 45.0799C40.76 45.0799 40.76 45.0399 40.72 45.0399C40.68 44.9999 40.72 45.0399 40.68 44.9999C40.6 44.9599 40.52 44.9199 40.48 44.9999C40.4 45.0399 40.4 45.1599 40.44 45.1999Z" fill="#B48262"/>
<path d="M41.16 46.88C42 46.72 42.76 46.84 43.44 47.36C43.64 47.52 43.88 47.68 44.16 47.72C44.52 47.76 44.88 47.68 45.16 47.52C45.56 47.36 45.84 47 46.24 46.84C46.4 46.76 46.64 46.72 46.8 46.88C47 47.12 46.68 47.6 46.52 47.76C46.32 47.96 46.04 48.08 45.8 48.16C45.6 48.2 45.68 48.52 45.88 48.44C46.4 48.28 46.84 48 47.08 47.52C47.24 47.16 47.28 46.72 46.88 46.52C46.28 46.24 45.76 46.92 45.28 47.16C44.96 47.36 44.52 47.52 44.12 47.4C43.84 47.32 43.64 47.08 43.4 46.92C42.72 46.48 41.92 46.44 41.12 46.6C40.88 46.6 40.96 46.92 41.16 46.88Z" fill="#B48262"/>
<path d="M24.48 23.3199C25.92 24.4399 27.4 25.5599 28.84 26.6799C29.76 28.7999 30.64 31.1199 31.4 33.7199C31.76 34.8799 32.04 35.9599 32.28 37.0399C32.84 37.6799 33.64 38.4799 34.68 39.1999C36.4 40.3999 38.04 40.9199 39.16 41.1599C39.32 41.7199 39.52 42.9999 39.04 44.4799C38.32 46.6799 36.48 47.7199 36.08 47.9199C34.36 47.3599 31.84 46.2799 29.4 44.1599C28.24 43.1599 27.36 42.1599 26.64 41.2399C26.64 45.4399 26.68 49.5999 26.68 53.7999C25.72 53.9999 24.96 53.9599 24.44 53.8799C23.72 53.7999 23.28 53.5999 22.48 53.6399C21.92 53.6399 21.48 53.7599 21.2 53.8399C21.52 51.8399 21.8 49.7199 22 47.4799C22.64 40.1999 22.36 33.5999 21.6 27.9599C22.04 27.5999 22.28 27.2799 22.44 27.0399C22.64 26.7199 22.76 26.3999 23 25.5999C23.16 25.1199 23.32 24.4799 23.52 23.7199C23.88 23.5999 24.16 23.4799 24.48 23.3199Z" fill="#E4B34D"/>
<path d="M26.8 41.28C26.6 37.56 26.36 33.84 26.16 30.16C26.16 29.96 25.8 29.96 25.84 30.16C26.04 33.88 26.28 37.6 26.48 41.28C26.48 41.48 26.84 41.48 26.8 41.28Z" fill="#C9962D"/>
<path d="M21.8 28.4C22.28 28.32 22.72 28.12 23.12 27.84C23.32 27.68 23.52 27.48 23.64 27.24C23.76 27.08 23.84 26.92 24 26.76C24.6 26.24 25.64 26.44 26.32 26.56C26.48 26.6 26.56 26.44 26.52 26.32C25.96 25.32 25.4 24.28 24.84 23.28C24.72 23.08 24.44 23.24 24.56 23.44C25.12 24.44 25.68 25.48 26.24 26.48C26.32 26.4 26.36 26.32 26.44 26.24C25.68 26.08 24.64 25.92 23.96 26.4C23.64 26.64 23.48 26.96 23.24 27.28C22.88 27.72 22.32 27.96 21.76 28.08C21.48 28.12 21.6 28.44 21.8 28.4Z" fill="#C9962D"/>
<path d="M11.44 31.04C10.4 33.56 9.36 36.04 8.32 38.56C8.28 38.64 8.32 38.72 8.4 38.76C11.68 40.28 14.96 41.76 18.24 43.28C18.44 43.36 18.6 43.08 18.4 43C15.12 41.48 11.84 40 8.56 38.48C8.6 38.56 8.6 38.6 8.64 38.68C9.68 36.16 10.72 33.68 11.76 31.16C11.84 30.96 11.52 30.84 11.44 31.04Z" fill="#C9962D"/>
<path d="M25.24 24.44C24.44 24.72 24 25.12 23.72 25.44C23.24 25.96 23.16 26.4 22.6 27.2C22.24 27.68 21.88 28.04 21.64 28.24C21.64 28.24 21.6 28.24 21.6 28.2C21.56 28.16 21.6 28.12 21.6 28.08C22.08 27.64 22.36 27.2 22.52 26.92C22.96 26.16 23.2 25.24 23.28 24.92C23.4 24.44 23.4 24.36 23.52 24.16C23.84 23.6 24.4 23.36 24.84 23.24C24.96 23.6 25.12 24 25.24 24.44Z" fill="#C9962D"/>
<path d="M30.48 38.36C30.76 37.64 31.52 37.2 32.32 37.24C32.28 37.16 32.24 37.04 32.2 36.96C31.56 37.56 31.24 38.44 31.32 39.28C31.32 39.36 31.4 39.44 31.48 39.44C31.56 39.44 31.64 39.36 31.64 39.28C31.52 38.48 31.84 37.72 32.4 37.2C32.52 37.08 32.4 36.92 32.28 36.92C31.88 36.92 31.48 37 31.12 37.2C30.68 37.44 30.32 37.84 30.12 38.32C30.08 38.4 30.16 38.52 30.24 38.52C30.36 38.48 30.44 38.44 30.48 38.36Z" fill="#C9962D"/>
<path d="M6.60001 39.24C7.04001 38.68 7.76001 38.52 8.40001 38.76C8.36001 38.68 8.32001 38.6 8.32001 38.52C7.96001 39 7.60001 39.48 7.24001 39.96C7.20001 40.04 7.24001 40.16 7.28001 40.2C7.36001 40.24 7.44001 40.2 7.52001 40.16C7.88001 39.68 8.24001 39.2 8.60001 38.72C8.68001 38.64 8.60001 38.52 8.52001 38.48C7.80001 38.16 6.88001 38.4 6.40001 39.04C6.36001 39.12 6.32001 39.2 6.40001 39.28C6.44001 39.28 6.56001 39.28 6.60001 39.24Z" fill="#C9962D"/>
<path d="M27.2 15.76C27 17.12 26.64 18.8 25.96 20.6C25.56 21.64 25.12 22.56 24.68 23.36C24.32 23.64 23.48 24.28 22.24 24.36C22.12 24.36 21.48 24.4 20.68 24.12C18.8 23.48 17.72 21.84 17.32 21.16C17.36 20.76 17.44 20.28 17.6 19.8C17.64 19.68 17.68 19.52 17.72 19.4C17.08 19.28 16.56 18.92 16.36 18.4C16.04 17.44 17 16.36 17.32 16.44C17.6 16.52 17.68 17.52 17.68 17.52C17.28 15.28 17.84 13.12 19.2 12.2C21.24 10.84 25.28 11.88 27.2 15.76Z" fill="#E2B18A"/>
<path d="M27.2 15.76C27.12 15.52 26.96 15.16 26.64 14.96C26.16 14.68 25.72 15 25.2 15C23.8 15.04 23.6 13.08 21.72 12.56C20.92 12.32 19.84 12.4 19.52 12.92C19.44 13.04 19.4 13.24 19.36 13.64C19.28 14.4 19.4 14.6 19.28 15C19.16 15.52 18.84 15.64 18.52 16.12C18.28 16.52 18 17.16 18.08 18.2C18.12 18.2 18.16 18.16 18.24 18.08C18.44 17.92 18.52 17.64 18.52 17.52C18.56 17.28 18.72 16.72 18.96 16.28C19.2 15.92 19.32 16.04 19.52 15.72C19.88 15.16 19.56 14.76 19.96 14.24C20.2 13.88 20.52 13.76 20.6 13.72C21.04 13.52 21.48 13.6 21.96 13.72C23.8 14.24 23.92 15.44 25.08 15.44C25.44 15.44 25.92 15.32 26.64 15.52C26.92 15.6 27.08 15.68 27.2 15.76Z" fill="#B48262"/>
<path d="M26.6 18.64C26.84 18.64 27.32 18.64 27.68 18.36C28.28 17.88 28.4 16.8 27.8 15.8C27.96 15.52 28.32 14.76 28.08 13.96C27.88 13.36 27.48 13.04 26.64 12.44C26.04 12 25.36 11.52 24.28 11.28C23.56 11.12 22.92 11.16 22.52 11.2C22.36 11.08 21.36 10.32 20.12 10.56C18.88 10.76 17.84 11.84 17.6 13.2C16.56 13.36 15.76 14.08 15.64 14.96C15.56 15.64 15.92 16.2 16.04 16.36C15.92 16.52 15.52 17.2 15.68 18C15.84 18.88 16.64 19.6 17.64 19.8C17.72 19.6 17.76 19.4 17.84 19.2C17.12 19.04 16.6 18.56 16.52 17.96C16.4 17.28 16.92 16.52 17.24 16.56C17.32 16.56 17.56 16.64 17.72 17.48C17.64 17.76 17.64 18 17.8 18.12C17.88 18.16 17.96 18.2 18.08 18.2C18.48 18.12 18.48 16.92 18.48 16.8C18.52 16.64 18.6 16.44 18.76 16.2C19.04 15.76 19.2 15.8 19.36 15.48C19.56 15.12 19.52 14.68 19.48 14.28C19.44 13.84 19.36 13.76 19.4 13.56C19.52 13.12 20.08 12.84 20.56 12.8C21.72 12.64 22.88 13.64 23.68 14.28C24.12 14.64 24.44 15 25.04 15.16C25.52 15.28 25.96 15.24 26.28 15.16C26.36 15.16 26.6 15.12 26.8 15.24C27.08 15.4 27.2 15.68 27.24 15.72C27.16 16.24 27.04 16.84 26.92 17.4C26.8 17.84 26.68 18.28 26.6 18.64Z" fill="#281B10"/>
<path d="M24.68 13.72C24.24 13.28 24.48 12.88 24.04 12.52C23.68 12.24 23.4 12.44 22.56 12.32C21.48 12.12 21.4 11.72 20.56 11.76C20.32 11.76 19.72 11.8 19.24 12.24C18.52 12.88 18.56 13.84 18.56 14C17.36 13.76 16.28 14.28 15.96 15.12C15.76 15.68 15.96 16.2 16.04 16.44C15.92 16.6 15.52 17.28 15.68 18.08C15.84 18.96 16.64 19.68 17.64 19.88C17.72 19.68 17.76 19.48 17.84 19.28C17.12 19.12 16.6 18.64 16.52 18.04C16.4 17.36 16.92 16.6 17.24 16.64C17.32 16.64 17.56 16.72 17.72 17.56C17.64 17.84 17.64 18.08 17.8 18.2C17.88 18.24 17.96 18.28 18.08 18.28C18.48 18.2 18.48 17 18.48 16.88C18.52 16.72 18.6 16.52 18.76 16.28C19.04 15.84 19.2 15.88 19.36 15.56C19.56 15.2 19.52 14.76 19.48 14.36C19.44 13.92 19.36 13.84 19.4 13.64C19.52 13.2 20.08 12.92 20.56 12.88C21.8 12.68 23.2 13.76 23.68 14.36C23.76 14.48 24.04 14.8 24.48 15.04C24.72 15.16 24.92 15.2 25.04 15.24C25.16 15.2 25.36 15.2 25.6 15.2C26.12 15.2 26.32 15.08 26.6 15.16C26.76 15.2 27 15.32 27.24 15.76C27.12 15 26.84 14.6 26.6 14.4C25.92 13.88 25.2 14.28 24.68 13.72Z" fill="#140D07"/>
<path d="M25.2 16.52C25.2 16.4 25.32 16.24 25.44 16.2C25.92 16.08 26.68 17.12 26.52 17.28C26.4 17.48 25.16 17 25.2 16.52Z" fill="#281B10"/>
<path d="M21.36 15.2399C21.76 15.0799 22.16 14.9599 22.36 15.1599C22.48 15.2799 22.52 15.4799 22.44 15.6399C22.32 15.8799 21.96 15.8799 21.48 15.9199C21.24 15.9199 20.44 15.9599 20.4 15.7999C20.4 15.5599 21.28 15.2799 21.36 15.2399Z" fill="#281B10"/>
<path d="M24.24 16.8L23.56 19.32C23.52 19.4 23.48 19.56 23.48 19.64C23.48 19.72 23.56 19.8 23.56 19.88C23.6 20 23.64 20.12 23.64 20.24C23.68 20.36 23.68 20.52 23.56 20.64C23.36 20.88 22.96 20.84 22.68 20.76C22.56 20.72 22.6 20.56 22.72 20.56C22.88 20.6 23.08 20.64 23.24 20.6C23.44 20.56 23.48 20.44 23.44 20.24C23.4 20.04 23.32 19.88 23.24 19.72C23.2 19.56 23.28 19.36 23.32 19.24L24 16.8C24.08 16.64 24.28 16.68 24.24 16.8Z" fill="#281B10"/>
<path d="M25.24 18.16C25.36 18.2 25.32 18.6 25.2 18.92C25.12 19.12 24.92 19.4 24.8 19.36C24.68 19.32 24.72 18.92 24.84 18.6C24.96 18.36 25.16 18.12 25.24 18.16Z" fill="#281B10"/>
<path d="M21.8 17.0799C21.92 17.1599 21.84 17.4799 21.76 17.6799C21.68 17.8799 21.44 18.1999 21.32 18.1599C21.2 18.1199 21.16 17.7199 21.32 17.4399C21.44 17.1999 21.72 16.9999 21.8 17.0799Z" fill="#281B10"/>
<path d="M22.96 22.48C22.64 22.72 22.24 22.8 21.84 22.64C21.4 22.48 21.12 22.08 21 21.64C20.96 21.52 21.16 21.48 21.2 21.6C21.28 21.96 21.52 22.36 21.92 22.48C22.24 22.6 22.6 22.52 22.84 22.32C22.96 22.24 23.04 22.4 22.96 22.48Z" fill="black"/>
<path d="M25.32 16.16C25.28 16.16 25.28 16.2 25.24 16.2L25.2 16.24C25.2 16.24 25.2 16.24 25.2 16.28C25.16 16.32 25.16 16.36 25.12 16.4V16.44V16.48C25.12 16.52 25.04 16.56 25 16.56C24.96 16.56 24.92 16.48 24.92 16.44C24.96 16.28 25.08 16.12 25.2 16C25.24 16 25.24 15.96 25.28 15.96C25.32 15.96 25.32 15.96 25.36 16C25.36 16.08 25.36 16.16 25.32 16.16Z" fill="#281B10"/>
<path d="M22.64 15.04C22.76 15.2 22.8 15.44 22.76 15.64C22.76 15.68 22.68 15.72 22.64 15.72C22.6 15.72 22.56 15.64 22.56 15.6C22.56 15.6 22.56 15.6 22.56 15.56C22.56 15.52 22.56 15.52 22.56 15.48C22.56 15.44 22.56 15.44 22.56 15.4C22.56 15.4 22.56 15.4 22.56 15.36V15.32C22.56 15.28 22.56 15.28 22.56 15.24V15.2C22.56 15.16 22.52 15.12 22.52 15.12C22.48 15.08 22.52 15 22.56 15C22.6 15 22.6 14.96 22.64 15.04Z" fill="#281B10"/>
<path d="M21.84 24.2C21.84 24.16 21.8 24.04 21.04 23.8C20.4 23.6 20.08 23.52 19.96 23.64C19.84 23.8 19.96 24.12 19.96 24.16C20.16 24.64 20.76 24.96 21.28 24.8C21.6 24.68 21.88 24.4 21.84 24.2Z" fill="#281B10"/>
<path d="M21.44 24.12C21.36 23.96 21.12 24.04 20.76 23.96C20.44 23.92 20.16 23.8 20 23.72C19.96 23.8 19.92 23.96 19.96 24.08C20.04 24.6 20.92 24.96 21.28 24.72C21.48 24.6 21.56 24.28 21.44 24.12Z" fill="#140D07"/>
<path d="M25.04 19.16L25 19.12C25 19.12 24.96 19.12 24.96 19.08C24.96 19.08 24.96 19.04 24.92 19.04V19V18.96L24.96 18.92L25 18.88H25.04C25.08 18.88 25.08 18.88 25.12 18.88L25.16 18.92C25.16 18.92 25.2 18.92 25.2 18.96C25.2 18.96 25.2 19 25.24 19V19.04V19.08L25.2 19.12L25.16 19.16H25.12C25.08 19.2 25.04 19.2 25.04 19.16Z" fill="white"/>
<path d="M21.56 18.08L21.48 18C21.48 18 21.44 18 21.44 17.96C21.44 17.96 21.44 17.92 21.4 17.92V17.88V17.84L21.44 17.8L21.48 17.76H21.52C21.56 17.76 21.56 17.76 21.6 17.76L21.68 17.8C21.68 17.8 21.72 17.8 21.72 17.84C21.72 17.84 21.72 17.88 21.76 17.88V17.92V17.96L21.72 18L21.68 18.04H21.64C21.64 18.08 21.6 18.08 21.56 18.08Z" fill="white"/>
<path d="M17.44 17.6399C17.44 17.4799 17.44 17.3599 17.36 17.2399C17.28 17.0799 17.08 16.9599 17 16.9999C16.84 17.1199 17.28 18.0799 17.4 18.0399C17.44 18.0399 17.44 17.7599 17.44 17.6399Z" fill="#B48262"/>
<path d="M22.44 11.1599C22.92 11.0799 23.4 11.1199 23.84 11.1999C24.32 11.2799 24.72 11.3599 25.16 11.4799C26 11.7199 26.8 12.1199 27.4 12.7999C27.56 12.9599 27.72 13.1999 27.72 13.3999C27.76 13.5999 27.68 13.8399 27.52 13.9999C27.44 14.0399 27.36 13.9599 27.44 13.9199C27.6 13.7999 27.64 13.5599 27.6 13.3999C27.56 13.1999 27.4 13.0399 27.28 12.8799C27 12.5599 26.68 12.3199 26.32 12.1199C25.6 11.7199 24.8 11.5199 24 11.3999C23.52 11.3199 23 11.2399 22.48 11.3599C22.4 11.2799 22.36 11.1599 22.44 11.1599Z" fill="#281B10"/>
<path d="M19.12 11.4C18.36 11.8 17.48 12.32 17.36 13.24C17.32 13.48 17.36 13.72 17.48 13.92C17.52 14 17.4 14.04 17.36 14C17.16 13.6 17.2 13.16 17.36 12.76C17.56 12.32 17.92 12 18.28 11.72C18.52 11.56 18.76 11.44 19.04 11.28C19.16 11.24 19.2 11.36 19.12 11.4Z" fill="#281B10"/>
<path d="M27.68 15.6C27.92 15.6 28.12 15.72 28.28 15.92C28.4 16.12 28.48 16.36 28.48 16.6C28.48 16.84 28.44 17.12 28.24 17.28C28.08 17.4 27.84 17.44 27.68 17.28C27.6 17.24 27.72 17.12 27.76 17.2C27.88 17.32 28.12 17.24 28.2 17.12C28.32 16.96 28.36 16.72 28.36 16.52C28.36 16.16 28.16 15.72 27.72 15.72C27.6 15.76 27.6 15.6 27.68 15.6Z" fill="#281B10"/>
<path d="M23 47.52C23.36 47.44 23.68 47.36 24 47.28C24.32 47.12 24.6 47.36 24.68 47.64C24.72 47.92 24.52 48.36 24.2 48.4C24.56 48.08 24.92 48.16 25.08 48.44C25.16 48.6 25.2 48.92 25.08 49.12C24.96 49.36 24.68 49.4 24.44 49.16C24.2 49.12 23.88 49.08 23.52 48.92C23.28 48.84 23.04 48.72 22.72 48.48C22.56 48.32 22.28 48.08 22.04 47.68C22.4 47.64 22.68 47.56 23 47.52Z" fill="#B48262"/>
<path d="M18.12 43.28C18.76 43.12 19.28 43.04 19.4 43.08C19.44 43.08 19.48 43.12 19.48 43.12C19.56 43.16 19.64 43.24 20.04 43.48C20.48 43.72 20.8 43.92 21.24 44.08C21.44 44.16 21.72 44.24 22.08 44.32C22.2 44.32 22.6 44.4 22.64 44.64C22.72 44.92 22.36 45.36 21.76 45.68C21.44 45.64 21.16 45.6 20.84 45.6C20.92 46 21.12 46.6 21.52 47.16C21.96 47.76 22.44 48.04 22.92 48.28C23.28 48.48 23.76 48.68 24.4 48.8C25.56 49.04 25.56 49.52 25.56 49.6C25.56 49.92 25.04 50.2 25 50.24C24.56 50.48 24.12 50.32 24 50.28C23.4 50.44 22.96 50.44 22.64 50.4C21.44 50.28 20.48 49.56 20 49.2C19.52 48.84 19.28 48.64 19.28 48.64C18.92 48.36 18.76 48.2 18.52 48.04C18.52 48.04 18.4 47.92 18.24 47.84C17.6 47.4 16.4 46.92 16.2 46.88C16.88 45.64 17.48 44.48 18.12 43.28Z" fill="#E2B18A"/>
<path d="M24.16 50.0801C22.76 49.5601 21.44 48.7601 20.24 47.8001C20.12 47.6801 19.92 47.8801 20.04 48.0001C21.24 49.0001 22.6 49.8001 24.08 50.3201C24.28 50.4401 24.36 50.1601 24.16 50.0801Z" fill="#B48262"/>
<path d="M21.6 51.48C21.44 51.52 21.24 51.56 21.08 51.6C20.92 52.56 20.76 53.52 20.6 54.48C20.84 54.36 21.2 54.16 21.64 54.08C22.36 53.92 22.92 54.08 23.48 54.12C24.04 54.2 24.84 54.2 25.84 54C25.48 54.04 24.96 54.04 24.36 53.96C23.64 53.88 23.36 53.72 22.76 53.72C22.4 53.72 21.88 53.76 21.24 53.96C21.36 53.12 21.48 52.28 21.6 51.48Z" fill="#78929F"/>
<path d="M19.08 55.5599C18.52 55.8399 18 56.1199 17.44 56.3599C16.92 57.1999 16.4 58.0799 15.88 58.9199C15.84 59.1599 15.76 59.4399 15.72 59.6799C16.4 59.6799 17.08 59.7199 17.8 59.7199C18.24 58.3599 18.64 56.9599 19.08 55.5599Z" fill="#78929F"/>
<path d="M11.56 24.6799C11.92 24.9199 12.48 25.1599 13.12 25.1599C13.92 25.1599 14.24 24.7599 14.6 24.8799C15.04 24.9999 15.4 25.7999 15.28 28.5999C15.32 27.1199 14.96 26.5199 14.56 26.2799C14.04 25.9599 13.56 26.2399 12.8 25.9199C12.16 25.5999 11.8 25.0799 11.56 24.6799Z" fill="#C9962D"/>
<path d="M16.04 21.64C15.92 23.04 15.84 24.48 15.72 25.88C15.72 24.4 15.48 23.92 15.2 23.84C14.92 23.76 14.64 24 14.48 23.84C14.24 23.6 14.68 22.88 14.72 22.84C14.84 22.52 15.24 22 16.04 21.64Z" fill="#C9962D"/>
<path d="M21.76 28.24C22.24 28.52 22.84 28.8 23.36 28.56C23.88 28.32 23.88 27.8 24.4 27.28C24.76 26.92 25.32 26.6 26.44 26.56C25 26.08 24.32 26.28 23.96 26.6C23.52 26.96 23.48 27.48 22.8 27.88C22.4 28.12 22 28.2 21.76 28.24Z" fill="#C9962D"/>
<path d="M11.04 32.5599C10.84 33.2399 10.44 34.9599 11.04 36.9999C11.76 39.3599 13.36 40.6799 13.92 41.1199C12.12 40.2799 10.28 39.4399 8.48001 38.5999C9.32001 36.5999 10.16 34.5599 11.04 32.5599Z" fill="#C9962D"/>
<path d="M26.4 35.72C26.52 36.88 26.84 38.16 27.48 39.48C30.28 45 37.12 46 38.08 46.16C37.88 46.48 37.56 46.84 37.12 47.24C36.72 47.56 36.32 47.8 36.04 47.96C34.88 47.68 33.4 47.2 31.8 46.28C29.04 44.68 27.44 42.56 26.6 41.28C26.56 39.44 26.48 37.6 26.4 35.72Z" fill="#C9962D"/>
<path d="M22.84 53.28C23.08 52.52 23.32 51.72 23.56 50.96C23.56 51.8 23.6 52.64 23.6 53.44C23.36 53.4 23.12 53.32 22.84 53.28Z" fill="#C9962D"/>
<path d="M22.2 29.08C22.6 31.28 22.84 33.2 23 34.6C23.24 36.6 23.44 38.56 23.44 41.12C23.44 43.28 23.28 45.04 23.12 46.32C22.8 40.6 22.52 34.84 22.2 29.08Z" fill="#C9962D"/>
<path d="M5.6 28.5199C5.48 28.4799 4.4 30.2799 3.32 32.6799C1.92 35.8799 1.2 38.6799 0.800003 40.6799C2.32 42.1199 4.64 43.9999 7.88 45.5599C10.88 46.9999 13.64 47.6799 15.6 47.9999C15.8 47.5999 16.04 47.1999 16.24 46.7999C13.16 46.1599 10.64 45.2799 8.84 44.5599C3.2 42.2799 2.6 40.6799 2.44 40.1599C2.28 39.5999 2.28 39.0399 2.92 36.5599C4.24 31.8399 5.72 28.5999 5.6 28.5199Z" fill="#C9962D"/>
<path d="M12.6 47.64C12.6 49.52 12.64 51.36 12.64 53.24C12.52 53.16 12.36 53 12.2 52.8C12.04 52.56 12.04 52.4 11.92 52.36C11.84 52.32 11.68 52.36 11.36 52.68C11.8 51 12.2 49.32 12.6 47.64Z" fill="#C9962D"/>
<path d="M2.88 60.04C9.6 60 16.36 59.96 23.08 59.92C23.28 59.92 23.28 59.6 23.08 59.6C16.36 59.64 9.6 59.68 2.88 59.72C2.68 59.72 2.68 60.04 2.88 60.04Z" fill="#494847"/>
</svg>
