<svg width="40" height="40" viewBox="0 0 40 40" fill="none" xmlns="http://www.w3.org/2000/svg">
<circle cx="20" cy="20" r="19.5" fill="#FDFDFD" stroke="#DEE2E1"/>
<path d="M23.0352 20.625H16.9375C15.7617 20.625 15.1602 22.0469 16.0078 22.8672L19.0703 25.9297C19.5625 26.4492 20.4102 26.4492 20.9297 25.9297L23.9648 22.8672C24.7852 22.0469 24.2109 20.625 23.0352 20.625ZM20 25L16.9375 21.9375H23.0625L20 25ZM16.9375 18.875H23.0352C24.2109 18.875 24.8125 17.4531 23.9648 16.6328L20.9023 13.5977C20.4102 13.0781 19.5625 13.0781 19.0703 13.5977L16.0078 16.6602C15.1875 17.4805 15.7617 18.875 16.9375 18.875ZM20 14.5L23.0352 17.5625H16.9375L20 14.5Z" fill="#14191F"/>
</svg>
