<svg width="12" height="13" viewBox="0 0 12 13" fill="none" xmlns="http://www.w3.org/2000/svg">
<path d="M6 12.5C9.30469 12.5 12 9.82812 12 6.5C12 3.19531 9.30469 0.5 6 0.5C2.67188 0.5 0 3.19531 0 6.5C0 9.82812 2.67188 12.5 6 12.5ZM9.02344 5.53906C9.23438 5.77344 9.23438 6.125 9.02344 6.33594C8.78906 6.57031 8.4375 6.57031 8.22656 6.33594L6.5625 4.67187V9.6875C6.5625 10.0156 6.30469 10.25 6 10.25C5.67188 10.25 5.4375 10.0156 5.4375 9.6875V4.67187L3.77344 6.33594C3.53906 6.57031 3.1875 6.57031 2.97656 6.33594C2.74219 6.125 2.74219 5.77344 2.97656 5.53906L5.60156 2.91406C5.8125 2.70312 6.16406 2.70312 6.375 2.91406L9.02344 5.53906Z" fill="#14191F"/>
</svg>
