<svg width="12" height="13" viewBox="0 0 12 13" fill="none" xmlns="http://www.w3.org/2000/svg">
<path d="M6 0.499999C2.69531 0.499999 1.20889e-06 3.17187 9.17939e-07 6.5C6.29034e-07 9.80469 2.69531 12.5 6 12.5C9.32813 12.5 12 9.80469 12 6.5C12 3.17187 9.32813 0.499999 6 0.499999ZM2.97656 7.46094C2.76563 7.22656 2.76563 6.875 2.97656 6.66406C3.21094 6.42969 3.5625 6.42969 3.77344 6.66406L5.4375 8.32812L5.4375 3.3125C5.4375 2.98437 5.69531 2.75 6 2.75C6.32813 2.75 6.5625 2.98437 6.5625 3.3125L6.5625 8.32812L8.22656 6.66406C8.46094 6.42969 8.8125 6.42969 9.02344 6.66406C9.25781 6.875 9.25781 7.22656 9.02344 7.46094L6.39844 10.0859C6.1875 10.2969 5.83594 10.2969 5.625 10.0859L2.97656 7.46094Z" fill="#14191F"/>
</svg>
