<svg width="25" height="25" viewBox="0 0 25 25" fill="none" xmlns="http://www.w3.org/2000/svg">
<rect width="25" height="25" rx="12.5" fill="#F4F6F5"/>
<path d="M12.5 6.5C9.17188 6.5 6.5 9.19531 6.5 12.5C6.5 15.8281 9.17188 18.5 12.5 18.5C15.8047 18.5 18.5 15.8281 18.5 12.5C18.5 9.19531 15.8047 6.5 12.5 6.5ZM12.5 17.375C9.80469 17.375 7.625 15.1953 7.625 12.5C7.625 9.82812 9.80469 7.625 12.5 7.625C15.1719 7.625 17.375 9.82812 17.375 12.5C17.375 15.1953 15.1719 17.375 12.5 17.375ZM12.5 9.5C11.2578 9.5 10.25 10.5312 10.25 11.75V13.25C10.25 14.4922 11.2578 15.5 12.5 15.5C13.7188 15.5 14.75 14.4922 14.75 13.25V11.75C14.75 10.5312 13.7188 9.5 12.5 9.5ZM13.625 13.25C13.625 13.8828 13.1094 14.375 12.5 14.375C11.8672 14.375 11.375 13.8828 11.375 13.25V11.75C11.375 11.1406 11.8672 10.625 12.5 10.625C13.1094 10.625 13.625 11.1406 13.625 11.75V13.25Z" fill="#14191F"/>
</svg>
