<svg width="50" height="50" viewBox="0 0 50 50" fill="none" xmlns="http://www.w3.org/2000/svg">
<path opacity="0.1" d="M24.5 44C35.2696 44 44 35.2696 44 24.5C44 13.7304 35.2696 5 24.5 5C13.7304 5 5 13.7304 5 24.5C5 35.2696 13.7304 44 24.5 44Z" fill="#4CBBFF"/>
<mask id="mask0_840_8510" style="mask-type:luminance" maskUnits="userSpaceOnUse" x="0" y="0" width="50" height="50">
<path d="M25.0427 49.5715C38.6211 49.5715 49.6285 38.5641 49.6285 24.9857C49.6285 11.4074 38.6211 0.400024 25.0427 0.400024C11.4644 0.400024 0.457031 11.4074 0.457031 24.9857C0.457031 38.5641 11.4644 49.5715 25.0427 49.5715Z" fill="white"/>
</mask>
<g mask="url(#mask0_840_8510)">
<path d="M54.9143 60.65C54.7214 60.3643 54.4857 59.9857 54.1 59.5071C52.6714 57.45 52.0429 57.0143 51.5214 56.0571C50.984 54.8628 50.5815 53.6122 50.3214 52.3285C49.8429 50.5571 49.8429 50.2714 49.0786 47.1571C48.7295 45.529 48.2518 43.9311 47.65 42.3785C47.4143 41.7571 47.1714 41.2785 46.8857 40.65C44.6857 35.8714 43.9643 35.3428 41.4786 30.7C41.0111 29.7241 40.3807 28.8352 39.6143 28.0714C38.8786 27.3804 38.0461 26.8005 37.1429 26.35C35 25.2928 27.9072 26.35 19.1572 30.1785C18.9697 30.4418 18.8834 30.7639 18.9143 31.0857C18.9284 31.4442 19.0449 31.7913 19.25 32.0857C19.25 32.6143 19.25 33.1428 19.2 33.6714C18.8907 33.7796 18.6165 33.9696 18.4065 34.2211C18.1964 34.4726 18.0584 34.7763 18.0072 35.1C17.9882 35.5299 18.1208 35.9528 18.3819 36.2949C18.643 36.6369 19.016 36.8764 19.4357 36.9714L21.0429 41.4285C20.6837 41.4676 20.3436 41.6098 20.0635 41.838C19.7833 42.0661 19.5753 42.3704 19.4643 42.7143C19.3731 43.1269 19.4169 43.5578 19.5893 43.9436C19.7616 44.3294 20.0533 44.6497 20.4214 44.8571C20.7273 45.0695 21.1041 45.1541 21.4714 45.0928C22.7643 45.0928 25.2072 45.0928 28.4072 45.1428C28.8434 45.2486 29.2486 45.4558 29.5899 45.7474C29.9312 46.039 30.1989 46.407 30.3714 46.8214C31.1857 48.5857 32.3357 50.2143 33.2929 51.9357C34.7594 54.5289 36.6693 56.8449 38.9357 58.7785C39.1786 58.9714 39.75 59.4 40.4643 60.0714C41.2793 60.8387 42.0317 61.67 42.7143 62.5571C45.2568 62.9914 47.8605 62.9112 50.3714 62.3214C51.9666 62.0151 53.501 61.4505 54.9143 60.65Z" fill="#FFC59C"/>
<path d="M47.8572 62.8071L46.2786 60.7928C44.65 59.7928 43.0715 58.7857 41.4429 57.7785C43.0715 54.3357 44.65 50.8428 46.2786 47.4C43.7858 45.1 41.2786 42.8071 38.7643 40.5071C38.3786 35.9142 38 31.3214 37.6643 26.6857C32.6643 28.7857 27.6334 30.8904 22.5715 33C21.5715 34.3357 20.5643 35.6785 19.5572 36.9714L21.1358 41.4285C20.7766 41.4676 20.4365 41.6098 20.1563 41.8379C19.8762 42.0661 19.6681 42.3704 19.5572 42.7142C19.4672 43.1268 19.5115 43.5573 19.6837 43.9429C19.856 44.3285 20.147 44.6488 20.5143 44.8571C20.8221 45.0714 21.2018 45.156 21.5715 45.0928C22.8572 45.0928 25.3 45.0928 28.5072 45.1428C28.8469 45.2342 29.1699 45.3788 29.4643 45.5714C29.9002 45.8945 30.2448 46.3252 30.4643 46.8214C31.2786 48.5857 32.4286 50.2142 33.3858 51.9357C34.8569 54.5257 36.7661 56.841 39.0286 58.7785C39.2715 58.9714 39.8429 59.4 40.5643 60.0714C41.3754 60.8426 42.1275 61.6735 42.8143 62.5571C44.0286 62.7668 45.2616 62.8482 46.4929 62.7999C46.945 62.8675 47.4044 62.8699 47.8572 62.8071Z" fill="#C78A6B"/>
<path d="M37.5354 43.7572H18.0997C17.8539 43.763 17.6157 43.6718 17.4366 43.5034C17.2575 43.335 17.1519 43.1028 17.1426 42.8572V6.13573C17.1426 6.01191 17.167 5.88931 17.2143 5.77491C17.2617 5.66052 17.3312 5.55658 17.4187 5.46903C17.5063 5.38148 17.6102 5.31202 17.7246 5.26464C17.839 5.21726 17.9616 5.19287 18.0854 5.19287H37.5926C37.7161 5.19287 37.8383 5.2173 37.9523 5.26478C38.0663 5.31225 38.1698 5.38181 38.2568 5.46946C38.3438 5.5571 38.4125 5.6611 38.4591 5.77545C38.5057 5.8898 38.5292 6.01225 38.5283 6.13573V42.7643C38.5211 43.0253 38.4142 43.2737 38.2295 43.4584C38.0449 43.643 37.7965 43.7499 37.5354 43.7572Z" fill="#473634"/>
<path d="M37.014 43.7572H17.5212C17.2786 43.7591 17.0448 43.6661 16.8699 43.4979C16.695 43.3297 16.5929 43.0997 16.5855 42.8572V6.13573C16.5845 6.01225 16.608 5.8898 16.6546 5.77545C16.7012 5.6611 16.77 5.5571 16.857 5.46946C16.944 5.38181 17.0475 5.31225 17.1615 5.26478C17.2754 5.2173 17.3977 5.19287 17.5212 5.19287H37.014C37.2641 5.19287 37.5039 5.29221 37.6807 5.46903C37.8576 5.64585 37.9569 5.88567 37.9569 6.13573V42.7643C37.959 43.0197 37.8619 43.2659 37.686 43.4511C37.5101 43.6364 37.2692 43.7461 37.014 43.7572Z" fill="#604945"/>
<path d="M36.4283 43.2357H18.0998C17.9745 43.2386 17.8499 43.2163 17.7334 43.1701C17.6169 43.1239 17.5109 43.0548 17.4216 42.9668C17.3324 42.8789 17.2617 42.7739 17.2137 42.6581C17.1658 42.5424 17.1416 42.4181 17.1426 42.2928V6.76427C17.1426 6.64045 17.167 6.51785 17.2144 6.40345C17.2618 6.28906 17.3312 6.18512 17.4188 6.09757C17.5063 6.01002 17.6103 5.94056 17.7246 5.89318C17.839 5.8458 17.9616 5.82141 18.0855 5.82141H36.4283C36.5518 5.82141 36.6741 5.84585 36.7881 5.89332C36.9021 5.94079 37.0055 6.01035 37.0925 6.098C37.1795 6.18564 37.2483 6.28964 37.2949 6.40399C37.3415 6.51834 37.365 6.64079 37.364 6.76427V42.2928C37.3659 42.4166 37.3431 42.5395 37.2968 42.6542C37.2506 42.769 37.1818 42.8734 37.0947 42.9613C37.0075 43.0491 36.9036 43.1186 36.7892 43.1658C36.6748 43.2129 36.5521 43.2367 36.4283 43.2357Z" fill="white"/>
<path d="M23.3211 7.6H19.1996C19.1585 7.59825 19.1195 7.58113 19.0905 7.55203C19.0614 7.52293 19.0442 7.48398 19.0425 7.44286V7.38572C19.0459 7.34587 19.0638 7.30865 19.0927 7.28104C19.1217 7.25342 19.1597 7.23731 19.1996 7.23572H23.3211C23.361 7.23731 23.399 7.25342 23.428 7.28104C23.4569 7.30865 23.4747 7.34587 23.4782 7.38572V7.44286C23.4764 7.48398 23.4593 7.52293 23.4302 7.55203C23.4011 7.58113 23.3622 7.59825 23.3211 7.6Z" fill="#604945"/>
<path d="M33.6711 7.59997H32.8569C32.8157 7.59822 32.7768 7.5811 32.7477 7.552C32.7186 7.5229 32.7015 7.48394 32.6997 7.44283V7.38569C32.7032 7.34584 32.721 7.30862 32.7499 7.281C32.7789 7.25339 32.8169 7.23728 32.8569 7.23569H33.6926C33.7997 7.17854 33.8497 7.28569 33.8497 7.38569V7.44283C33.8529 7.46616 33.8502 7.4899 33.842 7.51195C33.8337 7.53401 33.8202 7.55368 33.8025 7.56924C33.7848 7.58479 33.7636 7.59573 33.7407 7.60109C33.7178 7.60645 33.6939 7.60607 33.6711 7.59997Z" fill="#604945"/>
<path d="M36.4282 7.60003H34.2854C34.2642 7.60228 34.2428 7.59976 34.2227 7.59266C34.2026 7.58556 34.1843 7.57406 34.1693 7.55899C34.1542 7.54392 34.1427 7.52568 34.1356 7.50559C34.1285 7.4855 34.126 7.46408 34.1282 7.44289V7.38575C34.1282 7.28575 34.1782 7.23575 34.2854 7.23575H36.4282C36.449 7.23227 36.4704 7.23368 36.4905 7.23988C36.5107 7.24607 36.5291 7.25687 36.5443 7.27143C36.5596 7.28599 36.5712 7.3039 36.5784 7.32374C36.5855 7.34358 36.5879 7.36481 36.5854 7.38575V7.44289C36.5876 7.46408 36.5851 7.4855 36.578 7.50559C36.5709 7.52568 36.5594 7.54392 36.5443 7.55899C36.5293 7.57406 36.511 7.58556 36.4909 7.59266C36.4709 7.59976 36.4494 7.60228 36.4282 7.60003Z" fill="#604945"/>
<path d="M31.7427 38.9857H11.357C11.2515 38.9838 11.1508 38.9411 11.0762 38.8665C11.0016 38.7918 10.9589 38.6912 10.957 38.5857V12.1428C10.957 12.0367 10.9992 11.935 11.0742 11.86C11.1492 11.7849 11.2509 11.7428 11.357 11.7428H28.9713L32.1427 14.6357V38.5714L31.7427 38.9857Z" fill="#00C4A6"/>
<path d="M32.1426 38.5715H11.7354C11.6294 38.5715 11.5276 38.5293 11.4526 38.4543C11.3776 38.3793 11.3354 38.2776 11.3354 38.1715V11.7429C11.3373 11.6374 11.38 11.5367 11.4546 11.4621C11.5293 11.3875 11.6299 11.3447 11.7354 11.3429H29.3497L32.5212 14.25V38.1643L32.1426 38.5715Z" fill="#AFE5DB"/>
<path d="M29.3283 11.3071L32.5497 14.2571L29.314 14.1857L29.3283 11.3071Z" fill="#00C4A6"/>
<path d="M18.8424 22.6215H13.0566V23H18.8424V22.6215Z" fill="white"/>
<path d="M16.614 23.4215H13.0068V23.8001H16.614V23.4215Z" fill="white"/>
<path d="M18.8426 16.2786H13.1426V21.7857H18.8426V16.2786Z" fill="#BABCBB"/>
<path d="M15.8712 19.2643C16.601 19.2643 17.1927 18.6919 17.1927 17.9857C17.1927 17.2796 16.601 16.7072 15.8712 16.7072C15.1414 16.7072 14.5498 17.2796 14.5498 17.9857C14.5498 18.6919 15.1414 19.2643 15.8712 19.2643Z" fill="white"/>
<path d="M13.4497 21.5286H18.3426C18.247 20.9653 17.9592 20.4524 17.5282 20.0774C17.0971 19.7023 16.5494 19.4882 15.9783 19.4715C15.3808 19.4567 14.7977 19.6558 14.334 20.033C13.8704 20.4102 13.5568 20.9406 13.4497 21.5286Z" fill="white"/>
<path d="M30.8073 34.5499H20.2358V35.5071H30.8073V34.5499Z" fill="white"/>
<path d="M27.7428 28.4714H20.2285V29.4286H27.7428V28.4714Z" fill="white"/>
<path d="M25.8571 30.5H20.2285V31.4571H25.8571V30.5Z" fill="white"/>
<path d="M30.7927 32.4929H20.207V33.4501H30.7927V32.4929Z" fill="white"/>
<path d="M25.3642 22.3928H20.2285V23.35H25.3642V22.3928Z" fill="white"/>
<path d="M30.8073 24.4214H20.2358V25.3785H30.8073V24.4214Z" fill="white"/>
<path d="M26.707 26.4214H20.207V27.3785H26.707V26.4214Z" fill="white"/>
<path d="M25.3501 16.2786H20.2144V17.2357H25.3501V16.2786Z" fill="white"/>
<path d="M25.3572 18.3071H20.2144V19.2643H25.3572V18.3071Z" fill="white"/>
<path d="M26.8214 20.3H20.1929V21.2572H26.8214V20.3Z" fill="white"/>
<path d="M31.4859 16.1C33.5451 16.1 35.2145 14.4306 35.2145 12.3714C35.2145 10.3122 33.5451 8.64282 31.4859 8.64282C29.4267 8.64282 27.7573 10.3122 27.7573 12.3714C27.7573 14.4306 29.4267 16.1 31.4859 16.1Z" fill="#4CB9FF"/>
<path d="M31.4858 8.85716C32.1809 8.85716 32.8603 9.06327 33.4383 9.44942C34.0162 9.83558 34.4666 10.3844 34.7326 11.0266C34.9986 11.6687 35.0682 12.3753 34.9326 13.057C34.797 13.7388 34.4623 14.3649 33.9708 14.8564C33.4793 15.3479 32.8531 15.6826 32.1714 15.8182C31.4897 15.9538 30.7831 15.8842 30.141 15.6182C29.4988 15.3522 28.95 14.9018 28.5638 14.3239C28.1777 13.746 27.9715 13.0665 27.9715 12.3714C27.9734 11.44 28.3443 10.5472 29.0029 9.88856C29.6616 9.22991 30.5544 8.85905 31.4858 8.85716ZM31.4858 8.42859C30.706 8.42859 29.9437 8.65983 29.2953 9.09308C28.6469 9.52633 28.1415 10.1421 27.8431 10.8626C27.5447 11.583 27.4666 12.3758 27.6187 13.1407C27.7709 13.9055 28.1464 14.608 28.6978 15.1595C29.2492 15.7109 29.9518 16.0864 30.7166 16.2385C31.4815 16.3907 32.2742 16.3126 32.9947 16.0142C33.7152 15.7157 34.3309 15.2104 34.7642 14.562C35.1974 13.9136 35.4287 13.1513 35.4287 12.3714C35.4287 11.3257 35.0133 10.3229 34.2738 9.58343C33.5344 8.844 32.5315 8.42859 31.4858 8.42859Z" fill="white"/>
<path d="M33.4859 12.7214L31.5359 10.0714L29.5645 12.7214H30.6787V14.6714H32.3859V12.7214H33.4859Z" fill="white"/>
<path d="M46.3499 47.4C43.496 44.9883 40.474 42.7827 37.307 40.8C34.9589 39.327 32.5314 37.9845 30.0356 36.7786C29.4364 36.6035 28.7937 36.6563 28.2311 36.9267C27.6685 37.197 27.2258 37.6659 26.9882 38.2431C26.7506 38.8203 26.7349 39.465 26.9441 40.0531C27.1532 40.6412 27.5726 41.1311 28.1213 41.4286C29.7789 42.4534 31.3767 43.5719 32.907 44.7786C33.2927 45.1072 33.6713 45.4 34.057 45.7286C34.4867 46.1517 34.8267 46.657 35.057 47.2143C35.3537 47.8641 35.5025 48.5715 35.4927 49.2857C35.5356 51.3429 37.0713 53.5715 37.6927 54.55C39.6999 57.5643 42.907 58.9 44.4356 59.4286" fill="#FFC59C"/>
<path d="M28.7926 41.1786C29.464 40.0786 30.1355 38.9286 30.7997 37.8286C30.5787 37.6458 30.3233 37.5093 30.0485 37.427C29.7737 37.3448 29.4853 37.3185 29.2002 37.3498C28.9151 37.3811 28.6392 37.4694 28.3888 37.6093C28.1384 37.7492 27.9187 37.9379 27.7426 38.1643C27.5969 38.4279 27.5084 38.7192 27.4828 39.0193C27.4573 39.3194 27.4953 39.6216 27.5944 39.906C27.6934 40.1904 27.8514 40.4507 28.0578 40.67C28.2643 40.8893 28.5147 41.0626 28.7926 41.1786Z" fill="#FFDFCA"/>
</g>
</svg>
